<?xml version="1.0" standalone="no"?>
<!DOCTYPE svg PUBLIC "-//W3C//DTD SVG 20010904//EN"
 "http://www.w3.org/TR/2001/REC-SVG-20010904/DTD/svg10.dtd">
<svg version="1.0" xmlns="http://www.w3.org/2000/svg"
 width="259.000000pt" height="259.000000pt" viewBox="0 0 259.000000 259.000000"
 preserveAspectRatio="xMidYMid meet">
<metadata>
Created by potrace 1.11, written by Peter Selinger 2001-2013
</metadata>
<g transform="translate(0.000000,259.000000) scale(0.100000,-0.100000)"
fill="#000000" stroke="none">
<path d="M1370 2489 c-39 -16 -68 -56 -122 -167 -99 -202 -152 -221 -324 -115
-58 36 -84 46 -131 50 -101 8 -148 -33 -200 -175 -44 -118 -109 -172 -208
-172 -28 0 -122 21 -170 37 -11 4 -46 7 -77 6 -52 -1 -61 -4 -91 -34 -19 -19
-37 -44 -41 -57 -15 -46 11 -101 59 -128 12 -7 20 -22 21 -40 2 -81 28 -108
122 -125 106 -20 140 -47 146 -120 8 -102 -83 -179 -218 -185 -71 -4 -92 -11
-110 -40 -20 -29 -27 -103 -13 -121 5 -7 7 -13 3 -13 -3 0 6 -13 20 -29 29
-33 93 -62 121 -56 10 2 34 8 53 13 30 7 71 9 117 3 7 0 28 -15 48 -32 30 -27
35 -37 35 -76 0 -42 -4 -48 -79 -121 -43 -42 -84 -87 -90 -99 -20 -40 -13 -79
20 -110 68 -62 56 -110 -44 -184 -71 -52 -89 -88 -75 -153 12 -55 45 -96 97
-119 56 -25 114 -24 181 3 68 27 96 48 209 160 95 94 122 113 171 124 35 7 83
-23 103 -65 21 -46 75 -99 99 -99 30 0 44 21 52 75 10 63 32 101 67 115 43 18
65 5 79 -45 16 -58 39 -77 101 -83 61 -6 109 15 149 62 63 75 64 76 161 72 48
-2 94 -8 101 -12 7 -5 24 -10 38 -12 14 -1 39 -7 55 -12 97 -30 217 -30 276
-1 48 24 89 82 89 125 0 26 -44 86 -63 86 -6 0 -48 11 -94 25 -123 38 -164 85
-136 155 24 58 68 67 145 32 77 -36 111 -28 149 35 37 61 86 99 153 118 103
30 170 55 192 74 23 19 53 71 59 103 6 29 -31 111 -61 137 -36 31 -91 61 -113
61 -10 0 -21 3 -24 6 -4 4 -43 8 -88 10 -147 7 -199 62 -147 156 14 23 24 50
23 58 -1 8 -3 20 -3 27 -3 23 -48 36 -131 38 -77 2 -87 5 -107 28 -14 17 -21
36 -20 59 5 66 21 84 128 148 82 49 107 81 103 134 -2 43 -28 69 -81 85 -44
12 -124 6 -165 -12 -86 -40 -148 -59 -201 -62 -52 -2 -59 0 -92 31 -20 19 -36
37 -37 41 0 5 -2 17 -4 28 -2 11 4 59 14 108 28 132 19 174 -43 222 -38 29
-116 41 -156 24z"/>
</g>
</svg>
