<svg xmlns="http://www.w3.org/2000/svg" width="458" height="345" fill="none"><g clip-path="url(#clip0)"><path fill="#3AB795" d="M454.5 153.6l-.3 1.5c-3 16.7-7.7 32.7-15 47.5-.1.5-.4 1-.7 1.5-4.6 9.3-10.2 18-16.8 26a53.6 53.6 0 0 1-12.2 11.5c-6.5 4.1-14 5.8-21.5 7.2-7.8 1.4-15.6 2.6-23.5 3.9l-8.3 1.4c-7.6 1.4-15 3-22.4 5.1-9 2.6-17.9 6-26.2 10.8l-2 1.2-2 1.2-1.8 1.2-1 .7-1 .6c-.8.7-1.7 1.4-2.7 2l-1.9 1.4c-3.4 2.5-6.7 5.1-10 7.8l-2.1 1.6c-1 1-2.1 1.8-3.2 2.6l-2 1.5-1.3 1.1-7.2 5.3-1.8 1.3c-4.9 3.3-10 6.2-15.5 8.5a59.2 59.2 0 0 1-13.2 4 43 43 0 0 1-13.1.2c-8.6-1.2-16.7-5.3-25.2-6.6-17.7-2.8-34.9 6.1-51.5 13a248.4 248.4 0 0 1-20.7 7.7c-17 5.5-34.4 9.2-52.1 11.2-7.2.8-14.8 1.2-22.1.6-2.8-.2-5.6-.6-8.3-1.1a47.9 47.9 0 0 1-38.1-32.6 102.7 102.7 0 0 1-7.7-34c-.6-10.8.4-21.5 3-32 3-11.5 8-22.5 10.2-34.2l.3-1.5c.3-1.7.5-3.5.6-5.3 1.1-14.2-3.1-28.2-6.5-42.1l-.3-1.5-1-4.6a118.1 118.1 0 0 1-1-46.8 73.1 73.1 0 0 1 29.4-45.9 136.3 136.3 0 0 1 19.3-13 137.8 137.8 0 0 1 74.3-17.4l4 .3c1.4 0 2.8.2 4.2.4 16.5 2 32.6 6.6 48.6 11.8l16 5.3 7 2.3a367.1 367.1 0 0 0 43.7 11 202.8 202.8 0 0 0 40.4 2.9c2 0 3.9-.2 5.8-.4C318 58 337 52.3 356.1 47l8.3-2.3c3.6-1 7.3-2 11-2.8 22.7-5.5 43-2.3 64.1 9 4.8 2.6 9.6 5.6 12.6 10.4a38 38 0 0 1 4.2 16.4 328 328 0 0 1 1.6 26.1c.4 16.6-.6 33.5-3.4 49.8z" opacity=".1"/><path fill="#3AB795" d="M303.5 202.6H302v1.5h1.7l-.2-1.5zm-16.9 0l-.1 1.2v.2h13l.8-1.5h-13.7zm-34.5 0V155H267l-.5-.4-.2-.2-.3-.2-.5-.4-.4-.2h-12.9V151l-.3.2-.4.2h-.1l-.2.2-.3.1-.6.5-.2.2c-.2 0-.3.2-.5.3l-1.7 1.4-.4.4a20.4 20.4 0 0 1-1.5.9l-.2.1h-.3c-.5.3-1 .5-1.6.6v46.4h-22.2v.2l.4 1.3h21.8v50.9h1.5l1 .2h.6l.6.1 1 .2h.8l.7.2h2.1v-51.5h34.4v-.2l.1-1.2-34.6-.1zm51.4 0H302v1.5h1.7l-.2-1.5zm-17.8 0l-.1 1.5h14.3l1-1.5h-15.2zm-33.6 0V155H267l-.5-.4-.2-.2-.3-.2-.5-.4-.4-.2h-12.9V151l-.4.2-.3.2h-.2l-.2.2-.2.1-.7.5-.2.2-.4.3c-.6.5-1.1 1-1.8 1.4 0 .2-.3.3-.4.4a19.9 19.9 0 0 1-1.4.9l-.3.1h-.2c-.5.3-1 .5-1.6.6v46.4h-22.3v.2l.4 1.3H244v50.9h1.4l1.2.2h.5l.5.1h.1l1 .2h.7l.7.2H252.2v-51.5h33.4l.2-1.5h-33.7zm112.4-99H458v-1.4h-93.5V44.5l-8.3 2.3v55.4H254.6l-.3-.3.4-.4 37.8-41.6c-3.8.2-7.5.2-11.3.1l-29 32V57c-2.9-.4-5.6-1-8.4-1.5v35l-42.5-46.8-16-5.3L243 102l-.2.3h-106V26.6l-4.3-.5-4-.2v76.3H54.2V43.4a123 123 0 0 0-8.3 5v53.8H5.5l-.4 1.5h40.7v50H7.4l.4 1.4h38v47.5H13.7l-.2 1.5h32.5v132.8c2.7.5 5.4.8 8.2 1V204.2h74.3v122l8.3-2.8V204.1h107v106.6c2.8-.7 5.6-1.7 8.3-2.8V204h104.2v50l8.3-1.4V204h74l.7-1.5h-74.7V155h89.7l.3-1.5h-90v-50zm-310.3 0h74.3v50H54.2v-50zm0 99V155h74.3v47.5H54.2zm82.6-99h107v50h-107v-50zm0 99V155h107v47.5h-107zm219.4 0h-104V155h104v47.5zm0-49h-104V105l1.4-1.3h102.6v50zm-69.6 49l-.1 1.2v.2h13l.8-1.5h-13.7zm17 0H302v1.5h1.7l-.2-1.5zm-51.5 0V155H267l-.5-.4-.2-.2-.3-.2-.5-.4-.4-.2h-12.9V151l-.4.2-.3.2h-.2l-.2.2-.2.1-.7.5-.2.2-.4.3c-.6.5-1.1 1-1.8 1.4 0 .2-.3.3-.4.4a19.9 19.9 0 0 1-1.4.9l-.3.1h-.2c-.5.3-1 .5-1.6.6v46.4h-22.3v.2l.4 1.3H244v50.9h1.4l1.2.2h.5l.5.1h.1l1 .2h.7l.7.2H252.2v-51.5h34.3v-.2l.2-1.2-34.6-.1z" opacity=".1"/><path fill="#3AB795" d="M89.9 69.3h.6c-.5-.3-.7-.8-.8-1.3 0-1 1.3-1.8 2.8-1.8h19.2c1.6 0 2.8.8 2.8 1.8s-1.2 1.8-2.8 1.8h-.6c.5.3.7.8.8 1.3 0 .9-1 1.6-2.1 1.8h5.5c1.5 0 2.8.8 2.8 1.8s-1.3 1.9-2.8 1.9H96c-1.5 0-2.7-.9-2.7-1.9 0-.8.9-1.5 2-1.8H90c-1.6 0-2.8-.8-2.8-1.8s1.2-1.8 2.8-1.8zM298.6 86.8h.7c-.5-.3-.8-.7-.8-1.3 0-1 1.2-1.8 2.7-1.8h19.3c1.6 0 2.8.8 2.8 1.8s-1.2 1.9-2.8 1.9h-.6c.5.2.7.7.8 1.2 0 1-1 1.6-2.1 1.8h5.5c1.5 0 2.8.9 2.8 1.9 0 1-1.3 1.8-2.8 1.8H305c-1.6 0-2.8-.8-2.8-1.8s1-1.6 2.1-1.8h-5.5c-1.6 0-2.8-.9-2.8-1.9 0-1 1.2-1.8 2.7-1.8zM277.4 21s-29 8.2-15 20.6c0 0 1.3 2.6 5.3 2.6 0 0-.7-1 2.4-1.6 1-.2 2.1-.5 3.1-1a5.6 5.6 0 0 0 3-2.2s6-5 2-14.8c0 0 .8-2.7.2-3.1l-3.6 3s3.5 1.7 3.8 4c0 0-3.5-4-4.4-3.7l-1.8 1.7s6 3.1 6.3 6.8c0 0-3.2-5.3-7-6.2l-2.2 2.4s6.6 3.1 7.2 7.3c0 0-3.7-5.4-7.6-6.7l-1.8 2.6s6.4 3.1 6.8 6.6c0 0-5.1-6-7.1-6 0 0-1.4 2.5-1.3 3.3 0 0 4.5 2.3 4.5 4.4 0 0-4-3.9-4.7-3.7 0 0-.5 3.6.7 5.6 0 0-2-2.8-1.6-5.6 0 0-2.3 1.1-2.9 2.8 0 0-1.1-2 3-3.7 0 0 .6-2.8 1-3.1 0 0-4.4 1.2-6.4 2.8 0 0 .8-2.5 6.8-3.5l1.7-2.7s-6 1.4-8 2.8c0 0 1.5-2.5 8.5-3.4l2.1-2.5s-5.3 1-8 2.1c0 0 2.2-2 8.7-2.8l1.7-1.5-5 1c-1 .3-1.2.1-1.2.1a17 17 0 0 1 7-1.7 18 18 0 0 0 3.8-3zM60.3 161.7h.7c-.5-.2-.8-.7-.8-1.2 0-1 1.2-1.9 2.8-1.9h19.2c1.6 0 2.8.9 2.8 1.9 0 1-1.2 1.8-2.8 1.8h-.6c.5.3.7.8.8 1.3 0 .9-1 1.6-2.1 1.8h5.5c1.5 0 2.8.8 2.8 1.8s-1.3 1.8-2.8 1.8H66.5c-1.5 0-2.7-.8-2.7-1.8 0-.9.9-1.6 2-1.8h-5.5c-1.5 0-2.7-.8-2.7-1.8s1.2-1.9 2.7-1.9zM396.1 268s-14.4 15.6-1.4 23.2c0 0 1.7 2 4.1 1 0 0-.8-.8.9-2.2l1.5-1.7a5 5 0 0 0 1-3s1.8-6.1-4.2-14.1c0 0-.6-2.7-1-3l-1.1 3.7s2.7.7 3.8 2.8c0 0-3.7-2.8-4-2.2l-.5 2s4.8 1.2 6.3 4.5c0 0-4-4-6.5-3.8l-.5 2.8s5.2 1 7 4.8c0 0-4.2-4-7-4.1l-.2 2.9s5 1.1 6.5 4.2c0 0-5.3-4.1-6.5-3.5 0 0 .1 2.7.5 3.3 0 0 3.6 1 4.3 2.8 0 0-3.9-2.4-4.2-2 0 0 1 3.4 2.5 4.8 0 0-2.3-2-3-4.7 0 0-1 1.7-.8 3.4 0 0-1.4-1.6.5-4.2 0 0-.7-2.7-.5-3.2 0 0-2.3 2.4-2.9 4.4 0 0-.4-2.6 2.9-5.1v-3s-3.2 3-3.8 4.8c0 0 0-2.8 3.8-5.5l.4-2.8s-2.8 2.3-4 4.1c0 0 .5-2.5 4.2-5l.5-1.8-2.6 2.3c-.5.5-.7.4-.7.4.8-1.5 2-2.7 3.6-3.5 0 .1 1.4-3.6 1.1-3.7zM363 345s14.6-15.4 1.7-23c0 0-1.7-2-4.2-1 0 0 .9.7-.8 2.1l-1.6 1.7c-.6.8-1 1.9-.9 2.9 0 0-2 6.1 4 14.2 0 0 .5 2.7 1 3l1-3.7s-2.7-.8-3.7-2.9c0 0 3.6 2.9 4 2.3l.5-2s-4.8-1.3-6.3-4.6c0 0 3.9 4 6.5 4l.4-3s-5-1-6.9-4.8c0 0 4.1 4 7 4.2l.1-2.9s-5-1.2-6.5-4.3c0 0 5.3 4.3 6.5 3.6 0 0 0-2.6-.5-3.3 0 0-3.5-1-4.2-2.8 0 0 3.8 2.4 4.1 2 0 0-1-3.4-2.4-4.9 0 0 2.2 2 3 4.8 0 0 1-1.7.7-3.4 0 0 1.4 1.6-.6 4.2 0 0 .7 2.7.5 3.1 0 0 2.3-2.2 2.9-4.3 0 0 .4 2.6-2.9 5v3s3.1-2.8 3.8-4.6c0 0 0 2.7-3.9 5.3l-.4 2.9s3-2.3 4-4c0 0-.5 2.5-4.2 4.8l-.5 1.9 2.7-2.3c.5-.5.7-.4.7-.4-.9 1.4-2 2.7-3.6 3.4.1 0-1.2 3.7-1 3.8zM220.5.5s2.5 21 16.7 16c0 0 2.6 0 3.4-2.5 0 0-1.1.2-1.1-2 0-.8-.2-1.6-.3-2.3-.3-1-.9-2-1.7-2.6 0 0-3.5-5.4-13.5-6 0 0-2.4-1.2-2.9-1l2.1 3.2s2.4-1.7 4.6-1.1c0 0-4.5.9-4.3 1.6l1.3 1.6s4-2.9 7.5-1.9c0 0-5.5.4-7.1 2.5l1.9 2.2s4.1-3.2 8.1-2.3c0 0-5.8.7-7.7 2.8l2.2 1.9s4.1-3.1 7.4-2.3c0 0-6.6 1.4-6.9 2.7 0 0 2.1 1.6 2.9 1.8 0 0 3-2.1 4.8-1.5 0 0-4.3 1.4-4.2 1.9 0 0 3.2 1.4 5.3 1.3 0 0-3 .4-5.6-.8 0 0 .7 1.9 2.1 2.7 0 0-2 .1-2.8-3 0 0-2.6-1.3-2.7-1.6 0 0 .3 3.1 1.4 5 0 0-2.2-1.4-2-5.5l-2.2-1.9s.1 4.3 1.1 5.9c0 0-2-1.7-1.7-6.4l-1.8-2.2s-.2 3.7.5 5.8c0 0-1.6-2-1-6.4l-1.1-1.6V8c0 .7-.2.8-.2.8a9.2 9.2 0 0 1-.3-5s-2-3.4-2.2-3.3zM326.3 297.2s-20.4-5.7-21 9.3c0 0-1.1 2.5 1 4.1 0 0 .2-1 2.2-.2.7.2 1.5.5 2.3.6 1 0 2 0 3-.6 0 0 6.3-1.2 10.6-10.2 0 0 2-1.7 2.2-2.3l-3.8.8s.6 2.8-.8 4.7c0 0 .9-4.6.2-4.6l-2 .4s1.1 4.9-1.1 7.7c0 0 1.7-5.3.4-7.5l-2.8 1s1.5 5-1 8.3c0 0 1.6-5.6.4-8.1l-2.6 1.2s1.4 5-.7 7.8c0 0 1.2-6.7.1-7.5 0 0-2.3 1.3-2.7 2 0 0 .9 3.6-.5 5 0 0 .4-4.5-.1-4.6 0 0-2.6 2.5-3.2 4.4 0 0 .7-3 2.8-4.8 0 0-2 0-3.3 1 0 0 .7-2.1 3.9-1.6 0 0 2-1.9 2.5-1.9 0 0-3-1-5.1-.5 0 0 2-1.6 5.8.2l2.6-1.4s-4-1.4-5.9-1.1c0 0 2.4-1.4 6.6.9l2.7-1s-3.4-1.5-5.5-1.6c0 0 2.4-.7 6.2 1.4l2-.4-3.3-1.3c-.7-.2-.7-.4-.7-.4a9 9 0 0 1 4.7 1.6s3.9-.6 3.9-.8zM115.3 323.5c28.7 0 51.9-3.9 51.9-8.7 0-4.8-23.2-8.7-51.9-8.7-28.6 0-51.9 3.9-51.9 8.7 0 4.8 23.3 8.7 52 8.7z" opacity=".1"/><path fill="#B77B7F" d="M118.8 199.9v1.7l-3 104.2h-5l2.5-104.2v-2l5.5.3z"/><path fill="#DDA2A6" d="M147.5 288.1H85.6l1.6-4.9h59.9l.4 5z"/><path fill="#000" d="M118.8 199.9v1.7h-5.5v-2l5.5.3z" opacity=".1"/><path fill="#B77B7F" d="M120.8 197.3h-9.2v3.4h9.2v-3.4z"/><path fill="#DDA2A6" d="M97 197.2l-.1 1.5-12.3 121-5.6-.3L92 198.7l.2-1.3 4.9-.2z"/><path stroke="#535461" stroke-miterlimit="10" stroke-width="2" d="M344.3 257.4s11-19.4 27.4-25c6.9-2.3 12.9-6.8 17-12.8 2-3 3.6-6 5-9.1"/><path fill="#3AB795" d="M399.1 222.7c-2.5.5-10.9-2.7-10.9-2.7s6.5-6.1 9.1-6.6c2.6-.6 5 1.1 5.6 3.7.5 2.6-1.1 5-3.8 5.6zM381.2 239.7c-2.5-.9-8.1-7.8-8.1-7.8s8.7-2 11.2-1.2a4.8 4.8 0 0 1-3 9h-.1zM364.6 249.5c-2.5-.4-9.3-6.3-9.3-6.3s8.3-3.5 10.9-3c2.5.3 4.3 2.8 4 5.4a4.8 4.8 0 0 1-5.5 4zM381 213.2c0 2.6 4.7 10.2 4.7 10.2s4.7-7.6 4.7-10.2a4.7 4.7 0 0 0-9.4 0zM361.8 224.9a38 38 0 0 0 7.5 8.3s2.3-8.6 1.5-11.1a4.7 4.7 0 0 0-5.9-3.1 4.7 4.7 0 0 0-3.1 5.9zM344.7 238.8c.3 2.6 6 9.5 6 9.5s3.7-8.1 3.4-10.7a4.8 4.8 0 0 0-5.3-4 4.8 4.8 0 0 0-4.1 5.2z"/><path fill="#000" d="M399.1 222.7c-2.5.5-10.9-2.7-10.9-2.7s6.5-6.1 9.1-6.6c2.6-.6 5 1.1 5.6 3.7.5 2.6-1.1 5-3.8 5.6zM381.2 239.7c-2.5-.9-8.1-7.8-8.1-7.8s8.7-2 11.2-1.2a4.8 4.8 0 0 1-3 9h-.1zM364.6 249.5c-2.5-.4-9.3-6.3-9.3-6.3s8.3-3.5 10.9-3c2.5.3 4.3 2.8 4 5.4a4.8 4.8 0 0 1-5.5 4zM381 213.2c0 2.6 4.7 10.2 4.7 10.2s4.7-7.6 4.7-10.2a4.7 4.7 0 0 0-9.4 0zM361.8 224.9a38 38 0 0 0 7.5 8.3s2.3-8.6 1.5-11.1a4.7 4.7 0 0 0-5.9-3.1 4.7 4.7 0 0 0-3.1 5.9zM344.7 238.8c.3 2.6 6 9.5 6 9.5s3.7-8.1 3.4-10.7a4.8 4.8 0 0 0-5.3-4 4.8 4.8 0 0 0-4.1 5.2z" opacity=".3"/><path stroke="#535461" stroke-miterlimit="10" stroke-width="2" d="M344.9 257s2.1-22.2 14.9-34c5.4-4.9 9-11.4 10.4-18.6.6-3.4 1-6.9 1-10.4"/><path fill="#3AB795" d="M379.2 186.6c-1 2.4-8.2 7.7-8.2 7.7s-1.6-8.9-.6-11.3a4.7 4.7 0 1 1 9 3.4c-.1 0-.2 0-.2.2zM381 203c-2.1 1.5-11 2-11 2s3.4-8.3 5.6-9.8a4.7 4.7 0 0 1 5.4 7.8zM371.5 225.8c-2.6.2-10.6-3.9-10.6-3.9s7.2-5.3 9.8-5.6a4.7 4.7 0 0 1 5 4.4c.3 2.6-1.6 4.9-4.2 5.1zM360.4 241.5c-2.6.7-11-2-11-2s6-6.5 8.6-7.2c2.5-.7 5.2.8 5.9 3.3.7 2.5-.8 5.2-3.3 5.9h-.2zM360.6 201.7c1 2.4 8.4 7.4 8.4 7.4s1.3-8.8.3-11.3a4.8 4.8 0 0 0-8.7 3.9zM347.8 220.2c1.7 2 10.3 4.5 10.3 4.5s-1.4-8.8-3.2-10.8a4.8 4.8 0 0 0-6.7-.5 4.8 4.8 0 0 0-.4 6.8zM337.8 239.9c1.4 2.2 9.4 6.2 9.4 6.2s0-9-1.3-11.2a4.7 4.7 0 1 0-8 5z"/><path fill="#000" d="M342.9 227.3h-3.7l-.5-5h3.8l.4 5z" opacity=".1"/><path fill="#DDA2A6" d="M153.3 319.4l-5.6.3-12.2-121-.2-1.5 5 .2.1 1.3 13 120.7z"/><path fill="#fff" d="M177.2 78H53.6v118.8h123.6V78z"/><path fill="#DDA2A6" d="M117.8 38.3V67H113V38.3c0-1.3 1-2.4 2.3-2.5 1.4 0 2.5 1 2.5 2.3v.2z"/><path fill="#000" d="M117.8 64.4H113V67h4.8v-2.6z" opacity=".1"/><path fill="#DDA2A6" d="M119.7 66.3v9.5H111v-9.5c0-.6.5-1.1 1.2-1.1h6.2c.6 0 1.2.5 1.2 1.1z"/><path fill="#000" d="M115.4 73a1.8 1.8 0 1 0 0-3.7 1.8 1.8 0 0 0 0 3.7z" opacity=".1"/><path fill="#B77B7F" d="M115.4 72.6a1.8 1.8 0 1 0 0-3.7 1.8 1.8 0 0 0 0 3.7z"/><path fill="#000" d="M119.7 74.6H111v1.2h8.6v-1.2zM123.2 76.2h-15.7v2.6h15.7v-2.6z" opacity=".1"/><path fill="#DDA2A6" d="M123.2 75.4h-15.7v2.7h15.7v-2.7z"/><path fill="#000" d="M83.7 193.7h65.8c1.5 0 2.8 1.3 2.8 2.8v.6H80.9v-.6c0-1.5 1.3-2.8 2.8-2.8zM92 197.4l5-.2-.1 1.5h-5l.2-1.3zM120.8 197.3h-9.2v1.4h9.2v-1.4zM140.4 198.7h-5v-1.5l4.9.2.1 1.3z" opacity=".1"/><path fill="#DDA2A6" d="M83.7 194.5h65.8c1.5 0 2.8 1.3 2.8 2.8v.6H80.9v-.6c0-1.5 1.3-2.8 2.8-2.8z"/><path fill="#65617D" d="M283.1 287.6l-3.2 2.6-2 1.5-1.3 1c-2.4 2-4.8 3.7-7.2 5.4l-1.8 1.2c-4.9 3.4-10 6.2-15.5 8.6v-20.2h31z"/><path fill="url(#paint0_linear)" d="M331.7 208l.4-15-.8-.7c0-4.5-.2-9-.8-13.5-2-15-14.8-15.4-18.4-12.3-.5.4-1 .8-1.6 1l1-6.4c1.6-11.5-.9-24.4-9.8-31.9-3.7-3-8.3-5-12.4-7.6-7.3-4.6-13.1-11.5-20.5-16s-17.9-6.2-24.3-.4c-2.5 2.3-4.2 5.4-6.7 7.6-4.8 4-12.3 4.3-16.5 8.8l-.6.7c-3.5 4.5-2.6 10.8-1.5 16.4 1.4 6.7.8 12 6.5 14l.1.7c1 8.3 5.5 15.8 12.5 20.5l-1 .3a171.3 171.3 0 0 1-22.4 7.3s-.2 3.1-.2 7.7c-3.6 4-9.8 11-11.6 15.2-2.6 6.1-17.4 23.5-21.3 26.1-4 2.7-8.2 5.8-8.2 5.8s-6.2 3.4-9.2 3.7c-2 .2-8.4-1-8.4-1s-25.3-31-23.6-7.2c1.6 23.8 21.8 24.6 21.8 24.6l20.4-.3s11 1.4 15.9-2.7c4.2-3.5 26-22.6 33-31.3l.5.5s2.8-3.6 3.1 0c.4 3.6-1.8 5.2-.6 6.5 1.1 1.4 4.6 6 4.7 7.8.2 1.8-4.6 9.2 3.5 14.7l.4.3c1.4 3.3 6 6.5 6 6.5l24.6-.4 46.5 3.7 3.3-3.2c2.5 2.3 6 4.2 9.8 3 0 0 5.6-6.7 5.8-11.1 0 0-3.6-9.4-5.2-12.2-1.7-2.8 1-8.8 1-8.8s2-6 3.2-6c1.2 0 .4-3.9.4-3.9-.9-1.3-1-3-.5-4.4a40 40 0 0 0 1.7-7.1z"/><path fill="#EE8E9E" d="M303.8 204.6l-1.8 2-7 8.3-9.2.6-14.8.9s-19.9-24-16.1-29.3a9.7 9.7 0 0 0 1.3-6.7l-.2-1c-.4-2.4-1.2-4.8-2.3-7.1l.5-.2.3-.2 17.4-8 4.3-1.9c.2 1.2.6 2.3 1.2 3.4l.2.5c6 9.8 25 3.6 25 3.6l1.2 35.1z"/><path fill="#EE8E9E" d="M329.5 192.3c-.2 6-1.1 8.6-1.1 8.6l-24.6 3.7-1-6.4-3.6-25.2 3.4-3.4a9 9 0 0 0 7.9-2c3.5-3.1 16.2-2.8 18.2 12.2.6 4.1.9 8.3.8 12.5z"/><path fill="#DFE5EE" d="M323.7 262s5.5-6.6 5.7-11l-5.6-9.4-4.8-5.2-9.2 17.7s6 10.4 13.9 8z"/><path fill="#000" d="M323.7 262s5.5-6.6 5.7-11l-5.6-9.4-4.8-5.2-9.2 17.7s6 10.4 13.9 8z" opacity=".1"/><path fill="#D48A9B" d="M278 291.7l-1.4 1c-2.4 2-4.8 3.7-7.2 5.4l-1.8 1.2H128.4l-41.1-1.5-33.2-.2-8.2-.5L4.5 295a101.4 101.4 0 0 1-3.8-18.8l45.2 2.5 8.2.5 74.3 4.1 8.3.5 107 6 8.3.4h.1l25.8 1.5z"/><path fill="#EFC6CD" d="M333.8 259.1c-9.1 2.6-18 6-26.2 10.8l-2 1.2-2 1.2-1.8 1.2-1 .7-1 .7-2.7 2-2 1.3-10 7.8-2 1.7-3.3 2.5-1.9 1.5-1.4 1.1-24.4-1.2h-.1l-8.3-.4-107-5-8.3-.4-74.3-3.6-8.3-.4L1 279.7a95.6 95.6 0 0 1-1-9.6L46 254l8.2-3 7.6-2.6 13.7.7 31.7 1.6 21.3 1.1 8.3.5 5.4.2 1.2.1L188 255h.5l20 1.1H208.7l2 .1 6.8.4 8.5.4 2.8.1h.5l4 .3h1.1l3.8.2 1.5.1h.4l3.5.2 5.5.3 1.7.1h1.2l2.5.2 2.2.1 2.4.1 2 .1 1.4.1 5 .3h1.7l1.5.2h.6l5.2.3h.4l7.6-.1 29-.2h2.8l9.3-.1h8z"/><path fill="#3AB795" d="M138.8 259.7l2.7 14.4 73-1.1s5.6 1.5 5.4-2.8c0 0 11.2-10.6 67.5 1.7l-21.7-17-59.1 3.1-68.6-1.8.8 3.5z"/><path fill="#fff" d="M140 256.3l2.7 15.5s62.8-1.8 72.6 0l-7.4-14.3s-38-3.5-67.8-1.2z"/><path fill="#000" d="M140 256.3l2.7 15.5s62.8-1.8 72.6 0l-7.4-14.3s-38-3.5-67.8-1.2z" opacity=".1"/><path fill="#fff" d="M141 256.2l2.6 14.5s62-1.7 71.8-.1l-7.4-13.2s-37.5-3.3-67-1.2z"/><path fill="#000" d="M142.2 256.7l2.4 13.5s60.7-1.6 70.3-.1l-7.2-12.3s-36.7-3.1-65.5-1.1z" opacity=".1"/><path fill="#fff" d="M142.7 256.2l2.4 13.5s60.7-1.6 70.3 0l-7.2-12.4s-36.7-3.1-65.5-1.1z"/><path fill="#EE8E9E" d="M148.7 238s-8.5-8.1-8.2 2.5c.3 10.6 8.2-2.4 8.2-2.4z"/><path fill="#EE8E9E" d="M224.8 219.4c-.2.9-1.1 2.2-2.6 4A383.5 383.5 0 0 1 190 254c-4.9 4-15.8 2.6-15.8 2.6l-20.2.4s-20-.9-21.7-24.5c-1.6-23.6 23.5 7.2 23.5 7.2s6.3 1.2 8.3 1c3-.4 9.1-3.8 9.1-3.8s4.2-3.1 8.2-5.7c3.9-2.7 18.6-20 21.2-26A71 71 0 0 1 213 191l3.7-3.9s9.1 27.3 8 32.3z"/><path fill="#000" d="M224.8 219.4c-.2.9-1.1 2.2-2.6 4-7.4-7.6-9-22.7-9.1-32.3 2-2.4 3.6-4 3.6-4s9.2 27.3 8 32.3zM302 206.6l-7 8.2-9.2.6-14.8 1s-19.9-24-16.1-29.3a9.7 9.7 0 0 0 1.3-6.7l-.2-1c-.4-2.5-1.2-4.9-2.3-7.2l.5-.2.3-.1c.8 2.2 1.3 4.4 1.6 6.7l.2 1 .4 3.9c1.1 13.2 9.4 18.2 13.2 19.7l3.5 1.7c3.6 2 7.8 2.8 11.8 2.2 9.3-1.3 16.8-8 16.8-8v7.6z" opacity=".1"/><path fill="#4B5F78" d="M302.3 258s-60.6-.2-68.5-5.7c-8-5.6-3.3-13-3.4-14.7-.2-1.8-3.6-6.4-4.8-7.7-1-1.3 1-3 .7-6.5-.4-3.6-3.1 0-3.1 0-11.4-11.6-9-41-9-41s11-2.7 16.2-4.9l6.1-2.2 1-.4 14-4.9s1.4-1 2.8 2c.7 1.5 1.4 3.8 2 7.4v1l.5 4c1.1 13.1 9.4 18.1 13.2 19.7 1.2.5 2.4 1 3.5 1.7 3.6 2 7.8 2.8 11.8 2.1 9.3-1.2 16.8-8 16.8-8v6.7l.2 20V258z"/><path fill="#EE8E9E" d="M299.7 232.2l-1 6.2s-24 6-33.5 7.8c-9.4 1.8-29.8-.5-31.3 3.4-1.5 4 6.2 9.3 6.2 9.3l24.5-.3 46 3.6s17.6-15.5 12-26.2c-5.7-10.8-22.9-3.8-22.9-3.8z"/><path fill="#000" d="M250 183.2s-11 9.1-9 13.6c2.2 4.4 9-13.6 9-13.6zM236.3 199.7s-11.2 19.4-10.6 20.9c.7 1.5 3.8 6.7 3.6 2.7-.1-3.9 7-23.6 7-23.6zM241 203.1s-2.7 12.1-5.3 17.2c-2.6 5 5.2-17.2 5.2-17.2zM277.7 165.9a28.3 28.3 0 0 1-41.3 9.3c6.5-2.4 14.9-5.2 14.9-5.2s1.4-1 3 2l21.9-10a14 14 0 0 0 1.5 3.9z" opacity=".1"/><path fill="#EE8E9E" d="M281.1 151.4a28.3 28.3 0 0 1-25 28 28.2 28.2 0 1 1 25-28.1z"/><path fill="#000" d="M299.4 204.8l2.6-3.9s14.4-17.1 28.4-6.2l-.5 15s-.6 4.6-1.6 7c-.6 1.5-.4 3.1.5 4.4 0 0 .8 4-.3 4-1.2 0-3.1 5.8-3.1 5.8s-2.8 6-1.2 8.9c1.7 2.8 5.3 12 5.3 12s-5.7-3.4-7.4-9.1c0 0-13.8-10.8-24.6-4l2-33.9z" opacity=".1"/><path fill="#000" d="M329.5 192.3c-.2 6-1.1 8.6-1.1 8.6l-24.6 3.7-1-6.4c3.3-3.4 15-14 26.7-5.9z" opacity=".1"/><path fill="#4B5F78" d="M299.4 204l2.6-4s14.4-17.1 28.4-6.2l-.5 15s-.6 4.7-1.6 7c-.6 1.5-.4 3.2.5 4.5 0 0 .8 3.9-.3 3.9-1.2 0-3.1 5.9-3.1 5.9s-2.8 6-1.2 8.8c1.7 2.8 5.3 12 5.3 12s-5.7-3.4-7.4-9c0 0-13.8-10.9-24.6-4l2-34z"/><path fill="#000" d="M322.5 192.9S299 207.4 300.1 220c0 0 13.1-23.3 22.4-27.2z" opacity=".1"/><path fill="#000" d="M302 206.6l.2 20c-4.5.1-8.7-.5-12-3.4-2.3-2-3.7-4.8-4.4-7.8-.5-2.4-.7-5-.6-7.4.3-5.6 1.6-11 1-16.5-.7-5.5-4-11.2-9.5-12.4-1-.2-2.2-.3-3-1-.8-1-.8-2.3-.7-3.5l.2-2V171a20 20 0 0 0-16.1-19.7h-.2a11 11 0 0 0-4.6-.3c-2.9.7-4.8 3.5-7.4 4.8-5.1 2.6-13.6-.2-19-1l-1-.3a28.2 28.2 0 1 1 52.5 10.8l.2.5c6 9.8 25 3.6 25 3.6l1.1 35-1.7 2.2z" opacity=".1"/><path fill="#603556" d="M245.9 155.4c2.6-1.3 4.5-4.1 7.4-4.8a11 11 0 0 1 4.6.3h.2a20 20 0 0 1 16 21.2l-.1 2c-.1 1.3-.2 2.6.7 3.5.7.8 2 .9 3 1.1 5.4 1.1 8.7 7 9.4 12.4.7 5.4-.6 11-.9 16.5-.3 5.5.7 11.6 5 15.2 6.5 5.7 16.4 2.5 25.1 2-3.8 0-6.7-4-6.9-7.9-.2-3.8 1.5-7.4 3.1-10.9a21 21 0 0 0 3-11c-.6-5.2-4.7-9.4-6.3-14.5-1.8-5.8 0-12.2.8-18.2 1.6-11.5-.9-24.3-9.7-31.7-3.7-3.1-8.2-5-12.3-7.6-7.3-4.6-13-11.4-20.4-15.9-7.4-4.5-17.7-6.1-24.1-.4-2.5 2.3-4.1 5.4-6.6 7.5-5 4.2-13 4.3-17 9.5-3.4 4.4-2.5 10.8-1.4 16.3 1.5 7.4.7 13 8.5 14.4 5.3.8 13.8 3.5 18.9 1z"/><path fill="#000" d="M310.7 221.2c-6.3.8-12.6 1.2-17.1-2.8-4.2-3.6-5.2-9.7-5-15.2.3-5.5 1.6-11 1-16.5-.7-5.5-4-11.3-9.5-12.4-1-.2-2.2-.3-3-1.1-.8-.9-.8-2.2-.7-3.5l.2-2a20 20 0 0 0-16-21.2h-.2a11 11 0 0 0-4.7-.3c-2.8.6-4.7 3.5-7.4 4.8-5 2.6-13.6-.2-19-1-7.8-1.4-7-7.1-8.5-14.5-.8-4.1-1.5-8.7-.4-12.6l-.6.7c-3.5 4.5-2.5 10.8-1.4 16.3 1.5 7.4.7 13.1 8.5 14.4 5.4.9 13.9 3.7 19 1.1 2.6-1.3 4.5-4.1 7.4-4.8a11 11 0 0 1 4.6.3h.2a20 20 0 0 1 16 21.2l-.1 2c-.1 1.3-.2 2.6.7 3.5.7.8 2 .9 3 1.1 5.4 1.1 8.7 7 9.4 12.4.7 5.4-.6 11-.9 16.5-.3 5.5.7 11.6 5 15.2 6.5 5.7 16.4 2.5 25.1 2-2.4 0-4.4-1.6-5.6-3.6z" opacity=".1"/><path fill="#5C5C8E" d="M133.6 235.8l27-10a2.5 2.5 0 0 1 1.7 4.7l-26.9 10-5.7-.5 4-4.2z"/><path fill="#fff" d="M163 226.4c.5 1.3-.1 2.8-1.5 3.3l-27 10-4.2-.4-.6.7 5.7.5 26.9-10c1.3-.5 2-2 1.5-3.3-.2-.5-.6-1-1-1.3l.2.5z" opacity=".1"/><path fill="#EFC8C4" d="M133.7 235.8l1.8 4.8-4.8-.5-1-.1 1.4-1.5 2.6-2.7z"/><path fill="#727A9C" d="M131.1 238.5l.3.3v.5l-.3.2c-.2 0-.3.3-.4.6h-1l1.4-1.6z"/><path fill="#fff" d="M218 266.5s23.4-5 62.5 1.3l-15.3-11.3-27.9-5.7-19.7 5.2.5 10.5z"/><path fill="#000" d="M218 266.5s23.4-5 62.5 1.3l-15.3-11.3-27.9-5.7-19.7 5.2.5 10.5z" opacity=".1"/><path fill="#fff" d="M215.4 271.8s11.7-31.8 72 0L265.7 258s-51.8-14.3-57.8 2.2l7.5 11.7z"/><path fill="#000" d="M215.4 271.7s11.7-34 72 .6l-21.7-15.1s-51.8-17.1-57.8.8l7.5 13.7z" opacity=".1"/><path fill="#fff" d="M215.4 271.8s11.7-34.5 72 0l-21.7-15S214 240 208 258l7.5 13.8z"/><path fill="#000" d="M215.4 271.8s11.7-38.4 72 .5l-21.7-17s-51.8-17.5-57.8 2.7l7.5 13.8z" opacity=".1"/><path fill="#fff" d="M215.4 271.7s11.7-38.8 72 .1l-21.7-17s-51.8-17.4-57.8 2.7l7.5 14.2z"/></g><defs><linearGradient id="paint0_linear" x1="232.3" x2="232.3" y1="261.9" y2="101.5" gradientUnits="userSpaceOnUse"><stop stop-color="gray" stop-opacity=".3"/><stop offset=".5" stop-color="gray" stop-opacity=".1"/><stop offset="1" stop-color="gray" stop-opacity=".1"/></linearGradient><clipPath id="clip0"><path fill="#fff" d="M0 0h458v345H0z"/></clipPath></defs></svg>