<svg xmlns="http://www.w3.org/2000/svg" width="471" height="365" fill="none"><g clip-path="url(#clip0)"><path fill="#3AB795" d="M23.8 17A52.7 52.7 0 0 0 .1 56.7c-1.7 23.8 13.6 45 29.8 61C46 133.5 64.8 148 74.2 169.4a75.6 75.6 0 0 1-8.7 74c-6.6 8.6-16 17.3-14.7 28.5 1.2 10.5 12 17 21.5 16.6 9.6-.5 18.3-6 26.7-11.2 30-18.6 62.7-34.5 97.2-34.8 36.9-.3 71.7 17.3 105.2 34.4l48.2 24.7a91.4 91.4 0 0 0 31.2 11.4c11 1.2 22.2-2 31.9-7.7a43 43 0 0 0 22-28.8c2.9-17-7.7-33.1-9.2-50.4-1.4-17 6.4-33.3 15.3-47.2 9-14 19.6-27 25.5-42.8 12-32.6.3-71.8-22.7-96.2-23-24.3-55.3-35.7-87-39a134 134 0 0 0-36 .5c-23.5 3.9-45.1 16.2-67.5 25.1-40 16-84.8 21.6-125.3 7.3C95 22.3 57.6-4.8 23.8 17zM230.6 365c71 0 128.7-9.5 128.7-21.3 0-11.7-57.6-21.2-128.7-21.2s-128.7 9.5-128.7 21.2c0 11.8 57.6 21.3 128.7 21.3z" opacity=".1"/><path fill="#BDC4CD" d="M318.1 191V16.6H133.5v227H318v-46.3c.2-6.2.2-.2 0-6.5z"/><path fill="#FDFDFD" d="M312.9 23.2H138.8v214h174v-214z"/><g fill="#3AB795" opacity=".8"><path d="M304.9 85.2V71.5v-.9c.5-.5.8-1.3.8-2 0-.6 0-1.3.4-1.7.4-.2.8-.2 1.2-.2 1.4-.3 2-2.1 1.7-3.5-.2-1.4-1-2.8-.8-4.2.1-1.6 1.2-2.8 2.1-4 1-1.3 1.8-3 1.3-4.4-.4-1-1.3-1.8-1.8-2.8a7.5 7.5 0 0 1-.5-4.3c.1-1.4.4-2.9.2-4.3s-1.1-2.9-2.5-3.2c-.4 0-.9-.2-1.2-.4l-.7-1.1c-.6-1.2-2-1.9-3.4-2.2-2.8-.6-5.2.6-8 .5-2-.1-6.1-2.2-5.7 1.5a5 5 0 0 1-2.2 4.7c-1.3 1-3.3 1.5-3.5 3-.1 1.4 1.2 2.5 1.8 3.7.9 2-.4 4.3-1.8 6-.4.4-.7 1-.8 1.5-.3 1.1.5 2.2 1.3 3 .8.8 1.7 1.7 1.7 3 0 1-1 2-1.6 3-.7 1-1.2 2.4-.3 3.3.6.5 1.7.6 1.8 1.4.1.5-.3.9-.6 1.3-1.9 2.5-1 6.6 2 8 1 .5 2 .8 3.1.9l-.2 8.7c-1.4 0-2.2.2-2.2.2l-5.1.7V63l-1.3-5-1.3-2.8-1.3-2.6-1-1.5-1.6 1.3 2.6 2.3 2.6 4.6v14.3l-2.4-9.8v-1.3l-2-1.6-1.3-1.6 1.3 3.6 2 2.6.3 2.9h-1.6l-1.5-2 .8 3.3h2.8l.8 2.6V78l-2.9-5-4-.7 4 1.6 2.9 5.4V87l-7.7.8V87c.6-.2-.2-1.5-.2-1.5V84c2.9 3.1 5.2.8 5.2.8l-3.4-2.9h-6.4l-1.6-1.3v-1.3l-.8.3-.2.8-1-.3-.3-.8h-.5l.2 1c.3 1.1-.8 2.7-.8 2.7-.2 1.3 1.9 1 1.9 1 0 .5.5 1 1 1.2v3.1c-8.6.4-18 .3-24.4-1.9-15-4.9-27.7-1.3-27.7-1.3s-5.1 1.2-12.5 2L199 74.6h.9c.8-.4.4-1.6.6-2.5.3-1.4 2-2 3-3.1.9-1.2 1-3 2-4 .4-.5 1-.9 1.5-1.3 1.9-1.6 1.6-5-.5-6.4l-1-.7c-1-1-.2-2.8-.4-4.2a4 4 0 0 0-2.2-2.9c-2.1-1-4.9-1.5-7.2-2 .3 1-.1 1.9-1 2.3l-1.2.2a4 4 0 0 0-1.7.3c-.5.3-.8.8-.7 1.4l.5.8c.4 1-.4 1.9-1 2.6-.7.8-1.4 1.8-.9 2.6.3.6 1 .8 1.3 1.3.6 1-.1 2.1-.8 3-.7 1-1.2 2.3-.4 3 .3.3.7.5 1 .6 2.8 1.1 2.9 5.3 5.5 6.7l1 .5.4.4v14.2c-2.7.3-5.6.5-8.7.6v-6.2l1.5-1c.8-.3 1.7-.2 2.5-.2 1 0 1.9-.4 2-1.3v-1.1c0-.4.3-.9.6-1 0-.4-.3-.9-.5-1.3-.4-1.3-.1-2.8-.8-4-.4-.7-1-1.3-1.6-1.8l-1-.9a14 14 0 0 0-4-2.6l-1.2-.4c-.3.2-.3.6-.2.9.1.3.2.6.1 1l-.7.5c-.5 0-1 .2-1.4.4-.4.1-.7.5-.8 1-.6-.1-1.1 0-1.6.2-.4.4-.5 1.2 0 1.4-.9.7-1 2-.6 3 .4.7 1 1.2 1.2 2 .2.6-.1 1.3.1 2l.5.9.1.8c.2.4.7.7 1.1.8l1.5.1c.6.1 1.2.6 1.9.8l-.5 6a97 97 0 0 1-10.6-.3l-.3-14.2.2-.4c.3-1-.4-2.4.3-3 .4-.5 1-.5 1.3-.8.9-.7.4-2.2 1-3.1.3-.5.9-.7 1.3-1 .7-.7 1.1-1.7 1.2-2.6 0-1-.2-2-.4-2.8-.2-.8-.5-1.5-.2-2.2.2-.9 1-1.4 1.3-2.2.4-1.3-.6-2.7-1.5-3.7a6.5 6.5 0 0 0-4.6-2.4c-.7 0-1.3-.4-2-.5-1.3 0-1.1.3-1.5 1.2-.4.8-1.7.4-2.2 1-.3.4-.3 1 0 1.3l.4 1.3c0 .6-.3 1.2-.4 1.9-.2 1 .3 2 1.2 2.5a3.8 3.8 0 0 0-.5 4.7l1 1.4c.3 1.3-.7 3 0 4l.5.7c.6.9.2 2 .5 3 .2 1 1 1.6 1.9 1.9l.4 14-3.4-.6-5.8-.8V80l1.5-1c.8-.3 1.6-.2 2.5-.3.9 0 1.8-.4 2-1.2v-1.2c0-.4.2-.8.6-.9l-.5-1.4c-.5-1.2-.2-2.7-.8-4-.4-.7-1-1.3-1.7-1.8l-1-.8a14 14 0 0 0-3.9-2.7l-1.2-.4c-.3.2-.3.6-.2 1l.1.9c-.2.3-.4.5-.7.5l-1.4.4c-.4.2-.8.5-.8 1-.6 0-1.1 0-1.6.3-.4.3-.5 1.1 0 1.3-.9.8-1 2-.6 3.1.4.6 1 1.2 1.2 1.9.2.7-.1 1.3.1 2l.5 1 .1.7c.2.5.6.8 1.1.8l1.5.1c.6.2 1.2.7 1.9.8l-.5 6.2c-2.4-.3-4.8-.4-7-.5v-12l-.5-7 4.4-6.7-4.4 5.7.2-4.1.4.1c.3.1.7.2.9-.1.2-.3 0-.8.3-1H160.6c.6-.7-.8-1.6-.7-2.5 0-.6.7-1 1.3-1.1.6-.2 1.3-.3 1.6-.8.6-.8 0-1.9.3-2.7l.7-1c.3-.4.4-.8.2-1.2l-.7-.5a5 5 0 0 1-2.6-3v-.6c.1-.3.5-.4.8-.6 1-.5 1-2 .6-3a3 3 0 0 0-1.2-1.5c-.6-.3-1.3-.4-1.8 0-.3.1-.6.4-.8.7-.6.6-1.4.9-2.3.8-.7 0-1.4-.5-1.2-1.1.3-.6 1.2-.5 1.8-.9.3-.3.6-.7.6-1.2 0-1.4-.7-2.9-.4-4.3l.2-.8c0-.7-.4-1.3-1-1.8a6 6 0 0 1-1.4-1.5c-.4-.8-.5-1.8-1.5-2.1-.8-.2-1.7-.1-2.6.2-.7.4-.8.8-.6 1.6.2.8.5 1.7-.9 1.4-.5 0-1.2-.2-1.5.2-.2.4 0 .8 0 1.3 0 .4-.3 1-.7.8 0 .6 1 .6 1.2 1 .2.4 0 .9-.3 1-.4.2-.8.2-1.2.2l-.7-1c-.2-.3-.7-.4-1 0v.4l-.2 2v.6l.3.4a2 2 0 0 1-.3 2.2l.6.3c-.3.6-1.1.2-1.7.4-.4.3-.5.8-.5 1.3 0 .8 0 1.6.2 2.4.2.8.5 1.8-.2 2.3-.3.2-.6.3-1 .3a1 1 0 0 0-.6.6c-.1.3.3.6.5.4l-.2 1.2c.3.1.5.2.8.1.2.8-.6 1.4-1.3 1.8-.7.4-1.4 1.3-.9 2l.6.5v.7c0 1.1 1.3 1.8 1.4 3 1 0 1.7-1.1 2.4-2l.2-.1.3.1.8.7c.2-.6.2-1.1.1-1.7h1.2l-.2 2.5v13l.5 13.6c-3 0-6 .3-8.9.6V92h174.1v-5.4a22 22 0 0 0-8-1.3zm-148.7-18l-1-6.3.8.2.2 6.2zm-8.5 4.5V56.4l1.4.3.7.4.2.2v1l-.5 12.3v14.7h-1.1l-.7-13.6zm3.6 13.6V58c.4 0 .8-.1 1.1-.4.2.6.5 1.1 1 1.5-.4.3-.5.8-.4 1.2l1.6.5 1 7.4.6 5.6-.7 11.7h-4.2zM271 87l-.1 1h.4-.7l-.3-1.5.7.5zm-1.8-1.3l.5 1v1.5l-3.6.2.5-2.7h2.6zm-3.7-.2h.3l-.2 3h-.5l.4-3zM299 70.2l1.1.8v14.1h-2.4l-.5-15c.6-.3 1.2-.3 1.8 0zm-2.6 2.2l.4-1.6v14.5h-1.6V73.7c.6-.3 1-.7 1.2-1.2zm-5.3 1.6c.2-.6.6-1.1 1.2-1 .4 0 .7.3 1 .5l.6.2v11.7l-2.9.2V74zm10.3 11.2V71.7c.3.1.7.2 1 .1v.5l.7 13c-.5-.2-1.1-.2-1.7-.1z"/><path d="M186.5 66.2zM188.7 66.5l-2.1-.3a5 5 0 0 0 2.1.3zM163.7 64v.1zM166 64.5l-2.2-.4c.7.3 1.5.4 2.2.4z" opacity=".2"/></g><g fill="#3AB795" opacity=".8"><path d="M292.3 196h.1zM294.6 196.3l-2-.3c.6.2 1.3.4 2 .3zM269.6 193.9h.1zM271.9 194.2l-2-.3c.6.2 1.2.4 2 .3z" opacity=".2"/><path d="M305.8 204.4c.8-.4.5-1.6.6-2.5.3-1.4 2.1-2 3-3.1 1-1.2 1-3 2-4l1.5-1.3c1.9-1.6 1.6-5-.4-6.4a5 5 0 0 1-1-.7c-1-1-.3-2.8-.5-4.2a4 4 0 0 0-2.2-2.8c-2.1-1.2-4.8-1.6-7.1-2 .3.8-.1 1.8-1 2.2l-1.2.2c-.6 0-1.1 0-1.7.3-.5.3-.8.9-.6 1.5l.4.7c.4 1-.4 2-1 2.7-.7.7-1.4 1.7-.9 2.6.3.5 1 .7 1.3 1.3.6 1-.1 2-.8 3-.7.9-1.2 2.3-.4 3l1 .5c2.8 1.2 2.9 5.4 5.5 6.8l1 .5.4.4v13.2l-6.7-.2h-1.6v-4.7l1.1-.7c.8-.4 1.7-.2 2.6-.3.8 0 1.8-.4 2-1.2V208c0-.4.2-.8.6-1-.2-.4-.3-.9-.6-1.3-.4-1.3-.1-2.7-.7-4-.5-.7-1-1.3-1.7-1.8l-1-.9a14 14 0 0 0-4-2.6l-1.2-.4c-.2.2-.3.6-.2.9.1.3.2.6.1 1-.1.2-.4.5-.7.5a8 8 0 0 0-1.3.4c-.5.2-.8.5-1 1-.4-.1-1 0-1.5.2-.4.4-.5 1.2 0 1.4-.8.8-1 2-.5 3 .3.7 1 1.2 1.1 2 .2.6-.1 1.3.2 2l.4.9.1.8c.2.4.7.7 1.2.8l1.4.1c.8.2 1.5.8 2.2.9l-.3 4-11.2-.5-.2-12.1.2-.4c.4-1-.4-2.3.3-3 .4-.5 1-.5 1.4-.8.8-.7.3-2.2 1-3 .2-.6.8-.8 1.2-1.2.7-.6 1.1-1.5 1.2-2.5 0-1-.2-1.9-.4-2.8-.2-.7-.4-1.5-.2-2.2.2-.8 1-1.4 1.3-2.2.4-1.3-.6-2.6-1.5-3.6a6.6 6.6 0 0 0-4.6-2.5c-.7 0-1.3-.4-2-.4-1.3-.2-1.2.2-1.6 1.1-.3.8-1.6.4-2.2 1-.2.4-.2 1 0 1.3l.5 1.3c0 .6-.3 1.2-.5 1.9-.1 1 .4 2 1.3 2.6a3.8 3.8 0 0 0-.5 4.6l1 1.4c.4 1.3-.7 3 0 4l.5.7c.6.8.3 2 .5 3s1 1.6 1.9 1.8l.4 12-9.7-.4v-5.2c.7-.2 1.3-.9 2-1.2.7-.3 1.6-.2 2.4-.2.9 0 1.8-.5 2-1.3V206c0-.3.2-.8.6-.9l-.5-1.4c-.5-1.2-.2-2.7-.8-3.9-.4-.7-1-1.3-1.6-1.9l-1-.8a14 14 0 0 0-4-2.6l-1.2-.4c-.2.1-.3.5-.2.8.1.3.2.7.1 1-.1.3-.4.5-.7.6l-1.3.3c-.5.2-.8.6-1 1-.4 0-1 0-1.5.3-.4.4-.5 1.1 0 1.4-.8.7-1 2-.5 3 .3.7 1 1.2 1.1 2 .2.6-.1 1.3.2 2l.4.8.1.9c.2.4.7.7 1.2.8h1.4l1.4.7-.4 5.4-6.6-.3v-11.3l-.5-7 4.3-6.7-4.3 5.7.1-4.1.5.1c.3.1.7.1.9-.1.2-.3 0-.8.3-1 .1 0 .3-.1.4 0h1.4c.6-.7-.8-1.6-.7-2.5 0-.6.7-1 1.3-1.1.6-.2 1.3-.3 1.6-.8.5-.8 0-1.9.3-2.7l.7-1c.3-.4.4-.8.1-1.2-.1-.2-.4-.4-.6-.4a5 5 0 0 1-2.6-3v-.7c0-.3.5-.4.8-.5 1-.6 1-2 .5-3a3 3 0 0 0-1.1-1.5c-.6-.4-1.3-.4-1.8 0-.3.1-.6.3-.8.6-.6.6-1.5 1-2.3.9-.7 0-1.5-.6-1.2-1.2.3-.6 1.2-.4 1.7-.8.4-.3.6-.8.6-1.3.1-1.4-.6-2.8-.3-4.2l.2-.9c0-.7-.4-1.3-1-1.8a6 6 0 0 1-1.4-1.5c-.4-.7-.5-1.7-1.5-2-.9-.3-1.8-.2-2.6.2-.7.4-.9.7-.6 1.5.2.8.5 1.7-.9 1.4-.5 0-1.2-.2-1.5.2-.2.4-.1.9 0 1.3 0 .4-.3 1-.7.8 0 .6.9.6 1.2 1 .2.5 0 .9-.3 1l-1.2.3-.7-1c-.2-.3-.7-.4-1-.1v.4l-.2 2.1v.5l.3.5a2 2 0 0 1-.3 2.2l.5.2c-.2.6-1 .2-1.6.5-.4.2-.5.7-.5 1.2 0 .8 0 1.6.2 2.4.2.8.5 1.8-.2 2.3-.3.1-.6.3-1 .3a1 1 0 0 0-.6.6c-.1.3.3.6.5.4l-.2 1.2c.3.1.5.2.8.1.2.8-.7 1.4-1.3 1.8-.7.4-1.4 1.3-1 2 .3.2.6.3.6.6l.1.7c0 1 1.4 1.8 1.5 2.9 1 0 1.6-1 2.3-2h.5l.8.7c.2-.5.2-1 .1-1.6h1.2l-.1 2.4v13l.5 13.4c-6.5 1.2-21.9 3.6-30 1.2A60 60 0 0 0 209 214l-3.5-28.4c.8-.3 1.4-1 1.8-1.7.3-.6.6-1.2 1.1-1.4.5 0 1 0 1.3.2 1.8.5 3.7.5 5.4-.2 3.3-1.4 4.7-5.1 5.8-8.4.3-1.2.7-2.6-.3-3.3-.5-.4-1.3-.5-1.7-1-.3-.4-.4-.8-.4-1.3-.4-2.4-2.3-4.1-4.7-4.3-1-2.8-3.6-4.7-6.4-5.8-2.8-1-5.7-1.4-8.7-1.2-.3 3.2-5.8 7 .1 8.5a3.3 3.3 0 0 0-3 2.6c-.2 1.5.7 2.9 2 3.5l-2 5.1c-.3.5-.4 1-.5 1.6 0 1.1.8 2 1.5 2.8 1.4 1.6 3 3.2 4.9 4l3 28.7h-1.2l-2.4.6-.6-4.4c1.2-2 .7-4.6-.9-6.3a3 3 0 0 0-1.6-1c-1.4-.1-2.6 1.1-3.4 2.3l.1-.1c-.3.4-.5.8-.5 1.4 0 .9.5 1.7 1 2.6 0 .3.3.6.6.8.7.3 1.7-.2 2.2.3l.8 5c-1.8.4-4 .9-6.6 1.3l-2-13.8.1.1c1 .4 2.2.5 3-.2.3-.3.6-.7.8-1.2.8-1 2.2-1.7 3.1-2.7 1-1 1.6-2.7.6-3.6l-.6-.6c-.1-.2-.2-.5-.1-.8 0-1-.2-2-.5-3a4 4 0 0 0-1-2c-.6-.5-1.4-.5-2.1-.2.1 0-2.5-3.4-3.3-3.3-.7 0-2 2-2.9 2.5-1 .6-6 1.6-3 3.2-.7 1.1-2.8 2.4-2.4 4l.9 1.5c.5 1.1 0 2.4-.4 3.6-.4 1.3 0 3 1.2 3-.8.1-1.1 1.1-.9 1.8.3.6 1 1 1.7 1.4.7.2 1.4.5 2 1l.9-1.5 1.8 11.3c-4 .7-8.6 1.3-12.9 1.5.7-2.3-.9-16-2.3-27.6 2 .7 2.8-3.3 4.8-3.5.8-.1 1.5.3 2.3.3 1.7.2 3-1.6 3.3-3.3.2-1.7-.4-3.4-.7-5-.3-1.8-.3-3.7.9-5 2 .4 3.5-2 3.3-4-.3-2-1.7-3.6-3.1-5l-5.3-5.7c.5.4-5.3 2.5-5.8 2.6-2.2.4-4.3.4-6.5.1-1.4-.1-2.7-1-4 0-1.4 1-1.5 3.2.3 3.9-.2 1.5-1.8 2.4-2 4-.5 2.5 3 4.6 2 6.8a9 9 0 0 0-4.8 3.3l-3.7.7c-.3 0-.6.2-.8.4-.6.5-.1 1.5.4 2.1 2.6 2.8 6 4.6 9.7 5.2a6 6 0 0 1 2.1.5l1 .8v28.2l2.8.3-1.6-28.3c1-.1 2.1-1.4 3.3-1 .2 0 .5.2.6.4 0 13-.6 29-.6 29-1.3 0-2.5 0-3.7-.2-4.1-.3-8.6-.4-12.6-.5l.4-3.8c.2-1 0-2-.2-3l-.9-3h.8c1.3 1.6 1.2 9.8 1.2 9.8h.7v-8.3l.3-3.8s2-4.4 2.9-1c.7 3.3 2.8 1.7 2.8 1.7.8-2-.8-4.9-.8-4.9.2-.9.2-1.8 0-2.7.9 0 4.1 0 4.5-3.3 0 0-2.8 2.8-3.6 2.3 0 0 2.1-1.8 1.9-2.3-.3-.6-3.1.7-3.1.7v.8l-2-.5s-4.5-2.3-5.5-2.6c0 0 2.6 3 4.9 3.4l.3.9-2-.8c-1-.3.8 1.3.8 1.3h-.8s-2-1-5.4.5c-3.3 1.5-2.8 0-5.7 0-2.8 0-3.5 2.9-3.5 2.9-.7 2.7 1.9 7 1.9 7l-.2 8.9 1.5-.3-.3-9.3h.8l1.5 3.6-.5 6c-5.5 0-9.4.3-9.4.3v3.4H313v-5l-7-.2-1-11.9.8-.4zm-156.3 10.7v-.4c.5-2.4 0-4.8-1.3-6.8h5.7l1 4.1-.7 5.7H150l-.5-2.6zm112.6-18l-1-6.4.8.2.2 6.2zm-3.8-9.8c.1.6.5 1 1 1.5-.4.3-.5.7-.4 1.2l1.5.5 1.2 7.3.5 5.7-.7 11-4.2-.2v-26.6c.4 0 .8-.1 1.1-.4zm-4.7 14.1v-15.2c.5 0 1 .2 1.4.3l.7.4.2.1v1l-.5 12.4v14l-1.1.3-.7-13.3z"/></g><path fill="#3AB795" d="M162.1 104.8c2 .2 3.9.3 6.3.3 2.2 0 4 0 6-.2 4-.2 8.7 0 13-.1h13.9c1.8.2 3.7.1 5.5 0l2.1 1 1 .3h2.7c.3.3-2.6.6-6.2.7H199c-2.7 0-5 .2-7.5.3-2.3.1-5 .2-7.5.1-2.9 0-5.3-.2-8-.3-6.6-.3-14.3-.2-20.6-.5H154c-.5-.2 0-.3 0-.3.2-.2-.8-.4-1.5-.6-.7-.1-1-.4.5-.4 3.4-.4 4.8-.6 9-.3zM246 143.9c2 .1 4 .3 6.3.3l6-.2c4-.2 8.7 0 13.1-.2h8.4l5.5.1h5.5l2 1 1.1.2h2.6c.4.4-2.5.7-6.1.7H283c-2.8 0-5 .3-7.5.4h-7.6c-2.8 0-5.3-.2-8-.3-6.5-.2-14.3-.2-20.6-.5H238c-.4-.1 0-.2 0-.3.3-.2-.8-.4-1.5-.5-.7-.2-.9-.4.6-.5 3.3-.4 4.7-.5 9-.2zM269.5 111.4l3 .4 2.8-.2c2-.2 4.1 0 6.2-.2h4c1 0 1.7 0 2.6.2h2.6l1 1 .5.2h1.3c.1.4-1.2.8-3 .8H287c-1.3 0-2.3.3-3.5.4h-3.6c-1.3 0-2.5-.2-3.8-.3-3.1-.2-6.8-.1-9.8-.5h-.6c-.2-.2 0-.3 0-.4.1-.2-.4-.4-.7-.5-.3-.2-.4-.5.3-.6 1.5-.4 2.2-.6 4.2-.3zM192.2 137.5H213.5l1 .2h1.7c.2.1-1.2.1-3 .1H188.6c-.3 0 0 0 0 0l-.7-.2h4.4zM230.5 102.1H241.6l.6.2H243l-1.6.1h-13c-.1 0 0-.1 0-.1l-.4-.1h2.4z" opacity=".2"/><path fill="url(#paint0_linear)" d="M274 171.4c-2.2-6.4-6.1-18.5-6-22.8.2-2.9-2-7-4.3-10.3l1.3-3.6-.2-.2.2-.5s-1.8-3-2-4.9v-.1-.5-.2c.5-1.6-3.3 1.8-3.3 1.8l.1.5-.1.2.4 1.2-3-1.6c.5-.8.7-1.7.7-2.6 0-1.3-.3-2.7-1-3.9-1-2-2.6-3.6-3.6-5.6l-.1-.5c.2-.4.6-.5.8-.7a2 2 0 0 0 .6-1.9l-.1-1.4c-.7-3-1.8-5.7-3.4-8.2-.7-1.2-1.6-2.4-2-3.8-.3-1.6 0-3.3-.4-4.9-.4-1.7-1.5-3.2-2.6-4.6l-8.6-11.2c-.4-.6-.8-1-1.4-1.4-1.6-1.1-3.6-.5-5.2.2-1.8.8-2.7 0-4.6 0-1 0-2 .6-2.5 1.5-.2.6-.1 1.3-.3 2-.3 1.3-1.6 2.2-2.7 3.2a14 14 0 0 0-4.6 13.9c-1.6 2.5-3.2 5-3 7.8v.8l.1 1.7v.5c-.6 1.9-2.7 2.6-4.5 3.5a17 17 0 0 0-9.3 11.6l-4 1.9.3-.3-3.2-1.6s-1.4 4.9-3.4 6a1 1 0 0 0-.4 1.2c-.3 1 1 2.9 2.2 4.3a24.4 24.4 0 0 0-2.8 7.3 99.7 99.7 0 0 1-3.5 14.2s-5.6 8.8 0 18.3c5.5 9.5 14.6 4 14.6 4l-1.5 8.6-1.5 7.5c-.9 4.4-1.5 12-1.5 12s-2.7 32.5-4.2 34.6c-.5.8 3.1 3 10 5l.3 1.2a62.7 62.7 0 0 1 2.8 20.7s.5 3.7-1 11.1a107 107 0 0 0 1.8 38.7v9.3c-.6.4-1.2 1.5-.6 4.8l.7 3.3s-2.4-4.5-5.6 3.4c-3 8 8.2 14 13.5 14.4 1.1.1 2.2 0 3.3-.1a2.8 2.8 0 0 0 2.2-3.7l-.5-1.1s2.2-7-.2-9.7c0 0 3.1-9.5 1.4-10.7 0 0-.4 0-1.2.6v-.6c-.4-2-1-6.6.1-8.8 1.5-2.8 2.7-18.3 2.7-18.3l.5-17.4 2.6-9.7s1.7-6.3 1-11.4c-.5-3.1.3-7.8.9-11l.2-1h7.2l.2 1.3h.2c.6 3.1 1.3 7.7.8 10.8-.7 5 1 11.3 1 11.3l2.6 9.7.5 17.4s1.2 15.6 2.6 18.3c1.2 2.2.5 7 .2 9v.1l-.1.5c-.9-.8-1.4-.8-1.4-.8-1.6 1.2 1.5 10.7 1.5 10.7-2.4 2.8-.3 9.7-.3 9.7l-.4 1.2c-.5 1.4.2 3 1.6 3.5h.6c1 .3 2.1.3 3.2.2 5.3-.5 16.6-6.5 13.5-14.4-3-7.8-5.5-3.4-5.5-3.4l.7-3.3c.5-2.9.1-4.1-.3-4.6v-9.5a107 107 0 0 0 1.7-38.7c-1.5-7.4-1-11.1-1-11.1a60 60 0 0 1 2.4-19l.3-1.3c2.6-.5 5.3-1 8-1.7 4-1-2.9-16.5 0-21.8 2.3-4.2-5.7-28.5-9-38l-.8-3.5c1.8.7 8.3 2.6 13.5-2.7a84 84 0 0 0 3.2-3.6 8 8 0 0 0 1.8-8.3zM255 185.9v-.2.2z"/><path fill="#4B5F78" d="M225.4 254.8a39 39 0 0 0-.8 11c.7 5-1 11.2-1 11.2l-2.5 9.8-.5 17.3s-1.2 15.4-2.5 18.2c-1.1 2.2-.5 6.8-.2 8.8l.2 1c-2 13.8-12.7.8-12.7.8v-11.8c-3.3-9.9-3-31.1-1.6-38.5 1.3-7.4.9-11 .9-11 .5-7-1.3-15.4-2.8-20.7-.8-3.1-1.6-5.2-1.6-5.2l25.8 5.7-.7 3.4z"/><path fill="#000" d="M218 332c-1.8 13.8-12.6.9-12.6.9v-3.2c.2 0 .5-.1.8 0-.5 1.7.2 3 1.4 4a6.3 6.3 0 0 0 9-1.1l.1-.2c.4-.5.7-1 1.2-1.4 0 .6.2 1 .2 1zM252.9 329.8v3.1s-10.8 13-12.7-1l.1-.7c.4.4.8.8 1 1.2 2.1 2.9 6 3.6 9 1.6l.2-.2c1.2-1 2-2.3 1.4-4.1.4-.1.7 0 1 .1z" opacity=".1"/><path fill="#3E4049" d="M206.2 330.4s-2.3-1-1.4 4.8l.7 3.3s-2.3-4.4-5.3 3.5c-3 7.8 7.8 13.8 13 14.3 1 .1 2 0 3-.1a2.7 2.7 0 0 0 2.2-3.2v-.4l-.5-1.2s2.1-7-.2-9.7c0 0 3-9.4 1.4-10.6 0 0-.8-.1-2.3 2a6.4 6.4 0 0 1-9.1 1.4c-1.3-1-2-2.4-1.5-4.1z"/><path fill="#4B5F78" d="M255.9 252.6a60.6 60.6 0 0 0-2.3 18.9s-.5 3.7 1 11c1.3 7.4 1.5 28.7-1.7 38.6V333s-10.8 13-12.7-1l.1-.6v-.2c.4-2 1-6.7 0-8.8-1.4-2.8-2.6-18.3-2.6-18.3l-.5-17.3-2.5-9.7s-1.6-6.3-1-11.3a55 55 0 0 0-1.6-14.3l25.8-5.8s-1 2.9-2 7z"/><path fill="#000" d="M252.9 330v2.9s-10.8 13-12.7-1l.1-.6 1.1 1.3a6.4 6.4 0 0 0 9.1 1.4c1.3-1 2-2.3 1.4-4 .4-.2.7-.1 1 0z" opacity=".1"/><path fill="#3E4049" d="M251.9 330.4s2.3-1 1.3 4.8l-.6 3.3s2.3-4.4 5.2 3.5c3 7.8-7.8 13.8-12.9 14.3-1 .1-2 0-3-.1a2.8 2.8 0 0 1-2.3-3.2v-.5l.5-1.1s-2.1-7 .2-9.7c0 0-3-9.5-1.4-10.7 0 0 .8 0 2.3 2 2 3 6 3.6 9 1.6l.1-.1c1.3-1 2.1-2.4 1.6-4.1z"/><path fill="#000" d="M200.3 245.6l25.8 5.8-.7 3.4c-9.8-.5-17.8-2.2-23.5-4l-1.6-5.2zM257.8 245.6s-1 2.9-2 7c-7.6 1.4-15.3 2.2-23 2.4l-.8-3.6 25.8-5.8z" opacity=".1"/><path fill="#B07156" d="M197 130.9s-6.5 9.4-7.2 15a99 99 0 0 1-3.5 14s-5.3 8.8 0 18.3 14.1 4 14.1 4-1.8 11-2.8 15.2c-.9 4.2-1.6 13-1.6 13s-2.5 32.2-3.9 34.3c-1.3 2.1 29.1 16 71.8 4.9 0 0-2.8-16.4 0-21.7 2.8-5.3-10-41.6-10-41.6s7.7 3.7 13.5-2.5c1.3-1.5 2.4-2.6 3.1-3.6a8.7 8.7 0 0 0 1.6-8.2 113 113 0 0 1-5.7-22.6c.2-5.8-8.5-16.2-8.5-16.2l-61-2.3z"/><path fill="#E9D8D0" d="M228.5 122.5a30 30 0 0 0-21.7 1.6 155 155 0 0 0-13.5 6.8c-1.6 1.4 0 2.6 0 2.6l18.2 2h36.2l13.9-1s-12.7-8.1-19.2-8.6a79 79 0 0 1-14-3.4z"/><path fill="#000" d="M253.5 186.3l-1.6-7.2c.4-4.5 1.2-9 2.5-13.4 2.1-6.9-.5-16.6-.5-16.6M200.4 149s-1.4 5.4 0 8.4 0 9.5 0 9.5-.5 10.6.7 14M211.7 157.6s-3 7.9-4.4 9.7c-1.3 2-3 9.8-4.6 11.4-1.6 1.6-5 20.4-5 20.4s9.4 7.2 14 13.3c4.6 6 29.3-1.6 29.3-1.6s1.8-8.8 4.8-10.2c1.1-.5 1.3-1.1 1-1.7-1.5-3-2.4-6.2-2.7-9.6-.7-8.8-2.9-22.8-9.6-29.1l-22.8-2.6z" opacity=".1"/><path fill="#AB4E68" d="M211.5 156.7s-3 7.9-4.4 9.7c-1.4 1.9-3 9.7-4.6 11.3-1.7 1.7-5 20.5-5 20.5s9.4 7.2 14 13.3c4.6 6 29.3-1.7 29.3-1.7s1.8-8.8 4.8-10.1c1.1-.5 1.2-1.2 1-1.7-1.5-3-2.4-6.3-2.7-9.6-.7-8.8-2.9-22.9-9.6-29.2l-22.8-2.5z"/><path fill="#000" d="M221 207.4a4.2 4.2 0 1 0 0-8.3 4.2 4.2 0 0 0 0 8.3zM217.5 158.8s-5.8 7-2.3 12.5l1.6.7s1-12 2-12.7l-1.3-.5zM222.6 158.8s-1.6 12.7-.5 13.8c0 0 4.4 1 4.8-.7 0 0-2.5-10.8-1.8-12.2l-2.5-.9zM228.1 159.8s1.9 9.5 3.5 7.9c1.6-1.6-1.2-7.9-1.2-7.9h-2.3z" opacity=".1"/><path fill="#000" d="M214.5 160.4s13.8 2.8 21.2.5c7.5-2.3 26.3-21.5 26.3-21.5l1.4-4s-2.3-4.1-1.8-5.7c.4-1.6-3.3 1.9-3.3 1.9l.7 1.9s-59.8 3.4-65.7-.6l3.7-3.4-3-1.6s-1.4 4.8-3.3 6c-1.9 1 3.3 6.4 3.3 6.4s13.6 19.2 20.5 20.1z" opacity=".1"/><path fill="#B07156" d="M214.5 159.7s13.8 2.8 21.2.5c7.5-2.3 26.3-21.4 26.3-21.4l1.4-4s-2.3-4.2-1.8-5.8c.4-1.6-3.3 1.9-3.3 1.9l.7 1.9s-59.8 3.4-65.7-.6l3.7-3.4-3-1.6s-1.4 4.8-3.3 6c-1.9 1 3.3 6.4 3.3 6.4s13.6 19.2 20.5 20.1z"/><path fill="#000" d="M195 136s2.6-1 9.1.8c6.5 1.9 14.3 0 14.3 0s34.8-.6 37.6-.2c2.8.5 7.4-1.8 7.4-1.8M243.8 162.3s3.9 26.8 10.4 34.6c0 0-8.3-28-10.4-34.6z" opacity=".1"/><path fill="#765656" d="M230.5 112.5a14.3 14.3 0 1 0 0-28.6 14.3 14.3 0 0 0 0 28.6z"/><path fill="#000" d="M226.2 81.5c-1 0-2 .6-2.3 1.5-.2.6-.1 1.3-.3 1.9-.4 1.9-2.6 2.8-3.6 4.5-.9 1.8-.3 3.7-.4 5.6-.4 5.4-6.3 9.5-6 15 0 1 .4 2 .1 2.8-.5 1.8-2.5 2.6-4.2 3.4a17 17 0 0 0-9.1 12.8c-.2 1.3-.2 2.7.4 3.9.6 1.2 2 2 3.3 1.8 2-.5 2.6-3 4.3-4 .8 1.2.5 2.8.9 4.2.4 1.4 2 2.6 3.4 2.2 1.5-.3 2.1-2.6.9-3.5 1.6.3 2.7 1.9 3 3.5.4 1.6.2 3.2.6 4.8 1 3.5 4.2 5.9 7.8 5.7h1.5c.5.1 1 .4 1.3.7a9 9 0 0 0 6.3 1.6c.1-.8 1-1.4 1.8-1.6.8 0 1.7 0 2.5.3l3.8 1c1.2.2 2.6.4 3.2-.6.5-.7.3-1.7.6-2.5.5-1.3 2.3-1.5 3.7-1.3 1.3.1 3 .2 3.9-.9.9-1 .3-2.9-.5-4.1-.8-1.2-1.8-2.6-1.5-4 .3-2.1 3-3 4.2-4.6 1.3-1.8.8-4.3-.2-6.2-1-2-2.5-3.6-3.4-5.6-.3-.4-.3-1-.1-1.3l.7-.7c.7-.6.6-1.7.4-2.6a28 28 0 0 0-3.2-8.2c-.7-1.2-1.6-2.4-2-3.7-.3-1.6 0-3.3-.4-4.8-.4-1.8-1.4-3.2-2.5-4.6L237 82.8l-1.3-1.5c-1.5-1-3.4-.4-5 .3-1.8.7-2.6-.2-4.5 0z" opacity=".1"/><path fill="#896363" d="M226.2 80.9c-1 0-2 .5-2.3 1.4-.2.6-.1 1.3-.3 1.9-.4 1.9-2.6 2.8-3.6 4.5-.9 1.8-.3 3.7-.4 5.6-.4 5.4-6.3 9.5-6 15 0 1 .4 2 .1 2.8-.5 1.8-2.5 2.6-4.2 3.5a17 17 0 0 0-9.1 12.7c-.2 1.3-.2 2.7.4 4 .6 1 2 2 3.3 1.7 2-.4 2.6-3 4.3-4 .8 1.2.5 2.8.9 4.2.4 1.4 2 2.6 3.4 2.2 1.5-.3 2.1-2.6.9-3.5 1.6.3 2.7 1.9 3 3.5.4 1.6.2 3.2.6 4.8 1 3.5 4.2 5.9 7.8 5.7h1.5c.5.1 1 .4 1.3.7a9 9 0 0 0 6.3 1.7c.1-.9 1-1.5 1.8-1.7.8 0 1.7 0 2.5.3l3.8 1c1.2.2 2.6.4 3.2-.6.5-.7.3-1.6.6-2.5.5-1.3 2.3-1.4 3.7-1.3 1.3.1 3 .2 3.9-.9.9-1 .3-2.9-.5-4.1-.8-1.2-1.8-2.6-1.5-4 .3-2.1 3-2.9 4.2-4.6 1.3-1.8.8-4.3-.2-6.2-1-2-2.5-3.6-3.4-5.6-.3-.4-.3-.9-.1-1.3l.7-.7c.7-.6.6-1.7.4-2.6-.6-2.9-1.7-5.6-3.2-8.2-.7-1.2-1.5-2.4-1.9-3.7-.4-1.6-.1-3.3-.4-4.8-.4-1.8-1.5-3.2-2.5-4.6L237 82c-.3-.6-.7-1-1.3-1.5-1.5-1-3.4-.4-4.9.3-2 .7-2.7-.1-4.6 0z"/><path fill="#000" d="M218.7 114.6s-6.2 1-8.5 6.5-5.3 6.6-5.3 6.6M226.9 87.6s3.4 7.8.2 13.2c-3.3 5.3-1.4 15-1.4 15M224.3 125.2s-3.5-1.4-2 4.4c1.3 5.7-.6 9.9-.6 9.9M234.4 124.3s-6.2-.2-4 7.8-.6 12-.6 12M234.4 86s6 6.2 5.6 10a172 172 0 0 0 0 18.6M242.3 125s4.1 4.3 3.5 8c-.7 3.7 0 11 0 11M246.7 105.4s3 5.5 2.3 10.4l-2.3-10.4z" opacity=".1"/><path stroke="#000" stroke-miterlimit="10" stroke-width="2" d="M206 170s9.5 19.2 34 1.9" opacity=".1"/><path fill="#636E7E" d="M246.4 198l7.9-12 .9 4-8.7 8.9"/><path fill="#000" d="M226.9 220s7.3 17.9 0 33v-33z" opacity=".1"/><path fill="#BDC4CD" d="M319.4 249.2h-24.7v7h24.7v-7z"/></g><defs><linearGradient id="paint0_linear" x1="228.2" x2="228.2" y1="356.3" y2="79.1" gradientUnits="userSpaceOnUse"><stop stop-color="gray" stop-opacity=".3"/><stop offset=".5" stop-color="gray" stop-opacity=".1"/><stop offset="1" stop-color="gray" stop-opacity=".1"/></linearGradient><clipPath id="clip0"><path fill="#fff" d="M0 0h471v365H0z"/></clipPath></defs></svg>