<svg xmlns="http://www.w3.org/2000/svg" width="482" height="315" fill="none"><g clip-path="url(#clip0)"><path fill="#3AB795" d="M241 315c133.1 0 241-17 241-37.9s-107.9-37.8-241-37.8S0 256.3 0 277c0 21 107.9 37.9 241 37.9z" opacity=".1"/><path fill="#FFCAB1" d="M399.4 203.5v26.3l-7 14-.1.4-18.4-1.2-7-.5-16.5-1V210l16.4.4 7.3.2 18.6.5 6.7-7.7z"/><path fill="#000" d="M399.4 205v24.8l-1.7 3.4-1.7 3.5-3.5 7 .4-26.2v-5.3l3.4-3.7 1.4-1.6 1.7-1.8z" opacity=".1"/><path fill="#FFCAB1" d="M400.4 196.5v9.2l-1 1.5-1.7 2.7-1.4 2.4-3.3 5.2h-.1l-44-2.2v-9l.2-.2 5.2-5.7 2-2 3.4-3.7 40.7 1.8z"/><path fill="#000" d="M393 208.5v9l-44-2.2V206l44 2.4zM400.4 196.5v9.2l-7.4 11.8v-9l7.4-12z" opacity=".1"/><path fill="#3F3D56" d="M397.7 200.8v32.4l-1.7 3.5.3-24.4V203l-42-2.6 2-2 41.4 2.4z"/><path fill="#3F3D56" d="M377.1 201l-3 6.4v3.3L374 243l-7-.5V207l3.7-6h6.5z"/><path fill="#3F3D56" d="M367.4 201.5c-1.7.6-3.5.6-5.2.2-.4-.1-.7-.2-1-.5l-.5-1c-.3-1-.5-1.8-.5-2.8a3 3 0 0 1 1.1-2.4c.2 0 .3-.2.4-.3l.4-.7c.5-1.6 1.5-3.2 3-3.4 1.5-.2 2.9.8 4 1.7l2.5 2.1a4 4 0 0 1 7.4 0c1.5-1.8 3.4-3 5.6-3.9.4-.2 1-.2 1.4 0 .3.2.5.5.6.8a12 12 0 0 1 1 4.7c.4-.1.8 0 1 .3.2.3.3.7.3 1l.1 1.8c0 .6 0 1.2-.4 1.7-.5.6-1.4.7-2.2.7.4.3.2 1-.2 1.3-.4.2-1 .3-1.5.3-1.9 0-4-.1-5.6-1.2-.7-.4-1.2-1-1.8-1.4-1.6-1-3.5-1-5.4-1-1.6.1-3 1.5-4.5 2z"/><path fill="#3F3D56" d="M367 201s-16.2 2.3-18.4 12.1l3.4-.5 2.4 4.3s2.5-9.6 10-11.8a88 88 0 0 1 10-2.7s5.1 1.3 9.8 16.3l2.6-3.7 4.7 1s-3.4-11.7-12.6-15H367z"/><path fill="#3AB795" d="M376.8 213.8v35.4l-9.4 19-.3.5-24.8-1.6-9.6-.6-22.1-1.5v-42.4l22.1.6 10 .3 25 .7 9-10.4z"/><path fill="#000" d="M376.8 215.9v33.3l-2.3 4.7-2.4 4.7-4.7 9.5.5-35.4.1-7.2 4.5-5 2-2.1 2.3-2.5z" opacity=".1"/><path fill="#3AB795" d="M378 204.4v12.3l-1.2 2-2.3 3.7-2 3.2-4.5 7-59.4-3v-12.2l.2-.2 7-7.6 2.6-2.8 4.6-5 55 2.6z"/><path fill="#000" d="M368 220.5v12.2l-59.4-3v-12.3l.2-.2 59.2 3.3zM378 204.4v12.3l-10 16v-12.2l10-16.1z" opacity=".1"/><path fill="#3F3D56" d="M374.5 210V254l-2.4 4.7.4-33v-5l.1-7.5-56.8-3.5 2.6-2.8 56.1 3.3z"/><path fill="#3F3D56" d="M346.6 210.4l-4 8.7v4.4l-.3 43.6-9.6-.6v-48l5-8h9z"/><path fill="#3F3D56" d="M333.5 211c-2.3.8-4.8 1-7 .3a3 3 0 0 1-1.3-.6c-.4-.4-.7-.9-.8-1.5-.4-1.1-.7-2.4-.7-3.6 0-1.3.5-2.6 1.5-3.3l.6-.4.4-1c.7-2 2-4.2 4.2-4.5 2-.3 3.8 1 5.4 2.4l3.3 2.9c1-2.8 4.1-4.2 6.9-3.2 1.4.5 2.5 1.6 3 3 2-2.3 4.6-4 7.5-5.1.7-.3 1.4-.5 2-.1.4.2.7.6.8 1 .9 2 1.4 4.2 1.4 6.4.5-.1 1 0 1.3.5.3.4.4.9.5 1.4l.1 2.3c0 .8 0 1.7-.6 2.3-.7.8-1.9 1-3 1 .6.4.3 1.3-.2 1.7-.6.3-1.3.4-2 .3-2.6 0-5.4 0-7.6-1.5l-2.5-1.9c-2.1-1.4-4.8-1.5-7.2-1.3-2.1 0-3.9 1.9-6 2.5z"/><path fill="#3F3D56" d="M333 210.5s-21.9 3-25 16.3l4.7-.7 3.2 5.7s3.4-12.9 13.4-16c10-3 13.6-3.5 13.6-3.5s7 1.7 13.3 21.9l3.6-5 6.2 1.5s-4.6-15.8-17-20.2h-16z"/><path fill="#AB4E68" d="M412.3 231.4v22l-5.8 11.6-.2.4-15.3-1-6-.4-13.7-.9V237l13.7.3 6.2.2 15.5.5 5.6-6.5z"/><path fill="#000" d="M412.3 232.7v20.6l-1.4 2.9-1.4 3-3 5.8.3-21.9.1-4.4 2.8-3.1 1.2-1.4 1.4-1.5z" opacity=".1"/><path fill="#AB4E68" d="M413.1 225.5v7.7l-.8 1.3-1.4 2.2-1.2 2-2.8 4.4-36.8-1.9v-7.6h.1l4.4-4.8 1.6-1.7 2.9-3.1 34 1.5z"/><path fill="#000" d="M407 235.5v7.6l-36.9-1.9v-7.6h.1l36.7 2z" opacity=".1"/><path fill="#000" d="M413.1 225.5v7.7l-6.2 9.9v-7.6l6.2-10z" opacity=".1"/><path fill="#3AB795" d="M411 229v27.2l-1.5 3 .2-20.5V231l-35-2.2 1.5-1.7 34.7 2z"/><path fill="#3AB795" d="M393.7 229.3l-2.5 5.4v2.7l-.2 27-6-.4v-29.7l3.2-5h5.5z"/><path fill="#3AB795" d="M385.6 229.7a8 8 0 0 1-4.4.2c-.3 0-.6-.2-.8-.4a2 2 0 0 1-.5-.9c-.2-.7-.4-1.5-.4-2.3 0-.8.3-1.5 1-2l.3-.3.2-.5c.5-1.3 1.3-2.6 2.6-2.9 1.3-.1 2.4.7 3.3 1.5l2.1 1.8a3.3 3.3 0 0 1 6.1-.1c1.3-1.4 2.9-2.5 4.7-3.2.4-.2.8-.2 1.2 0 .2.1.4.3.5.6.5 1.2.8 2.6.9 4 .3-.1.6 0 .8.2l.2.9.1 1.4c0 .5 0 1-.4 1.4-.4.5-1.1.6-1.8.6.3.3.2.8-.1 1-.5.3-1 .4-1.3.3-1.6 0-3.4 0-4.7-1l-1.5-1.2c-1.3-.8-3-.9-4.5-.8-1.2.1-2.4 1.2-3.6 1.7z"/><path fill="#3AB795" d="M385.3 229.3s-13.6 2-15.5 10.1l2.8-.4 2 3.5s2.1-8 8.3-9.8c6.2-1.9 8.4-2.2 8.4-2.2s4.3 1 8.2 13.5l2.2-3 3.9.9s-2.9-9.8-10.5-12.5h-9.8z"/><path fill="url(#paint0_linear)" d="M358 71.4c-.5-2.9-9.4-9.1-9.4-9.1s-4-2.2-6-4.7c-1.4-1.6-1.8-1.5-2-1.3l-.3-.1-.2-.2c0-.2-.1-.5-.4-.6l-.3-.2a9.8 9.8 0 0 1-1-4.2c0-1.8-2.1-1.3-2.8-1.2-.4-.9-1-1.8-1.3-2.8l.4-1c1.2-2.7 1-5.9 1.5-8.8.4-2 1.2-4.3 1-6.3v-.2l-.3-1.5c-.4-.9-1-1.7-1.3-2.7-.4-1.3-.2-2.9-.5-4.3-.5-1.8-2-3.2-3.6-4-1.7-.7-3.6-1-5.4-1.2-4.6-.6-9.5-1-13.7 1-.4.2-.8.3-1.3.3l-1.2-.5c-1.1-.6-2.5-.2-3.5.5-1 .8-1.7 1.9-2.4 3-.7 1-1.4 2.1-2.4 2.8-1.2.8-2.9 1.1-3.8 2.2-.5.5-.8 1.2-.8 1.9v1.1c.1 1 .4 2.1.8 3.1.2.7.6 1.4 1.1 2 1.5 1.1 3.8 0 5.6.7l.5.2-.1.2A14.6 14.6 0 0 0 319 54.2h.9v.4c.6 1.8.7 3.7.5 5.5v-.9l-.7-.2-1.8-.3c-2 0-5 .8-8.2 4.8l-5.3 2.9-.2.2s-5.5 8.5-6 11.7l-.1.4-9.2-.4c0-2.3-.6-4.6-1.6-6.7a3 3 0 0 0-.8-1c-.6-.5-1.4-.3-2.1 0a20 20 0 0 0-8 5.4 5.7 5.7 0 1 0-10.6.1l-3.5-3c-1.6-1.3-3.6-2.8-5.7-2.5-2.3.4-3.7 2.7-4.5 4.9 0 .3-.2.7-.4 1h-3l-5 5.3-2.7 3-7.6 8-.1.2v8l-.6 1.9.6-.1v3.1l2 .1v37.3l23.6 1.5 10.2.7 18 1.1c0 1.7.6 4.1 2.1 5 .4.3.8.6 1 1l-.2.4c-.7 1.5-1.4 3.1-1.2 4.2 0 1.3-.2 2.6-1 3.7 0 0-5.3 17-5.2 22 .1 5-2 15.7-2 15.7s-2.2 7-.8 9c1.3 2 2.8 10.6 2.8 10.6s1 2 1 3.6c-.1 1.7.9 4.8.9 4.8L288 239s-.4 3.3.9 5.7c1.2 2.3 1.2 1.6.6 5.6-.6 4 .7 7.9 2.8 9.1 1 .5 1 1.2.7 1.9-.6-.3-1 1-1.3 1.9l-.3.2h.2l-.2.8s-5.7 4.8-6 6.6c-.4 1.7-4.4 2.6-4.4 2.6s-6 1.7-7.6 2.5a3 3 0 0 0-1.7 2.4c0 .7 0 1.5.2 2.3.6 2.5 9.1 2.7 13.2 2 4-.6 12.4-3 12.4-3s8.8-.8 11.4-1.9c2.6-1 .6-3.8.6-3.8v-.3c0-1 .2-4.6-.4-5.6-.5-.8-.5-2.6-.4-3.8 1.8-3.2-2-12.9-2-12.9s.7-9.4.2-10.8c-.4-1.4-2.5-13.1-2.5-13.1s-1.3-5.4-.8-6.3c.5-.9-.3-3.5-.3-3.5s-2-2.9-1.8-3.8c.2-.9-.6-2.5-.6-2.5s6.1-9.4 5.6-11.1c-.6-1.7.2-4.6.2-4.6l1.8-2.9 3-5a59.1 59.1 0 0 0 3.3-8.8s1 17.7 1.8 19.5c.9 1.8 2.1 16 2.1 16 .5 1.3.7 2.6.7 4-.2 2.2 1.9 11.8 1.9 11.8s.9 6.9.3 8.7c-.6 1.8-.1 15-.1 15s-3.4 2.6-4.2 4.6c-.9 2 .1 7.4.1 7.4l.4.2a11 11 0 0 0-.7 2.3c-.1 1.2-2 6.3-1.8 7 .2.7-.7 3-.9 4.1 0 1.2-1.6 2.8-1.7 3.4l-.7 1.6c-.3.8-.6 1.6-.7 2.5-.6 2.5 6.5 3 6.5 3 10.7 1.9 12.6-6.2 12.6-6.2s1.4-7.2 1.8-7.7a1 1 0 0 0 .1-.7 9.3 9.3 0 0 0-1.5-3.4c-.4-.4-.4-1.4-.3-2.4.3 0 .6 0 .9-.2 4.3-1.2 2.5-8.5 2.5-8.5s2.9-4.8 2.9-6.7c0-1.8 1-7.5 1-7.5 3.7-6.7 2.3-23 2.9-24.4.6-1.3-1.3-6.2-2.8-8.5-1.5-2.2-1-8.2 0-10 .9-1.7-1-7.7-1-7.7s1.8-11.6 1.7-13.4c0-1.8 1.6-7.1 1.6-7.1s1.6-2.8 1.2-3.7c-.4-.8 1.2-3 .7-4-.4-.9.4-3.8 1.2-5.6.4-.9 1-3.3 1.3-5.5l.1-.7c1.8 1 3.4 2 4 1.7 1-.4-.7-6-1.8-9.5.2-.2.3-.2.2-.3-.7-.5 0-2.7 0-2.7 4.3-2.5 2.9-4.4 1.5-5.5-1.3-1.2-.4-4.4-.9-5.6-.4-1.3.5-7.1 1.2-11.4.2-1 .2-1.9 0-2.8l2.3-3.6c2.4-4 7.6-23 7.6-23v-.1l1-2.4c1.5-4.2-1.3-16.6-1.8-19.5zm-37.6-11h.2v.1h-.2zM297 264.8l-.8-.1.8.1z"/><path fill="#FEC2BE" d="M250 126.2a60.3 60.3 0 0 0 15.6 1.5h1.8l2.3-4.7-2.3-4s-2.2-.6-5-1.1c-4.3-.8-10-1.3-12.8.3-4.7 2.9-4.2 6.3.5 8z"/><path fill="#000" d="M265.5 127.7h1.8l2.4-4.8-2.4-4-5-1c2.3 1.7 7.9 5.3 3.2 9.8z" opacity=".1"/><path fill="#4C4981" d="M304.4 69.1l-1-1.2s-5.4 8.4-6 11.6l-1.2 6.9-2.2 6c-.9 1.8-1.7 3.5-1.8 4.3 0 .8.3 2.6-1.4 3.7-1.6 1.1-2 4.1-2 4.1s-6 6-9.3 6c-3.2.2-12.4 1.8-12 3.4.3 1.6-3.8 2.5-5.5 3-1.7.3 10.7 5 3.5 11.2 0 0 4.6 1 5 2.1.5 1.1 5.4-.6 5.4-.6s1-2.5 4.6-2.7c3.6-.1 5.4-1.7 5.4-2 0-.2 3.6-2.2 5.6-2.7 2-.6 4.6-.9 4.7-1.4l12-51.7h-3.8z"/><path fill="#4B5F78" d="M304.4 69.1l-1-1.2s-5.4 8.4-6 11.6l-1.2 6.9-2.2 6c-.9 1.8-1.7 3.5-1.8 4.3 0 .8.3 2.6-1.4 3.7-1.6 1.1-2 4.1-2 4.1s-6 6-9.3 6c-3.2.2-12.4 1.8-12 3.4.3 1.6-3.8 2.5-5.5 3-1.7.3 10.7 5 3.5 11.2 0 0 4.6 1 5 2.1.5 1.1 5.4-.6 5.4-.6s1-2.5 4.6-2.7c3.6-.1 5.4-1.7 5.4-2 0-.2 3.6-2.2 5.6-2.7 2-.6 4.6-.9 4.7-1.4l12-51.7h-3.8z" opacity=".1"/><path fill="#CA8496" d="M316.8 289.9c10.5 2 12.4-6 12.4-6s1.3-7.2 1.8-7.8a1 1 0 0 0 .1-.7 8.8 8.8 0 0 0-1.5-3.3c-.6-.8-.1-4-.1-4l-12.2-3.1s-1 2.4-1.2 3.5c-.2 1.1-2 6.3-1.7 7 .1.7-.8 3-1 4 0 1.2-1.5 2.8-1.7 3.4-.1.6-.4 1.1-.6 1.6-.4.8-.6 1.6-.8 2.4-.6 2.6 6.5 3 6.5 3z"/><path fill="#000" d="M316.8 289.9c10.5 2 12.4-6 12.4-6s1.3-7.2 1.8-7.8a1 1 0 0 0 .1-.7l-2.5 7.2s-2.1 4.4-9.9 3.7c-4.4-.3-6.6-1.2-7.7-1.8-.3.8-.6 1.6-.7 2.4-.6 2.6 6.5 3 6.5 3z" opacity=".1"/><path fill="#000" d="M325 278.6s-2.6 0-2.8-2.1l2.8 2z" opacity=".1"/><path fill="#29339B" d="M279.3 208c1.3 2 2.8 10.6 2.8 10.6s1 2 1 3.6c-.1 1.7.9 4.8.9 4.8l3.3 12.3s-.3 3.3 1 5.6c1.2 2.3 1 1.6.5 5.7-.6 4 .7 7.8 2.9 9 2.1 1.1-1 4-1 4s13.7 3.7 16.6 1.4c3-2.3-1.5-13.5-1.5-13.5s.8-9.4.3-10.8c-.5-1.3-2.5-13-2.5-13s-1.3-5.3-.8-6.2c.5-1-.3-3.5-.3-3.5s-2-2.9-1.8-3.7c.1-.9-.6-2.5-.6-2.5s6-9.3 5.5-11c-.5-1.8.2-4.6.2-4.6l1.7-2.9 3-5c.6-1 2-4.8 2.8-7l.5-1.7s1 17.5 1.8 19.3c1 1.8 2.1 16 2.1 16 .5 1.2.7 2.5.6 3.9a99.2 99.2 0 0 0 2 11.8s.8 6.8.2 8.6c-.6 1.8-.1 15-.1 15s-3.3 2.6-4.1 4.5c-1 2 0 7.4 0 7.4s9.6 4.8 13.9 3.5c4.2-1.2 2.5-8.5 2.5-8.5s2.8-4.7 2.8-6.6c0-1.8 1-7.5 1-7.5 3.7-6.7 2.3-23 2.9-24.3.6-1.2-1.3-6.1-2.7-8.3-1.5-2.2-1-8.2 0-10 .9-1.7-1-7.7-1-7.7s1.8-11.6 1.7-13.4c0-1.8 1.6-7 1.6-7s1.5-2.8 1.2-3.6c-.4-.9 1.2-3 .7-4-.4-1 .4-3.9 1.2-5.6.3-.9.9-3.3 1.2-5.5l.7-3.9-9.9-7.9-24.6-6.4-9.2-3-9 14.2s-1 1.5-1.8 3.2c-.7 1.4-1.3 3.1-1.2 4.1.1 1.3-.1 2.6-.8 3.7 0 0-5.4 17-5.3 22 .2 4.8-1.9 15.5-1.9 15.5s-2.3 7-1 9z"/><path fill="#3AB795" d="M305 90.3v37.2l-9.9 19.9-.3.6-26-1.8-10-.6-23.4-1.5V99.5l23.3.7 10.4.3 26.4.7 9.5-11z"/><path fill="#000" d="M305 92.5v35l-2.4 4.9-2.5 4.9-5 10 .6-37.2.1-7.5 4.8-5.2 2-2.3 2.4-2.6z" opacity=".1"/><path fill="#3AB795" d="M306.3 80.4v13l-1.3 2.1-2.4 3.8-2.1 3.4-4.7 7.4h-.1l-62.3-3.2V94.1l.1-.2 7.5-8 2.7-3 4.8-5.2 57.8 2.7z"/><path fill="#000" d="M295.8 97.3V110l-62.4-3.2V94.1l.1-.2 62.3 3.4zM306.3 80.4v13L295.8 110V97.3l10.5-17z" opacity=".1"/><path fill="#3F3D56" d="M302.6 86.4v45.9l-2.5 5 .4-34.6v-5.3l.2-7.9L241 86l2.7-3 59 3.5z"/><path fill="#3F3D56" d="M273.3 86.8l-4.1 9v4.7l-.5 45.7-10-.6V95.3l5.4-8.5h9.2z"/><path fill="#3F3D56" d="M259.6 87.4c-2.4.8-5 .9-7.4.2a3 3 0 0 1-1.3-.6c-.4-.4-.7-1-.9-1.5-.4-1.3-.6-2.6-.7-3.9 0-1.3.5-2.6 1.6-3.4l.6-.5.5-1c.7-2.1 2.1-4.4 4.4-4.8 2.1-.3 4 1.2 5.6 2.6l3.6 3a5.6 5.6 0 0 1 10.4-.1c2.1-2.4 4.8-4.3 7.9-5.5.6-.2 1.4-.4 2 0 .4.2.7.6.8 1 1 2.2 1.6 4.5 1.6 6.8.5-.2 1 0 1.4.5.2.4.4 1 .4 1.4l.2 2.5c0 .8-.1 1.7-.7 2.4-.7.9-2 1-3 1 .4.4.2 1.4-.4 1.8-.6.4-1.3.5-2 .4-2.8 0-5.7 0-8-1.6-1-.6-1.7-1.4-2.6-2-2.2-1.5-5-1.6-7.6-1.5-2.3.1-4.2 2-6.4 2.8z"/><path fill="#3F3D56" d="M259 86.8S236 90 233 103.9l4.8-.7 3.4 6s3.6-13.5 14-16.6c10.6-3.2 14.3-3.8 14.3-3.8s7.4 1.8 14 23l3.7-5.2 6.6 1.4s-4.8-16.5-17.9-21.2h-16.7z"/><path fill="#FEC2BE" d="M315.7 69.7c.4-.2 26.4-10.9 22.8-13-2.1-1.2-4.8-6.6-6.6-10.8l-2-5.3s-21-3.7-13.5 9.1c1.2 2 2 4 2.7 6.3 2.1 8.6-3.2 13.5-3.4 13.7z"/><path fill="#000" d="M316.5 49.7c1.1 2 2 4 2.6 6.2 5.4-.4 10.1-3.7 12.3-8.6l.6-1.4c-1.3-3-2.1-5.3-2.1-5.3s-21-3.7-13.4 9z" opacity=".1"/><path fill="#FEC2BE" d="M303.5 41a14.6 14.6 0 1 0 29-.1 14.6 14.6 0 0 0-29 0z"/><path fill="#000" d="M289.4 153.7a9 9 0 0 1 2.1 4s7.2 5 6.7 1.9 3.7-15.6 3.7-15.6l-.5 17s23-1 24.6-2.7c1.7-1.7 11.5-5 11.5-5s3 2.5 5.8 4.3l.6-3.9-9.9-7.9-24.6-6.4-9.2-3-9 14.2s-1 1.5-1.8 3.1z" opacity=".1"/><path fill="#fff" d="M288.7 152.4c1.9 1.2 2.6 4.4 2.6 4.4s7.2 5 6.7 1.8a72 72 0 0 1 3.7-15.6l-.5 17.1s23-1 24.6-2.8c1.6-1.6 11.5-4.9 11.5-4.9s8.5 6.8 10 6.2c1.6-.6-2.8-12.1-2.8-12.1l-4.4-67.8s1.2-20.2-.6-21l-.8-.4c-1.1-1-1.5-3.2-1.6-5-.1-2.2-3-1.1-3-1.1l1.7 2.2-14.8 9h-.1l-1.8-.8c-1.3-.5-3-1-4.2-.5-.6.3-1.1.8-1.5 1.4-.9 1.3-1.5 2.6-2 4.1l-5.4 9s-2.8 12.1-2.8 12.6a62 62 0 0 1-1.8 12.7c-1 1.2-1.9 7.1-1.6 9 .4 1.7-.6 8.4-.6 8.4-4 3.2-6 14.2-6 14.2s-6.2 12.3-6.6 13.7c-.5 1.4.1 5 2 6.2z"/><path fill="#000" d="M321 62.8c1.5 2.2 5.7 5.2 5.7 5.2l12-10.2c-1-1-1.5-3.2-1.6-5 0-2.2-3-1.1-3-1.1l.4.4c.7.8.5 2-.3 2.7l-.2.1-13 8z" opacity=".1"/><path fill="#fff" d="M321 62.3c1.5 2.2 5.7 5.2 5.7 5.2l12-10.2c-1-1-1.5-3.2-1.6-5 0-2.2-3-1.1-3-1.1l.4.4c.7.8.5 2.1-.3 2.7l-.2.2-13 7.8z"/><path fill="#000" d="M315.4 64c1.6 1.8 3.8 4 3.7 2.9-.1-1.1 1.3-3.4 2.2-4.5-1.4-.4-2.9-.4-4.3.1-.6.4-1.1.8-1.6 1.4z" opacity=".1"/><path fill="#fff" d="M315.2 63.2c1.6 1.9 3.8 4 3.7 3-.2-1.1 1.1-2.8 2-3.9-1.2-.5-3-1-4.1-.5-.7.3-1.2.8-1.6 1.4z"/><path fill="#FF718D" d="M319.1 73.1a1 1 0 1 0 0-1.8 1 1 0 0 0 0 1.8zM311.9 99a1 1 0 1 0 0-2 1 1 0 0 0 0 2zM303.7 125a1 1 0 1 0 0-1.9 1 1 0 0 0 0 2zM303.5 153.4a1 1 0 1 0 0-1.9 1 1 0 0 0 0 2zM315 85.3a1 1 0 1 0 0-1.9 1 1 0 0 0 0 2zM308.5 111.8a1 1 0 1 0 0-1.9 1 1 0 0 0 0 2zM302.2 137.8a1 1 0 1 0 0-1.9 1 1 0 0 0 0 2zM303.6 156.6a1 1 0 1 0 0-1.9 1 1 0 0 0 0 2z"/><path fill="#000" d="M338.8 57.9s-.2-1.4 2 1c2 2.5 5.9 4.6 5.9 4.6s8.8 6.2 9.3 9c.5 3 3.4 15.4 1.8 19.5-1.5 4.1-13 24-13 24s3 3.5 2.3 7.7c-.7 4.3-1.6 10-1.2 11.4.4 1.3-.5 4.4.8 5.5 1.4 1 2.8 3-1.4 5.6 0 0-.8 2.2 0 2.6.6.5-10.7 5.5-15.1 2.8-4.5-2.6-12.5-23.6-12.7-28.3-.2-4.7 2.5-20.2 4-23.9 1.4-3.6 5.6-17.9 7.5-21 1.9-3.2 9.8-20.5 9.8-20.5z" opacity=".1"/><path fill="#4B5F78" d="M339.3 57.9s-.2-1.4 1.9 1c2 2.5 6 4.6 6 4.6s8.8 6.2 9.3 9c.5 3 3.3 15.4 1.8 19.5-1.6 4.1-13.1 24-13.1 24s3 3.5 2.3 7.7c-.7 4.3-1.6 10-1.2 11.4.4 1.3-.5 4.4.9 5.5 1.3 1 2.8 3-1.4 5.6 0 0-.8 2.2-.1 2.6.7.5-10.6 5.5-15.1 2.8-4.5-2.6-12.5-23.6-12.7-28.3-.1-4.7 2.5-20.2 4-23.9 1.4-3.6 5.7-17.9 7.5-21 1.9-3.2 9.9-20.5 9.9-20.5z"/><path fill="#000" d="M342.5 71.4s-6.9 7.6-6.6 12.6c0 0-.1-8.1 6.6-12.6zM333 83.8c0 .3-4.6 17.4-4.4 19.6a44 44 0 0 1-1.3 8.5l-2.2-.5s1.7-8.9 2-12.1c.3-3.3 6-15.5 6-15.5zM331.2 132.8c.1.3 10.9 12.5 7.8 13.3-3 .9-7.8-13.3-7.8-13.3zM340 129.7c.2.2 4.3 8.8 4.8 6.5.4-2.3-3.5 6.3-4.2-.1l-.6-6.4zM319.4 60.6s-4.5-2.7-10 4.2l-5.3 2.9c-1.2.5-2.6 15.3-2.6 15.3s-2.6 6.4-1.9 10c.8 3.7-2 16.3-2 16.3s-4.7 22.6-4.5 23.2a23 23 0 0 0 4.6-10.9 68 68 0 0 1 4.4-16.4c.5-.8 4.4-21.2 4.4-21.2s3-8.7 5-11.5c2-2.9 4.5-8.3 5.6-9.3.7-.6 1.6-1.2 2.4-1.6l-.1-1z" opacity=".1"/><path fill="#4B5F78" d="M319.4 60.6s-5-2.7-10.6 4.2l-5.2 2.9c-1.2.5-2.6 15.3-2.6 15.3s-2.6 6.4-1.9 10c.8 3.7-2 16.3-2 16.3s-4.6 22.6-4.5 23.2a23 23 0 0 0 4.6-10.9 68 68 0 0 1 4.4-16.4c.6-.8 4.4-21.2 4.4-21.2s3.1-8.7 5-11.5c2-2.9 4.6-8.3 5.6-9.3s3-1.6 3-1.6l-.2-1z"/><path fill="#FEC2BE" d="M297.6 110.3s-9.5-6.2-14-3.1c-4.7 3-12.1 7.4-4.8 10.5 7.4 3.2 17.6 2.6 17.6 2.6l1.2-10z"/><path fill="#000" d="M304.1 170.2c1.5 3 2.6 18.2 3.4 23l3-5c.6-.9 2-4.8 2.8-7-1-2.3-3.4-8.5-3.4-10.8 0-2.8-4.5-6.3-4.5-6.3s-3 2.5-1.3 6zM334.6 216.9s-10.5-4.5-13.6-1.3c-3.1 3.2 13.6 1.3 13.6 1.3zM328.7 218.7s10.6 6 7 7c-3.7 1-7-7-7-7zM297 213.5s4.4.3 2.7 1.2c-1.7 1-2.8-1.2-2.8-1.2zM291.2 214.9c0 .3 13.2 4.5 10.7 6.4-2.6 2-10.7-6.4-10.7-6.4zM333 251.4c-2-.3-13-5.4-8.6-1.7 4.3 3.6 8.7 1.7 8.7 1.7zM327.6 255.4s-1 3.7-4.6 3.2c-3.6-.4 4.6-3.2 4.6-3.2zM330.7 263c-.7-.2-8.5-3.8-8.7-2.2-.1 1.7 7.5 4.6 8 3.7.4-.4.6-1 .7-1.6zM305.3 258.6c-1 0-9.9-2.9-11.7-.3l11.7.3zM297.2 260.3s-1.5-1.4-3-.6c-1.6.7 3 .6 3 .6zM317 275.1c-.2 1-1 1.9-2 2l2-2z" opacity=".1"/><path fill="#CA8496" d="M271.5 280.7c.6 2.5 9 2.7 13 2 4-.6 12.2-3 12.2-3s8.7-.8 11.3-1.9c2.6-1 .5-3.8.5-3.8v-.3c0-1 .3-4.6-.3-5.6-.8-1-.3-4.8-.3-4.8s-12.4 2.4-12.7 1.3c-.2-1.1-2.1-2.8-3-3.1-1-.4-1.6 3-1.6 3s-5.6 4.7-6 6.4c-.4 1.8-4.3 2.7-4.3 2.7s-6 1.6-7.5 2.5c-1 .4-1.6 1.3-1.6 2.3 0 .8 0 1.5.3 2.3z"/><path fill="#000" d="M271.5 280.7c.6 2.5 9 2.7 13 2 4-.6 12.2-3 12.2-3s8.7-.8 11.3-1.9c2.6-1 .5-3.8.5-3.8v-.3l-12.5 2.8s-6.1 2.6-10 2.6c-3.5 0-11.2 1.4-14.8-.7 0 .8 0 1.5.3 2.3z" opacity=".1"/><path fill="#000" d="M288.4 271.3s.6 4 3 5.2l-3-5.2zM304 37l.8.2c1 .3 2.2-.5 3.2-1 1-.6 2.3-1 3.2-.3 1.1 1 .3 3.2 1.5 4.2.7.6 1.9.4 2.7.9.8.5 1 1.6 1.2 2.6.2 1 .6 2 1.6 2.4 1 .3 1.8-.3 2.7-.3l.6-.1V45c0-1.1 0-2.3.4-3.4s1.3-2.1 2.4-2.3c1.7-.2 3.1 1.2 4.1 2.6 1 1.5 2 3 2.8 4.6l.2.3A14.6 14.6 0 0 0 318 26.4c-6.5 0-12.3 4.3-14 10.5z" opacity=".1"/><path fill="#9A5E7F" d="M328.4 41.7c-1-1.3-2.4-2.8-4-2.5-1.2.1-2 1.1-2.5 2.2-.3 1.2-.4 2.3-.3 3.5v.4l-.6.1c-1 0-1.9.6-2.8.3-.9-.2-1.3-1.3-1.5-2.3-.2-1-.4-2-1.3-2.6-.8-.5-2-.3-2.7-1-1.1-.9-.3-3.1-1.4-4-1-.9-2.3-.4-3.3.2-1 .6-2 1.3-3.2 1-.4 0-.7-.3-1-.4-1.9-.7-4.1.4-5.6-.8-.5-.5-.9-1.2-1.1-1.9-.4-1-.7-2-.8-3a4 4 0 0 1 .8-3c1-1 2.5-1.4 3.7-2.2 1-.7 1.8-1.8 2.4-2.9.7-1 1.4-2.1 2.4-2.8 1-.8 2.4-1.2 3.5-.6.3.3.7.4 1.1.6a24.8 24.8 0 0 1 14.8-1.4c1.8.2 3.7.5 5.3 1.3 1.7.8 3.1 2.1 3.6 3.9.4 1.4.1 3 .5 4.3.3 1 1 1.7 1.3 2.7 1 2.5-.2 5.3-.7 7.9-.5 2.9-.2 6-1.5 8.8-.2.5-.5 1.4-1.1 1-.4-.2-.9-1.7-1.2-2.2-.7-1.6-1.7-3.1-2.8-4.6z"/><path fill="#000" d="M354.7 88.3l2.1 6.1s-5 19-7.5 23c-2.4 4-5.9 9-5.9 9s-5.9 3-12.7 1.6l-26.9-4.9s-1.6.3-2.5-1c-.9-1.2-5.4-1.8-5.4-1.8s-5.3-7.7 1.2-10.8c0 0 .8 1.7 4.2.5 3.4-1.2 4.4 1 4.4 1s5.6 1 8.7.7c3.1-.4 10.9-.6 11.7-1.2a1 1 0 0 1 1.4 0s1.9-.7 2.5-1.3c.7-.7 1.5.7 1.5.7s1.2-.6.8-1.4c-.3-.8 1-3.8 1-3.8s.7-2 .3-3.6c-.5-1.6 2-7.3 2-7.3 0-1-.1-2-.4-2.9-.3-1.4 3-4.3 3-4.3s3.4-16.2 10.5-10.9c7 5.4 6 12.6 6 12.6z" opacity=".1"/><path fill="#4B5F78" d="M355.1 88.3l2.2 6.1s-5 19-7.5 23c-2.4 4-5.9 9-5.9 9s-5.9 3-12.7 1.6l-26.9-4.9s-1.7.3-2.5-1c-.9-1.2-5.4-1.8-5.4-1.8s-5.3-7.7 1.2-10.8c0 0 .7 1.7 4.2.5 3.4-1.2 4.4 1 4.4 1s5.6 1 8.7.7c3.1-.4 10.9-.6 11.6-1.2a1 1 0 0 1 1.5 0s1.9-.7 2.5-1.3c.7-.7 1.5.7 1.5.7s1.1-.6.8-1.4c-.4-.8 1-3.8 1-3.8s.7-2 .2-3.6c-.4-1.6 2-7.3 2-7.3 0-1 0-2-.3-2.9-.4-1.4 3-4.3 3-4.3s3.4-16.2 10.5-10.9c7 5.4 6 12.6 6 12.6z"/><path fill="#000" d="M303.4 114c0 .5 1.8 2.8 1.2 3.2-.7.3-1.7.1-.8 1.4 1 1.2 1 3.2.3 3-.6-.3-1.7-3.2-1.7-4.3 0-1.1 1-3.3 1-3.3zM327 112.7s.5 5.5 4.4 7.1c4 1.6-4.4-7.1-4.4-7.1zM335.2 110.8c.2 0 5.5 3 3.1 4.6-2.3 1.7-3.1-4.6-3.1-4.6zM335.5 106.8s7.8 1.6 5.1 3c-2.6 1.3-5.1-3-5.1-3z" opacity=".1"/><g fill="#000" opacity=".1"><path d="M322 40c.3-1 1.2-2 2.3-2.2 1.7-.3 3.1 1.2 4.1 2.6l2.9 4.5c.2.5.7 2 1.1 2.3.6.3 1-.6 1.2-1.1 1.2-2.8 1-5.9 1.5-8.8.3-1.7.9-3.4 1-5.1.2 2-.6 4.2-1 6.4-.5 2.9-.3 6-1.5 8.8-.3.5-.6 1.4-1.2 1-.4-.2-.9-1.7-1.1-2.2-.8-1.5-1.8-3-2.8-4.5-1-1.4-2.4-2.8-4.1-2.6-1.2.2-2 1.2-2.4 2.3l-.3 1.8c-.2-1.1 0-2.2.2-3.1zM297 32.5a4 4 0 0 0 1.2 1.9c1.4 1.2 3.7 0 5.5.7l1 .5c1.2.3 2.3-.4 3.3-1 1-.7 2.3-1 3.2-.3 1.1 1 .3 3.2 1.5 4.2.7.6 1.9.4 2.7.9.8.4 1 1.6 1.2 2.6.2.9.6 2 1.6 2.3 1 .3 1.8-.3 2.7-.3l.6-.1v-.1l.1.9v.4c-.2.2-.4.2-.6.2-1 0-1.9.5-2.8.3-.9-.3-1.3-1.4-1.5-2.4-.2-1-.4-2-1.3-2.6-.8-.6-2-.3-2.7-1-1.1-1-.3-3.1-1.4-4.1-1-.8-2.3-.3-3.3.3s-2 1.3-3.2 1l-1-.5c-1.9-.7-4.1.5-5.6-.7-.5-.5-.9-1.2-1.1-2-.4-.9-.7-1.9-.8-3v-1c0 1 .4 2 .7 2.9z" opacity=".1"/></g><path fill="#35323E" d="M100.6 242.3c0 26.9 15.6 48.6 34.9 48.6 19.2 0 34.8-21.7 34.8-48.6 0-26.8-15.6-48.6-34.8-48.6-19.3 0-34.9 21.8-34.9 48.6zm2.4-.6c0-23.5 13.7-42.6 30.6-42.6 16.9 0 30.7 19 30.7 42.6 0 23.5-13.8 42.5-30.7 42.5-17 0-30.6-19-30.6-42.5z"/><path fill="#464353" d="M131.2 136l2.5 40.9h47.2c4.1 0 8 1.4 11.1 4.2 2.8 2.5 4.5 6 4.8 9.6v61.2h-6v-4.2h-59.6v-6H191l.4-49.2a9.9 9.9 0 0 0-4.4-8c-1.1-.7-2.5-1.1-4-1h-53.5l-3-42.7h-18V136h22.8z"/><path fill="#84858B" d="M131.2 136l2.5 40.9h47.2c4.1 0 8 1.4 11.1 4.2 2.8 2.5 4.5 6 4.8 9.6v61.2h-6v-4.2h-59.6v-6H191l.4-49.2a9.9 9.9 0 0 0-4.4-8c-1.1-.7-2.5-1.1-4-1h-53.5l-3-42.7h-18V136h22.8z"/><path fill="#35323E" d="M129.7 158l-45.3-1.5 2.4 63 108.8 1.2-2.8-25.5-59.1 10-4-47.2z"/><path fill="#464353" d="M148.6 241.7h-60v6h60v-6z"/><path fill="#464353" d="M129.4 237.2v-17.7h4.9v17.7c1.7 1.3 3 4 3 7.2 0 4.5-2.4 8.1-5.5 8.1-3 0-5.4-3.6-5.4-8 0-3.2 1.3-6 3-7.3zM153 252.2c-2-2-5.1-2-7.3-.3 0 0-7.2 4.8-.6 25.2 0 0 4.8 3 2.4-6.5-2.4-9.6-1.2-15.7 1.2-15.7s5.5 6.6 5.5 6.6l4.2-1.8c-.1 0-2-4.4-5.3-7.5zM198.1 252.2c-2-2-5.2-2-7.3-.3 0 0-7.2 4.8-.6 25.2 0 0 4.8 3 2.4-6.5-2.4-9.6-1.2-15.7 1.2-15.7s5.4 6.6 5.4 6.6l4.2-1.8s-2-4.4-5.3-7.5z"/><path fill="#35323E" d="M197.7 293.4c7.4 0 13.5-8.1 13.5-18 0-10-6-18.1-13.5-18.1s-13.6 8-13.6 18 6.1 18 13.6 18zM152.6 293.4c7.4 0 13.5-8.1 13.5-18 0-10-6-18.1-13.5-18.1s-13.6 8-13.6 18 6.1 18 13.6 18z"/><path fill="url(#paint1_linear)" d="M233.2 274.1a8.1 8.1 0 0 0-4.7-2.4c-2.7 0-13.3-12.6-14-14.4-.3-.6-.7-.4-1.2.1-.8-2-2-4.9-2.2-7l1.8-.5s.1-4-.8-4.4c-1-.6-1-9-1-9s-2.3-7.4-2-10c.2-2.7-5.7-23-5.7-23S202 191.3 199 190c-2.3-1-22.5-6.8-28.7-8.6-.1-.3-1-2.2-4.2-2.2-3.4 0-13.6.1-17-3.8-.4-.5-.8-1-1-1.7 1.7-3 1.8-8.1 1.2-9.3-.9-1.7-1.4-5-1.4-5s-.5-8.1-1-10.2c-.6-2.1-3-19.3-3-19.3s-4.8-4.6-8.2-5.6c-1.5-.5-2.9-1.2-4.1-2.2l.1-.7a12.7 12.7 0 0 0 4.6-9.5v-.2-.1l.2-.6c.5-.6 1.5-.8 2.3-1.2l.4-.1v-.1l.3-.2h.1l.2-.2.1-.1.2-.2.1-.1.1-.2.1-.2.1-.2v-.1l.2-.2v-.2l.1-.1.1-.3.1-.3c.2-.8.3-1.6.2-2.3v-.6c-.2-1.3-.7-2.6-.5-3.9v-.3l.1-.4.7-1.5v-.4-.3-.7c-.2-1-.7-2-1.5-2.6a50.3 50.3 0 0 0-16.2-4.9c-1.9 0-4.2-.7-5.6.5-1.7 1.3-2.8 2.2-4.9 3.1-1.5.7-3 1.6-3.4 3.2l-.1 2c0 1.4-.7 2.7-1.2 4-.2.7-.4 1.6-.3 2.4v.3a3.2 3.2 0 0 0 .3.7v.2l.1.1.2.3.9 1c.3.5.4 1.2.4 1.8l.2 2v1c0 .7 0 1.3.2 2-1.4 1-3 2.4-3.3 3.3-.2.3-.3.6-.3 1-1.3 1-7 .4-7 .4s-4.7 2.5-6.4 1.5c-1.8-1-12 6.9-12 6.9s-2.6.1-2.8 1.2c0 0-3.4 2.6-6 2.6-2.5 0-4 3.2-4 3.2s-4.3 2-5.7 2.2c-1.3.3-3.8 1.7-3 2.3.7.5-.2 1.8-1.5 2.8-1.3 1-3.2 6-1.5 6.7 1.7.7 6.3 2 7.6 2.8.5.2 1 .3 1.6.3.6 0 1.2 0 1.8-.3l.2-.3a13 13 0 0 0 6 2.8c3.2.3 10.3 1.7 13.2 2.2v.6c0 5.2.2 10.6 1.3 12.3 2 3.5 2.4 30.9 2.4 30.9s6.6 1 8.9 3c2.2 2 13 5.7 15.1 1l.7.3a52.5 52.5 0 0 1 13.7 7.3c1.3 2.5 11 6.7 11 6.7s6.5.1 4.6 6c-1.8 6 12.2 20 12.2 20 0 .9.3 1.8.9 2.4.1.3.3.5.6.6a12 12 0 0 0 4.3 1.6c.5 1.2 1 2.2.9 2.4-.1.1.6.7 1.5 1.5.7 1.6 1.5 3 2.4 4.4.3.6.7 1 1.2 1.3 1.4.6 15.8 9.1 18.5 9.4 2.5.3 7.6 1.5 12.1-2l-.7 6-.3 2s7.3 2.8 10.2 2.8c3 0 13 4.8 13 4.8s6.7 1.3 11-1.6c2.4-1.4 1.8-3.5.2-5zm-45.6-64.8c-.7 1.5-.3 4.3 0 4.3.4 0 2 2.3 1.1 4.8a87.5 87.5 0 0 0 8.4 28.5v.2c-.3 1-.9 4.7 3.1 5h.4c.3 2.4.8 6.1 1 9.2-.6-1.8-3-3.7-5.5-5.2-1.8-1-3.7-2-5.7-2.8 0 0-7.9-2-9.6-3.5a53.5 53.5 0 0 0-6.8-4.4l-2.5-2.3v-1l-.7-2.1c-.3-.8-.7-1.5-1.2-1.8-1.1-.7-5-15.1-5-16.8 0-1.7-2.4-9.6-3.2-11a33 33 0 0 1-1.9-5s13 2 25 1c0 0 3.8 1.3 3 2.9zM88 144.7v.2l-.8-.2h.8zm40.8-21.3v.7l-.1-.1-.4-.5.5-.1zm13.8 29.4l-.2-1.3v-.8l.2 2zm-65.5-10l1-.2.7.2 1 .5-2.4-.5h-.3z"/><path fill="#A1616A" d="M161 243.8s2.8 6 2.7 6.3c-.1.4 6.1 5.4 6.1 5.4l6.8-4.8-.7-3.3-8.2-7.7c-.5-.8-6.7 4.1-6.7 4.1z"/><path fill="#67647E" d="M199.8 263.7c-4.8 4.6-10.3 3.2-13 3-2.6-.3-16.7-8.8-18-9.4-.6-.3-1-.7-1.3-1.2a31 31 0 0 1-2.4-4.4c.1 0 4.8 1.3 6 0 0 0 1.9-2.4 2.3-2.4.4 0 0-4.1 0-4.1s5 2.8 6.7 4.3c1.7 1.5 9.4 3.4 9.4 3.4 2 .8 3.8 1.8 5.6 2.9 3.7 2.1 7.3 5.3 4.7 8z"/><path fill="#000" d="M199.8 263.7c-4.8 4.6-10.3 3.2-13 3-2.6-.3-16.7-8.8-18-9.4-.6-.3-1-.7-1.3-1.2 1.7-1 12.4 5.8 15.4 7.1 3 1.2 10.6.6 14.9-1.3 2.1-.9 0-3.6-2.8-6.1 3.8 2.1 7.4 5.3 4.8 8z" opacity=".1"/><path fill="#A1616A" d="M199.2 249.3s2 14.8 1.5 16.8 12.4-6.7 12.4-6.7-4.5-9.3-3.2-11.4c1.3-2.2-10.7 1.3-10.7 1.3z"/><path fill="#4B5F78" d="M211.6 249.6s-8 2.3-12.5 2c-3.9-.2-3.3-4-3.1-4.9v-.2c-2.8-3-9-25.8-8.2-28.3 1-2.5-.6-4.7-1-4.7-.3 0-.8-2.8 0-4.3.6-1.6-3.1-3-3.1-3-11.8 1.1-24.5-.8-24.5-.8s1 3.5 1.8 4.8c.9 1.4 3.2 9.3 3.2 11 0 1.7 3.7 16 4.9 16.7.4.3.8 1 1.2 1.7l.7 2.1c-.4 9.3-11 5.7-12.5 4.5-.9-.8-1.4-2-1.4-3.1 0 0-13.7-14-12-19.8 1.9-5.8-4.4-6-4.4-6s-9.5-4.1-10.9-6.6c-.8-1.6-8-5-13.4-7.3l-6-2.6 2.2-8 1.7-6.4 3.4-1.3 10.7-4 19.1-2.6 1.8.2 18.6 2.4s27.3 7.8 30 9c2.8 1.3 4.3 13.4 4.3 13.4s5.8 20.1 5.6 22.7c-.3 2.7 2 10 2 10s0 8.3.9 8.9c1 .5.9 4.5.9 4.5z"/><path fill="#000" d="M183.7 206.3c-11.8 1-24.5-.9-24.5-.9-.8-2.6-12.5-9.8-12.5-9.8 9.6-2.4 37 10.7 37 10.7z" opacity=".1"/><path fill="#444053" d="M171 241.8c-.4 9.3-11 5.6-12.5 4.4a4 4 0 0 1-.6-.6c3.7 1.4 10.3 2.4 12.4-6l.7 2.2zM211.6 249.6s-8 2.3-12.5 2c-3.9-.2-3.3-4-3.1-4.9 4-.1 11.1-.5 14.7-1.6 1 .5.9 4.5.9 4.5z"/><path fill="#000" d="M171 241.8c-.4 9.3-11 5.6-12.5 4.4a4 4 0 0 1-.6-.6c3.7 1.4 10.3 2.4 12.4-6l.7 2.2zM211.6 249.6s-8 2.3-12.5 2c-3.9-.2-3.3-4-3.1-4.9 4-.1 11.1-.5 14.7-1.6 1 .5.9 4.5.9 4.5z" opacity=".1"/><path fill="#67647E" d="M231.4 278.6c-4.3 2.9-10.8 1.5-10.8 1.5s-9.9-4.8-12.8-4.8c-3 0-10-2.9-10-2.9l.2-2 1.2-9.4s10.8-.2 11.2-1.2c0 0 2-4.8 2.6-3 .7 1.7 11.2 14.2 13.8 14.2 1.2 0 3.3 1 4.7 2.5 1.6 1.5 2.2 3.6 0 5z"/><path fill="#000" d="M194 196.5s-9 5.7-6.4 7c2.5 1.2 6.5-7 6.5-7zM197.8 207.5s-7.8 7.4-4.8 7.6c2.9.2 4.8-7.6 4.8-7.6zM206.2 231s-4 7.4-2.5 8.7c1.5 1.2 2.5-8.7 2.5-8.7zM162.7 238.5c1.4 1.3-13.2-4.6-9.9-5 3.3-.2 9.9 5 9.9 5z" opacity=".1"/><path fill="#A1616A" d="M133.5 134.4h-.4a256.5 256.5 0 0 1-17.6-3.4c-4.3-1.1-7.2-2.4-5.3-3.4a9.8 9.8 0 0 0 4.5-6.4c.4-1 .5-2.1.6-3.2 0 0 15.7-5.5 12.6 0-1.5 2.7-.4 5 1 6.5 1 1 2 2 3.3 2.6l1.3 7.3z"/><path fill="#000" d="M116.7 130.1s5.6 4 11.4.7c5.7-3.4 13.2 29.4 13.2 29.4l7.8 19.2s5 4.2-1.3 6c-6.3 1.8-20.2-1.8-23.7 3.4-3.4 5.3-10.2 6.1-10.9 6.1-.6 0-3.3-19.8-3.3-19.8l-.7-28.8 7.5-16.2z" opacity=".1"/><path fill="#F3F5F9" d="M147.6 184.2c-6.3 1.8-20.2-1.8-23.7 3.5a13.6 13.6 0 0 1-6 4.8c-1.6.7-3.2 1.1-5 1.3l-.3-1c-1-4-3-18.8-3-18.8l-.7-28.8 6.6-14.3 1-2c.8.7 1.8 1.2 2.8 1.5 2.8 1 5.9.7 8.5-.7 1.6-1 3.5 1.1 5.2 4.6 4.2 8.5 8 24.8 8 24.8l7.8 19.2.5.5c1.1 1 3.2 4-1.7 5.4z"/><path fill="#000" d="M117.7 185.2c.3 2.4.4 4.9.2 7.3a82.4 82.4 0 0 1-1.5 11 216 216 0 0 0-6-2.6l2.2-8.1c-1-4-3-18.8-3-18.8l-.7-28.8 6.6-14.3c-4.3-1-7.2-2.3-5.4-3.3 2.7-1.5 4-4.2 4.6-6.4 1.1 1.6 2.5 3 4 4.3l.6 4.9.2 1.5.3 3s-1.5 36.6-2.6 38.6c-1.2 2-.6 6.1.4 10.9v.8z" opacity=".1"/><path fill="#D8D9EC" d="M117 183.8a56 56 0 0 1-1 18.4c-1.1 6-13 2-15.1 0-2.2-2-8.8-3-8.8-3s-.2-27.2-2.3-30.7a35 35 0 0 1-1.2-12.2c0-4.7.2-9.2.3-10.7v-.6s-9-15.3-8.8-16.3c.1-1.1 2.7-1.3 2.7-1.3s10-7.8 11.7-6.8c1.7 1 6.3-1.5 6.3-1.5s5.8.6 7-.5l.2-.5c-.1-1.8 5.9-5.5 6.1-5.7-5.1 4.6 3.1 11.7 4 12.5h.2l1 9.5s-1.5 36.5-2.7 38.5c-1 2-.6 6.2.4 10.9z"/><path fill="#444053" d="M116.5 144.8a.7.7 0 1 0 0-1.4.7.7 0 0 0 0 1.4z"/><path fill="#000" d="M117.9 125.5l-4.2 4-6.2-10.3.2-.5c-.1-1.8 5.9-5.5 6.1-5.7-5.1 4.6 3.1 11.7 4 12.5zM115 167a.7.7 0 1 0 0-1.3.7.7 0 0 0 0 1.3z" opacity=".1"/><path fill="#444053" d="M115 166.8a.7.7 0 1 0 0-1.4.7.7 0 0 0 0 1.4z"/><path fill="#D8D9EC" d="M118.2 125l-4.3 4-6.2-10.3c.2-.2.2-.3.2-.5 0-1.8 6-5.6 6.2-5.7-5.1 4.6 3.1 11.6 4 12.4z"/><path fill="#000" d="M169.5 182.5c-3.5 1.5-26.3-2.5-29.6-3.5-3.3-1-8.2-8.4-5.8-13.8 2.4-5.4-.8-10.7-.8-10.7l-6.1-12.8a92.7 92.7 0 0 1-3.8-9.2c0-.2 0-.4.2-.6 1-1.4 4.4-3.8 4.4-3.8 1 .3 1.1-2.5 1-4.5v-2a29.7 29.7 0 0 0 2.2 1.8 15 15 0 0 0 4.4 2.4c3.3 1 8 5.5 8 5.5l-1.4 21.3s3.2 20 6.6 24c3.3 3.8 13.3 3.7 16.6 3.7 3.4 0 4.1 2.2 4.1 2.2z" opacity=".1"/><path fill="#D8D9EC" d="M169.8 181.7c-3.5 1.5-26.3-2.5-29.6-3.5-3.4-1-8.2-8.5-5.9-13.8 2.4-5.4-.8-10.7-.8-10.7l-6-12.8a92.2 92.2 0 0 1-3.8-9.2c0-.2 0-.4.2-.6.9-1.4 4.4-3.8 4.4-3.8 1 .3 1-2.5 1-4.5v-2.1l1.2 1.1 1 .7a14 14 0 0 0 4.3 2.4c3.3 1 8 5.6 8 5.6l-1.3 21.3s3.2 20 6.5 23.9c3.3 3.9 13.3 3.7 16.7 3.7 3.3 0 4 2.3 4 2.3z"/><path fill="#000" d="M132 121.3l-.4 1.8c-.7 3.9-2.5 12.2-3.8 11.8-.9-.2-2.5-1.8-3.7-3.2.9-1.4 4.4-3.9 4.4-3.9 1 .4 1.1-2.4 1-4.5l1.2-1 1.3-1z" opacity=".1"/><path fill="#D8D9EC" d="M131.7 120.7l-.3 1.9c-.8 3.8-2.6 12.1-3.9 11.8-.9-.2-2.5-1.9-3.7-3.3 1-1.4 4.4-3.8 4.4-3.8 1 .3 1.2-2.5 1.1-4.5l1.1-1 1.3-1z"/><path fill="#AB4E68" d="M131.2 141.9v14l-3.8 7.6-.1.2-9.9-.6-3.8-.2-8.8-.6v-16.9l8.8.2 4 .2 10 .3 3.6-4.2z"/><path fill="#000" d="M131.2 142.8V156l-1 1.8-.9 2-1.9 3.7.2-14v-3l1.8-1.9.9-.8.9-1z" opacity=".1"/><path fill="#AB4E68" d="M131.6 138.2v5l-.4.7-1 1.4-.8 1.3-1.7 2.8-23.6-1.2V143.3l2.9-3 1-1.2 1.8-2 21.8 1z"/><path fill="#000" d="M127.7 144.6v4.8l-23.6-1.2V143.3l23.6 1.3z" opacity=".1"/><path fill="#000" d="M131.6 138.2v5l-4 6.2v-4.8l4-6.4z" opacity=".1"/><path fill="#3F3D56" d="M130.3 140.4v17.4l-1 2 .1-13.2v-5l-22.4-1.3 1-1.2 22.3 1.3z"/><path fill="#3F3D56" d="M119.2 140.6l-1.6 3.5v1.7l-.2 17.3-3.8-.2v-19.1l2-3.2h3.6z"/><path fill="#3F3D56" d="M114 140.8a5 5 0 0 1-2.9.1l-.4-.2-.3-.6-.3-1.5c0-.5.2-1 .6-1.3l.2-.1.2-.4c.2-.8.8-1.7 1.7-1.8.8-.1 1.5.4 2 1l1.4 1c.4-1 1.7-1.6 2.7-1.2.6.3 1 .7 1.2 1.2.9-.9 1.9-1.6 3-2 .3-.1.5-.1.8 0l.3.4c.3.8.5 1.7.5 2.5.2 0 .5 0 .6.2l.1.6v.9c.1.3 0 .6-.2.9-.3.2-.7.4-1.1.3.1.2 0 .5-.1.7l-.9.2c-1 0-2.1 0-3-.6l-1-.8c-.8-.5-1.9-.6-2.8-.5-.8 0-1.5.8-2.3 1z"/><path fill="#3F3D56" d="M113.8 140.6s-8.7 1.2-10 6.5l1.9-.3 1.3 2.3s1.3-5.1 5.3-6.3l5.4-1.5s2.7.7 5.2 8.7l1.5-1.9 2.5.5s-1.9-6.3-6.8-8h-6.3z"/><path fill="#A1616A" d="M140.6 161.6s-7-1.4-8.9-4.4c-2-3-15.1-5.7-13.5-2.5 1.5 3.2 13.5 13.6 13.5 13.6l5.2 7.4 6.9-1.7 3-5.7-6.2-6.7z"/><path fill="#000" d="M124.2 169.5s6.7 2.5 7.7 5.8-7.7-5.8-7.7-5.8zM120 173.4s-.6 3.5 7.9 3.2l-7.9-3.2zM83.6 129l-3-.3s-3.3 2.5-5.9 2.5c-2.5 0-4 3.2-4 3.2s-4.2 2-5.6 2.3c-1.4.3-3.7 1.6-3 2.2.7.5-.2 1.8-1.4 2.8-1.3 1-3.2 6-1.6 6.7 1.7.6 6.3 2 7.5 2.8 1.3.7 2.8 0 2.8 0s7.4-9.6 11.1-7.8a24 24 0 0 0 8.9 1.8l4-8.5-9.8-7.7z" opacity=".1"/><path fill="#D8D9EC" d="M147.6 174.6c-.6 1-1.5 1.6-2.6 1.9-2.7.3-5.5 0-8.1-.8 0 0 14-4.4.5-15.2h3.6l1.2-.5-.5-2.9-.8-25.9 3-.7s2.3 17.1 2.9 19.2c.5 2 1 10.1 1 10.1s.5 3.3 1.3 5c.6 1.2.5 6.9-1.5 9.8z"/><path fill="#000" d="M147 174.6c-.5 1-1.5 1.6-2.6 1.9-2.7.3-5.4 0-8-.8 0 0 14-4.4.4-15.2h3.7l1.2-.5c2 3.5 5 9.7 5.3 14.6z" opacity=".1"/><path fill="#D8D9EC" d="M147.6 174.6c-.6 1-1.5 1.6-2.6 1.9-2.7.3-5.5 0-8.1-.8 0 0 14-4.4.5-15.2h3.6l1.2-.5c2 3.5 5.1 9.7 5.4 14.6z"/><path fill="#000" d="M128.9 124.5a12.6 12.6 0 0 1-14.3-2.7l.1-.6c.4-1 .5-2.1.6-3.2 0 0 15.7-5.6 12.6 0-1.4 2.7-.4 5 1 6.5z" opacity=".1"/><path fill="#A1616A" d="M136.3 112.5v.1l-.1 1.2c0 .4 0 .8-.2 1.1a12.7 12.7 0 0 1-24.4 1.7l-.2-.8c-.3-1-.4-2.2-.4-3.3v-.9c.5-7 6.5-12.2 13.5-11.7 6.7.4 11.8 6 11.8 12.6z"/><path fill="#000" d="M136.3 112.6l-.1 1.2v.7l-.2.4c-.5 1.2-2.2 2-3.2 1.2-.5-.3-.8-.7-1-1.3-1.2-2.1-2.8-4.6-5.4-4.7-1 0-2 .5-3.2.7-1 .3-2.2.3-3-.4-.7-.6-1-1.5-1.7-1.7-.8-.1-1.6.6-2 1.3-.4.8-.6 1.6-1.4 2l-1 .3c-1.6.9-.9 3.8-2.5 4.3l-.1-.8-.5-4.2c.5-7 6.5-12.2 13.5-11.7 6.7.5 11.8 6 11.8 12.6v.1z" opacity=".1"/><path fill="#464353" d="M113.8 93.6c-1.4.7-3 1.6-3.3 3.1l-.1 2c0 1.4-.7 2.7-1.1 4-.4 1.3-.6 2.8.2 4l.9 1c.3.5.5 1.2.5 1.8l.7 6.8c1.7-.3 1-3.4 2.5-4.2l1-.4c.8-.3 1.1-1.2 1.5-1.9.4-.7 1.1-1.5 2-1.3.8.2 1 1.1 1.6 1.7.8.7 2 .7 3.1.4 1.1-.2 2-.7 3.2-.7 2.6 0 4.2 2.6 5.3 4.7.3.5.6 1 1 1.3 1.3.9 3.2-.2 3.4-1.7.2-.8 0-1.7.4-2.4.5-.7 1.5-.8 2.3-1.2 2-1 2.6-3.4 2.3-5.6-.3-1.5-.9-3-.3-4.5l.6-1.5c.4-1.4-.3-3-1.4-4a48 48 0 0 0-16-4.8c-1.7-.1-4-.7-5.4.4-1.8 1.2-2.8 2.2-4.9 3z"/><path fill="#000" d="M117.2 133.9a.7.7 0 1 0 0-1.4.7.7 0 0 0 0 1.4z" opacity=".1"/><path fill="#444053" d="M117.2 133.6a.7.7 0 1 0 0-1.4.7.7 0 0 0 0 1.4z"/><path fill="#000" d="M112.7 177.4a.7.7 0 1 0 0-1.3.7.7 0 0 0 0 1.3z" opacity=".1"/><path fill="#444053" d="M112.7 177.2a.7.7 0 1 0 0-1.4.7.7 0 0 0 0 1.4z"/><path fill="#000" d="M115 189a.7.7 0 1 0 0-1.4.7.7 0 0 0 0 1.4z" opacity=".1"/><path fill="#444053" d="M115 188.7a.7.7 0 1 0 0-1.4.7.7 0 0 0 0 1.4z"/><path fill="#000" d="M139 144.2s1.4 10.4 0 12.2c-1.6 1.8 0-12.2 0-12.2zM93.5 163.4s-3 6.3 0 12.3c3 6 4.8 8.5 3.8 12.3-1 3.9-3.8-24.6-3.8-24.6zM231.4 278.6c-4.3 2.9-10.8 1.5-10.8 1.5s-9.9-4.8-12.8-4.8c-3 0-10-2.9-10-2.9l.2-2c2.9.6 9.4 1.9 10.2 2.5 1 .8 12.9 4.9 12.9 4.9s8.1-1 10.4-4.4c1.6 1.6 2.2 3.7 0 5.2z" opacity=".1"/><g fill="#000" opacity=".1"><path d="M138.8 109.5c-.8.3-1.8.5-2.3 1.2-.4.7-.2 1.6-.3 2.4-.2 1.4-2.2 2.5-3.4 1.7-.4-.4-.8-.8-1-1.3-1.2-2.2-2.8-4.7-5.3-4.7-1.1 0-2.1.4-3.2.7-1.1.2-2.3.3-3.1-.5-.6-.5-1-1.5-1.7-1.6-.8-.2-1.6.5-2 1.2-.3.8-.6 1.6-1.4 2l-1 .4c-1.6.8-.8 3.9-2.6 4.2l-.7-6.9a4 4 0 0 0-.4-1.8l-1-1a3 3 0 0 1-.5-1.5c0 1 0 1.8.6 2.6l.9 1c.3.6.4 1.2.4 1.9l.7 6.8c1.8-.3 1-3.4 2.6-4.2l1-.4c.8-.4 1-1.3 1.5-2 .3-.6 1-1.4 1.9-1.2.8.1 1 1 1.7 1.6.8.8 2 .7 3 .5 1.2-.3 2.1-.8 3.3-.7 2.5 0 4.1 2.5 5.3 4.7.2.5.6 1 1 1.3 1.2.8 3.2-.2 3.4-1.7.1-.8-.1-1.7.3-2.4.5-.7 1.6-.9 2.3-1.2 1.9-.9 2.6-3 2.4-5-.1 1.6-.9 3.2-2.4 3.9zM141.4 97.8l-.6 1.5c-.2.6-.2 1.2-.2 1.8l.2-.7.7-1.5v-1.4.3z" opacity=".1"/></g><path fill="#000" d="M100.6 159.5c-3.2-.7-10.7-3-10.7-3l-1.3-.2c0-4.6.2-9.1.3-10.7 0 0 6.4 2 8 3.2 1.5 1.1 6.2.8 6.2.8s7.4.4 13.5 7.2-12.8 3.4-16 2.7z" opacity=".1"/><path fill="#A1616A" d="M69.4 147.1c-1 .4-1.3 1.5-1 2.5l.6.7a14 14 0 0 0 6.5 3.3c3.9.3 13.4 2.2 14.3 2.5h.1c.8.2 7.7 2.2 10.7 2.9 3.2.7 22 4.2 16-2.6a22 22 0 0 0-13.4-7.3h-.3c-.7 0-4.7.2-6.1-.8-.7-.5-1.5-.8-2.3-1.1-3-1.3-6.2-2.2-9.4-2.8l-6.5-1a2 2 0 0 0-1.1 0l-8.1 3.7z"/><path fill="#D8D9EC" d="M83 129l-3-.3s-3.3 2.5-5.8 2.5c-2.6 0-4 3.2-4 3.2s-4.3 2-5.6 2.3c-1.4.3-3.8 1.6-3 2.2.6.5-.2 1.8-1.5 2.8-1.2 1-3.2 6-1.5 6.7 1.6.6 6.2 2 7.5 2.8 1.2.7 2.7 0 2.7 0s7.4-9.6 11.1-7.8c3.8 1.8 9 1.8 9 1.8l4-8.5-9.8-7.7z"/><path fill="#84858B" d="M89.8 179.9v36h57.6v6h-57v25.8h-6V180h5.4z"/><path fill="#464353" d="M63.4 136h22.8l2.4 40.9h47.3c4 0 8 1.4 11 4.2 2.8 2.5 4.5 6 4.9 9.6v61.2h-6l.6-59.3a9.9 9.9 0 0 0-4.4-8c-1.2-.8-2.6-1.2-4-1.1H84.4l-3-42.7h-18v-4.7z"/><path fill="#35323E" d="M55.5 242.3c0 26.9 15.6 48.6 34.9 48.6 19.2 0 34.8-21.7 34.8-48.6 0-26.8-15.6-48.6-34.8-48.6-19.3 0-34.9 21.8-34.9 48.6zm2.4-.6c0-23.5 13.8-42.6 30.7-42.6 16.8 0 30.6 19 30.6 42.6 0 23.5-13.7 42.5-30.6 42.5-17 0-30.7-19-30.7-42.5z"/><path fill="#35323E" d="M86.8 252c3 0 5.4-3.7 5.4-8.2 0-4.4-2.4-8-5.4-8-3 0-5.4 3.6-5.4 8 0 4.5 2.4 8.1 5.4 8.1z"/><path fill="#464353" d="M85.6 246.5c.7 0 1.2-1 1.2-2.4 0-1.3-.5-2.4-1.2-2.4s-1.2 1.1-1.2 2.4c0 1.4.5 2.4 1.2 2.4zM150.5 232.1v6.6c1.9-1.1 4-.8 5.8 0 2.9 1.3 5.1 3.8 6 7L169 270c3.6 13.1 10.2 10.1 10.2 10.1l46 3.3 19.5-9.9v-6h-49.2l-16.3 6c-4.8 1.8-3-1.8-9.3-24.4-6.4-22.6-19.5-17-19.5-17z"/><path fill="#000" d="M179.3 280.1l46 3.4 19.5-10-48-.5-17.5 7.1z" opacity=".1"/><path fill="#3AB795" d="M441.6 278.2c14.1 0 25.6-2.2 25.6-5 0-2.6-11.5-4.8-25.6-4.8-14.2 0-25.7 2.2-25.7 4.9s11.5 4.9 25.7 4.9z"/><path fill="#3F3D56" d="M441.1 275c1.7 0 3-1.7 3-3.8 0-2.2-1.3-4-3-4-1.6 0-3 1.8-3 4 0 2.1 1.4 3.9 3 3.9z"/><path fill="#3F3D56" d="M441.1 270.3c1.7 0 3-1.7 3-3.9 0-2.1-1.3-3.9-3-3.9-1.6 0-3 1.8-3 4 0 2 1.4 3.8 3 3.8z"/><path fill="#3F3D56" d="M441.1 265.6c1.7 0 3-1.8 3-4 0-2.1-1.3-3.9-3-3.9-1.6 0-3 1.8-3 4 0 2.1 1.4 3.9 3 3.9z"/><path fill="#3F3D56" d="M441.1 260.8c1.7 0 3-1.8 3-4 0-2-1.3-3.8-3-3.8-1.6 0-3 1.7-3 3.9 0 2.1 1.4 3.9 3 3.9z"/><path fill="#3F3D56" d="M441.1 256c1.7 0 3-1.7 3-4 0-2-1.3-3.8-3-3.8-1.6 0-3 1.7-3 3.9s1.4 4 3 4z"/><path fill="#3F3D56" d="M441.1 251.3c1.7 0 3-1.8 3-4 0-2.1-1.3-3.9-3-3.9-1.6 0-3 1.8-3 4 0 2.1 1.4 3.9 3 3.9z"/><path fill="#3F3D56" d="M441.1 246.5c1.7 0 3-1.8 3-4 0-2-1.3-3.8-3-3.8-1.6 0-3 1.7-3 3.9 0 2.1 1.4 3.9 3 3.9z"/><path fill="#3AB795" d="M452.3 210l1.1-1.7-7.8-1.3h8.4c1.7-3.5 1.8-7.6.3-11.2l-11.4 5.9 10.5-7.7a14.3 14.3 0 1 0-23.6 16c-.7.7-1.2 1.6-1.6 2.5l10.1 5.3-10.8-3.6c-1.6 4.5-.7 9.6 2.3 13.4a14.3 14.3 0 1 0 22.4 0c4.1-5.2 4.1-12.5 0-17.6z"/><path fill="#000" d="M426.8 218.8c0 3.2 1 6.3 3 8.8a14.3 14.3 0 1 0 22.5 0c2-2.4-25.5-10.4-25.5-8.8z" opacity=".1"/><path fill="#3AB795" d="M40.1 277.7c9.7 0 17.6-1.5 17.6-3.4 0-1.8-7.9-3.4-17.6-3.4-9.7 0-17.6 1.6-17.6 3.4 0 2 7.9 3.4 17.6 3.4z"/><path fill="#3F3D56" d="M39.8 275.5c1.1 0 2-1.1 2-2.6s-.9-2.7-2-2.7-2 1.2-2 2.7c0 1.5.9 2.6 2 2.6z"/><path fill="#3F3D56" d="M39.8 272.3c1.1 0 2-1.2 2-2.7 0-1.5-.9-2.7-2-2.7s-2 1.2-2 2.7c0 1.5.9 2.7 2 2.7z"/><path fill="#3F3D56" d="M39.8 269c1.1 0 2-1.2 2-2.7 0-1.4-.9-2.6-2-2.6s-2 1.2-2 2.6c0 1.5.9 2.7 2 2.7z"/><path fill="#3F3D56" d="M39.8 265.7c1.1 0 2-1.2 2-2.6 0-1.5-.9-2.7-2-2.7s-2 1.2-2 2.7c0 1.4.9 2.6 2 2.6z"/><path fill="#3F3D56" d="M39.8 262.4c1.1 0 2-1.2 2-2.6 0-1.5-.9-2.7-2-2.7s-2 1.2-2 2.7c0 1.4.9 2.6 2 2.6z"/><path fill="#3F3D56" d="M39.8 259.2c1.1 0 2-1.2 2-2.7 0-1.5-.9-2.7-2-2.7s-2 1.2-2 2.7c0 1.5.9 2.7 2 2.7z"/><path fill="#3F3D56" d="M39.8 255.9c1.1 0 2-1.2 2-2.7 0-1.5-.9-2.7-2-2.7s-2 1.2-2 2.7c0 1.5.9 2.7 2 2.7z"/><path fill="#3AB795" d="M47.5 230.8l.7-1.2-5.3-.8h5.8a9.8 9.8 0 0 0 .1-7.8l-7.8 4 7.2-5.2a9.8 9.8 0 0 0-17 9.8l.8 1.2c-.5.5-.9 1.1-1.2 1.8l7.1 3.6-7.4-2.5A9.8 9.8 0 0 0 32 243a9.8 9.8 0 1 0 15.5 0 9.8 9.8 0 0 0 0-12.1z"/><path fill="#000" d="M30 236.9c0 2.2.7 4.3 2 6a9.8 9.8 0 1 0 15.5 0c1.3-1.6-17.6-7.2-17.6-6z" opacity=".1"/><path fill="#3AB795" d="M262 266.3c7 0 12.8-1.1 12.8-2.5s-5.8-2.5-12.9-2.5c-7 0-12.8 1.1-12.8 2.5s5.7 2.5 12.8 2.5z"/><path fill="#3F3D56" d="M261.7 264.7c.9 0 1.5-.9 1.5-2 0-1-.6-2-1.5-2-.8 0-1.5 1-1.5 2 0 1.1.7 2 1.5 2z"/><path fill="#3F3D56" d="M261.7 262.3c.9 0 1.5-.9 1.5-2 0-1-.6-2-1.5-2-.8 0-1.5 1-1.5 2 0 1.1.7 2 1.5 2z"/><path fill="#3F3D56" d="M261.7 260c.9 0 1.5-1 1.5-2 0-1.1-.6-2-1.5-2-.8 0-1.5.9-1.5 2 0 1 .7 2 1.5 2z"/><path fill="#3F3D56" d="M261.7 257.5c.9 0 1.5-.9 1.5-2 0-1-.6-2-1.5-2-.8 0-1.5 1-1.5 2 0 1.1.7 2 1.5 2z"/><path fill="#3F3D56" d="M261.7 255.1c.9 0 1.5-.9 1.5-2 0-1-.6-2-1.5-2-.8 0-1.5 1-1.5 2 0 1.1.7 2 1.5 2z"/><path fill="#3F3D56" d="M261.7 252.7c.9 0 1.5-.8 1.5-2 0-1-.6-2-1.5-2-.8 0-1.5 1-1.5 2 0 1.2.7 2 1.5 2z"/><path fill="#3F3D56" d="M261.7 250.3c.9 0 1.5-.9 1.5-2 0-1-.6-2-1.5-2-.8 0-1.5 1-1.5 2 0 1.1.7 2 1.5 2z"/><path fill="#3AB795" d="M267.3 232l.6-.9-4-.6h4.3a7.3 7.3 0 0 0 .1-5.6l-5.7 3 5.2-4a7.2 7.2 0 0 0-12.4 7.3l.5.8-.8 1.2 5.2 2.7-5.5-1.8a7.2 7.2 0 0 0 1.1 6.8 7.2 7.2 0 1 0 11.3 0 7 7 0 0 0 .1-9z"/><path fill="#000" d="M254.5 236.4c0 1.6.5 3.2 1.5 4.4a7.2 7.2 0 1 0 11.3 0c1-1.2-12.8-5.2-12.8-4.4z" opacity=".1"/><path fill="#3AB795" d="M201.5 46.9a6.6 6.6 0 1 0 0-13.2 6.6 6.6 0 0 0 0 13.2zM235.9 13.3a11 11 0 1 0-21.6-4.6 11 11 0 0 0 21.6 4.6zM221.3 66.4a11 11 0 1 0-21.7-3.8 11 11 0 0 0 21.7 3.8zM415 116.2a6.6 6.6 0 1 0 0-13.2 6.6 6.6 0 0 0 0 13.2zM391.5 91.3a11 11 0 1 0 0-22 11 11 0 0 0 0 22zM406 144.7a11 11 0 1 0 0-22 11 11 0 0 0 0 22zM43.2 125.2a3.7 3.7 0 1 0 0-7.4 3.7 3.7 0 0 0 0 7.4zM59.2 113.6a6.2 6.2 0 1 0 0-12.5 6.2 6.2 0 0 0 0 12.5zM29.2 123.3a6.2 6.2 0 1 0 0-12.5 6.2 6.2 0 0 0 0 12.5zM93 67a15.6 15.6 0 1 0 .1-31.3 15.6 15.6 0 0 0 0 31.2zM183.1 139.5a9 9 0 1 0 0-18 9 9 0 0 0 0 18zM249.4 182.5a9 9 0 1 0 0-18 9 9 0 0 0 0 18z" opacity=".1"/></g><defs><linearGradient id="paint0_linear" x1="296.6" x2="296.6" y1="290.2" y2="16.6" gradientUnits="userSpaceOnUse"><stop stop-color="gray" stop-opacity=".3"/><stop offset=".5" stop-color="gray" stop-opacity=".1"/><stop offset="1" stop-color="gray" stop-opacity=".1"/></linearGradient><linearGradient id="paint1_linear" x1="145.5" x2="145.5" y1="281" y2="89.1" gradientUnits="userSpaceOnUse"><stop stop-color="gray" stop-opacity=".3"/><stop offset=".5" stop-color="gray" stop-opacity=".1"/><stop offset="1" stop-color="gray" stop-opacity=".1"/></linearGradient><clipPath id="clip0"><path fill="#fff" d="M0 0h482v315H0z"/></clipPath></defs></svg>