<svg xmlns="http://www.w3.org/2000/svg" width="536" height="303" fill="none"><path fill="#3AB795" d="M268 303c148 0 268-7.5 268-16.8s-120-16.9-268-16.9S0 277 0 286.2c0 9.3 120 16.8 268 16.8z" opacity=".1"/><path fill="#EDEDEE" d="M253.8 280.6l-91-1.2.2-2.4 4.4-38.4h80l5.8 38.4.5 3v.6z"/><path fill="#000" d="M253.7 280h-45.4l-45.5-.6.2-2.4h90.2l.5 3z" opacity=".1"/><path fill="#D0D2D5" d="M268.4 277.6H147.6v3h120.8v-3z"/><path fill="#3E4049" d="M383.5 7.6c0-4.2-3.4-7.6-7.6-7.6H39a7.6 7.6 0 0 0-7.6 7.6v204.2h352.2V7.6z"/><path fill="#EDEDEE" d="M31.3 209.8v23.9c0 4.2 3.4 7.5 7.5 7.5H376c4.2 0 7.6-3.3 7.6-7.5v-24H31.3z"/><path fill="#fff" d="M370.7 12.8H45.9v183.5h324.8V12.8z"/><path fill="#3AB795" d="M209.1 232.1c2.4 0 4.7-1 6.2-3l.6-.9-4.3-.7h4.6c1-2 1-4.2.2-6.2l-6.3 3.2 5.8-4.2a7.9 7.9 0 1 0-13.6 8l.6.8c1.5 2 3.8 3 6.2 3z"/><path fill="#000" d="M217 241.2l36.3 36.4-5.6-36.4H217z" opacity=".1"/><path fill="#3AB795" d="M324.1 107.7v-.1c-.1-2.6-.6-5-1.4-7.5l-.1-.4a28.4 28.4 0 0 0-48-9.7c-.5-2.7-1.2-5.3-2.3-7.9-7.4 1-15 1.3-22.4.8 4.6 2.2 9.3 3.9 14.2 5.2l-.1.7a89.4 89.4 0 0 1-16-6l-1.5-.8 1.7.1c8 .5 16 .3 24-.7-1.8-4-4.1-7.8-7.1-11.2-12.9-1.2-25.6-4-37.5-9.3l.2-.6c11.6 5.2 24 7.9 36.6 9.2a40.1 40.1 0 0 0-63.8 6.8 55.6 55.6 0 0 0-13.7-31 126.9 126.9 0 0 1-54.3 9c4.6 2.2 9.4 3.9 14.3 5.2l-.2.6a89.4 89.4 0 0 1-16-6l-1.4-.7 1.7.1c18.9 1.2 37.8-1.7 55.4-8.8l-2-2.1c-22 .5-46 .2-67.6-7.7a55.2 55.2 0 0 0-26.2 47c0 10.4 2.8 24.7 7.8 39a162 162 0 0 0 12.6 27.7c2 3.5 4.3 6.8 6.7 10l1.3 1.7a61.1 61.1 0 0 0 10.3 10.2 36 36 0 0 0 5.4 3.3c3 1.6 6.5 2.5 10 2.7h.9v.1h150.2c.8 0 1.7-.2 2.5-.5 5.3-1.9 10.2-9.4 14.3-19a99.9 99.9 0 0 0 4.6-12.7 177 177 0 0 0 4.7-18.5 96.5 96.5 0 0 0 2.2-18.2z" opacity=".1"/><path fill="#3AB795" d="M183.7 42a55 55 0 0 0-66.1-7.4c21.1 7.6 44.6 7.9 66.1 7.5zM306.6 165.3l-23.1-40.1a.7.7 0 0 0-1-.3c-.2 0-.3.2-.3.3l-23.1 40c-.2.4-.1.9.2 1l.4.2h6.9c.4 0 .7.3.7.7v8.6c0 .4.3.7.8.7h9c.4 0 .8-.3.8-.7v-4.2c0-.4.3-.7.7-.7h8.5c.5 0 .8.3.8.7v4.2c0 .4.3.7.8.7h9c.2 0 .5-.2.6-.5V167.1c0-.4.4-.7.8-.7h7c.3 0 .7-.3.7-.7 0-.2 0-.3-.2-.4zm-32.2 4.4c-.2.2-.3.2-.5.2h-3.3c-.4 0-.8-.3-.8-.7 0-.4.4-.7.8-.8h3.3c.4 0 .7.3.7.8l-.2.5zm21.2 0c-.1.2-.3.2-.5.2h-3.3c-.4 0-.7-.3-.7-.8l.2-.5.5-.2h3.3c.4 0 .8.3.8.8 0 .2-.1.4-.3.5zM163.5 165.6l-23.2-40a.7.7 0 0 0-1-.3l-.2.2-20 34.7c2.4 3.1 5.3 6 8.3 8.6h3.3c.4 0 .7.3.7.8 0 .4-.3.7-.7.7h-1.4c1.7 1.3 3.5 2.4 5.4 3.3V172c0-.4.3-.7.7-.7h8.6c.4 0 .7.3.7.7V176.3c.1.3.4.4.7.4h9c.3 0 .5 0 .6-.3l.1-.4v-8.5c0-.4.3-.8.7-.8h7c.4 0 .8-.3.8-.7v-.4zm-15.3 3.4l.5-.2h3.3c.4 0 .7.3.7.8 0 .4-.3.7-.7.7h-3.2c-.5 0-.8-.3-.8-.7 0-.2 0-.4.2-.6zm-14.6-14.8a.7.7 0 0 1-.7-.7v-5.6c0-.4.3-.7.7-.7h12.1c.4 0 .8.3.8.7v5.6c0 .4-.4.8-.8.8h-12v-.1zM255 93.7h-28.7v-6.2c0-.8-.6-1.5-1.4-1.5h-8.5v-6.6c0-.5-.4-.9-.9-.9h-10.8a1 1 0 0 0-1 1V86H194c-.8 0-1.5.7-1.5 1.5v6.2h-27.3c-.2 0-.3 0-.3.3v82.2c0 .1 0 .3.3.3h18.2c.1 0 .3-.1.3-.3v-11c0-.2.1-.4.3-.4h7.6c.2 0 .3.2.3.3v11c0 .2.1.4.3.4h36l.2-.3v-11c0-.2.2-.4.3-.4h7.7c.2 0 .3.2.3.3v11c0 .2.2.4.3.4h18.2l.3-.3V94c0-.2-.2-.3-.4-.3zM180.3 161c0 .1-.1.3-.3.3h-11.2c-.2 0-.3-.1-.3-.3v-3.8c0-.2.1-.3.3-.3H180c.1 0 .3.1.3.3v3.8zm0-10c0 .2-.2.4-.3.4h-11.2a.3.3 0 0 1-.3-.3v-3.8c0-.2.1-.3.3-.3H180c.1 0 .3.1.3.3v3.8zm0-9.8c0 .1-.1.3-.3.3h-11.2c-.2 0-.3-.1-.3-.3v-3.8c0-.2 0-.3.3-.3H180c.1 0 .3 0 .3.3v3.8zm0-9.9c0 .2-.1.3-.3.3h-11.2c-.2 0-.3-.1-.3-.3v-3.8c0-.2 0-.3.3-.3H180c.1 0 .3 0 .3.3v3.8zm0-9.9c0 .2-.2.3-.3.3h-11.2a.3.3 0 0 1-.3-.3v-3.8c0-.2.1-.3.3-.3H180c.1 0 .3.1.3.3v3.8zm0-9.9c0 .2-.1.3-.3.3h-11.2c-.2 0-.3 0-.3-.3v-3.8c0-.2 0-.3.3-.3H180c.1 0 .3 0 .3.3v3.8zm0-9.9c0 .2-.1.3-.3.3h-11.2c-.2 0-.3 0-.3-.3v-3.8c0-.2 0-.3.3-.3H180c.1 0 .3 0 .3.3v3.8zm26.6 59.4c0 .1-.1.3-.3.3h-11.2c-.2 0-.3-.1-.3-.3v-3.8c0-.2.1-.3.3-.3h11.2c.1 0 .3.1.3.3v3.8zm0-10c0 .2-.2.4-.3.4h-11.2a.3.3 0 0 1-.3-.3v-3.8c0-.2.1-.3.3-.3h11.2c.1 0 .3.1.3.3v3.8zm0-9.8c0 .1-.1.3-.3.3h-11.2c-.2 0-.3-.1-.3-.3v-3.8c0-.2 0-.3.3-.3h11.2c.1 0 .3 0 .3.3v3.8zm0-9.9c0 .2-.1.3-.3.3h-11.2c-.2 0-.3-.1-.3-.3v-3.8c0-.2 0-.3.3-.3h11.2c.1 0 .3 0 .3.3v3.8zm0-9.9c0 .2-.2.3-.3.3h-11.2a.3.3 0 0 1-.3-.3v-3.8c0-.2.1-.3.3-.3h11.2c.1 0 .3.1.3.3v3.8zm0-9.9c0 .2-.1.3-.3.3h-11.2c-.2 0-.3 0-.3-.3v-3.8c0-.2 0-.3.3-.3h11.2c.1 0 .3 0 .3.3v3.8zm0-9.9c0 .2-.1.3-.3.3h-11.2c-.2 0-.3 0-.3-.3v-3.8c0-.2 0-.3.3-.3h11.2c.1 0 .3 0 .3.3v3.8zm18.2 59.4l-.3.3h-11.3a.3.3 0 0 1-.3-.3v-3.8c0-.2.2-.3.3-.3h11.3c.1 0 .3.1.3.3v3.8zm0-10c0 .2-.2.4-.3.4h-11.3a.3.3 0 0 1-.3-.3v-3.8c0-.2.2-.3.3-.3h11.3c.1 0 .3.1.3.3v3.8zm0-9.8l-.3.3h-11.3a.3.3 0 0 1-.3-.3v-3.8c0-.2.2-.3.3-.3h11.3c.1 0 .3.1.3.3v3.8zm0-9.9c0 .2-.2.3-.3.3h-11.3a.3.3 0 0 1-.3-.3v-3.8c0-.2.2-.3.3-.3h11.3c.1 0 .3.1.3.3v3.8zm0-9.9c0 .2-.2.3-.3.3h-11.3a.3.3 0 0 1-.3-.3v-3.8c0-.2.2-.3.3-.3h11.3c.1 0 .3.1.3.3v3.8zm0-9.9c0 .2-.2.3-.3.3h-11.3a.3.3 0 0 1-.3-.3v-3.8c0-.2.2-.3.3-.3h11.3c.1 0 .3.1.3.3v3.8zm0-9.9c0 .2-.2.3-.3.3h-11.3a.3.3 0 0 1-.3-.3v-3.8c0-.2.2-.3.3-.3h11.3c.1 0 .3.1.3.3v3.8zm26.6 59.3c0 .2-.2.3-.3.3H240c-.1 0-.3 0-.3-.3v-3.8l.3-.3h11.3l.3.3v3.8zm0-9.8l-.3.3H240a.3.3 0 0 1-.3-.3v-3.8c0-.2.2-.3.3-.3h11.3c.1 0 .3.1.3.3v3.8zm0-9.9l-.3.3H240c-.1 0-.3-.1-.3-.3v-3.8c0-.2.1-.3.3-.3h11.3c.1 0 .3.1.3.3v3.8zm0-9.9c0 .2-.2.3-.3.3H240c-.1 0-.3-.1-.3-.3v-3.8c0-.2.1-.3.3-.3h11.3c.1 0 .3.1.3.3v3.8zm0-9.9c0 .2-.2.3-.3.3H240a.3.3 0 0 1-.3-.3v-3.8c0-.2.2-.3.3-.3h11.3c.1 0 .3.1.3.3v3.8zm0-9.9c0 .2-.2.3-.3.3H240c-.1 0-.3 0-.3-.3v-3.8c0-.2.1-.3.3-.3h11.3c.1 0 .3.1.3.3v3.8zm0-9.9c0 .2-.2.3-.3.3H240c-.1 0-.3 0-.3-.3v-3.8c0-.2.1-.3.3-.3h11.3c.1 0 .3.1.3.3v3.8zM173.4 71.4a6.2 6.2 0 0 0-3.7.4c-1.4.6-3 .6-4.5 0a6.2 6.2 0 0 0-5.3 0c-.5.3-1 .5-1.6.5-2 0-3.9-2.2-4.2-5 .4-.3.7-.7 1-1.2 1.3-2 3.3-3.3 5.4-3.3 2.2 0 4.2 1.3 5.4 3.3.8 1.2 2.1 2 3.6 1.9 1.7 0 3.2 1.4 4 3.4z" opacity=".1"/><path fill="#3AB795" d="M180 62.4l-3.5 2.2 2-3.8c-.5-.5-1.3-.7-2-.8h-.8l-1.2.8.5-1c-.8-.3-1.5-.8-2-1.5l-2 1.3 1.2-2.4a6.1 6.1 0 0 0-4.7-2.4c-2.2 0-4.1 1.3-5.4 3.4-.7 1.2-2.1 2-3.5 1.9h-.1c-2.4 0-4.4 2.7-4.4 6.1 0 3.4 1.9 6.1 4.4 6.1l1.5-.3c1.7-.8 3.6-.9 5.3-.1 1.4.6 3 .6 4.5 0 1.7-.7 3.6-.7 5.2 0 .5.3 1 .4 1.6.4 2.4 0 4.4-2.7 4.4-6 0-1.5-.4-2.7-1-3.9z" opacity=".1"/><path fill="#3E4049" d="M268.2 52.5h169.4c5.5 0 10 4.6 10 10.1v208c0 5.6-4.5 10.2-10 10.2H268.2c-5.6 0-10.2-4.6-10.2-10.1v-208a10 10 0 0 1 10.2-10.2z"/><path fill="#fff" d="M438 75.5H266.5v182.3H438V75.5zM352.8 276.4a6.7 6.7 0 1 0 0-13.3 6.7 6.7 0 0 0 0 13.3zM352.8 69a3 3 0 0 1-3-3 3 3 0 0 1 6.1 0 3 3 0 0 1-3 3z"/><path fill="#fff" d="M352.8 63c1.6 0 2.9 1.3 2.9 2.9 0 1.5-1.3 2.8-2.8 2.8A2.8 2.8 0 0 1 350 66c0-1.6 1.3-2.9 2.8-2.9zm0-.5a3.4 3.4 0 0 0-3.3 3.4c0 1.8 1.5 3.3 3.3 3.3 1.8 0 3.4-1.5 3.4-3.3 0-1.9-1.5-3.4-3.4-3.4z"/><path fill="#3AB795" d="M420.7 170c0-1.5-.3-3-.7-4.4l-.1-.2a16.4 16.4 0 0 0-27.9-5.6c-.3-1.6-.7-3.1-1.3-4.6-4.4.5-8.7.7-13.1.5 2.7 1.2 5.5 2.2 8.3 3l-.1.3c-3.2-.9-6.3-2-9.3-3.4l-.9-.5h1c4.7.4 9.3.2 14-.3-1.1-2.4-2.5-4.6-4.2-6.5-7.4-.8-14.9-2.3-21.8-5.4l.2-.4c6.7 3 14 4.6 21.2 5.4a23.3 23.3 0 0 0-37 4 32 32 0 0 0-8-18.1 74.2 74.2 0 0 1-31.6 5.3c2.7 1.2 5.5 2.2 8.3 3l-.1.3c-3.2-.8-6.3-2-9.3-3.4l-.9-.5h1c11 .8 22-1 32.3-5l-1.2-1.3c-12.7.3-26.7.2-39.3-4.4A32.2 32.2 0 0 0 285 155a91.8 91.8 0 0 0 11.8 38.7l4 6 .8.9c1.4 1.8 3 3.5 4.8 5l1.1.9 3.1 2a14 14 0 0 0 6 1.6h87.7c.6 0 1-.1 1.5-.3 3-1.1 6-5.5 8.3-11l1.5-3.8 1.2-3.6c1-3.5 2-7.1 2.7-10.7.7-3.3 1.2-6.7 1.3-10v-.8z" opacity=".1"/><path fill="#3AB795" d="M339.1 131.9a32 32 0 0 0-38.4-4.4c12.3 4.5 25.9 4.6 38.4 4.4zM410.6 203.5L397 180.2c-.1-.2-.4-.2-.6-.1l-.1.1-13.5 23.3c0 .2 0 .5.2.6h4.2c.3 0 .4.2.4.5v5c0 .2.2.4.4.4h5.3c.2 0 .4-.2.4-.5v-2.3c0-.3.2-.5.4-.5h5c.2 0 .4.2.4.5v2.3c0 .3.2.5.4.5h5.3c.2 0 .4-.1.4-.3v-5.2c0-.3.2-.4.4-.4h4c.3 0 .5-.2.5-.4v-.2zm-18.8 2.6H389.6a.4.4 0 0 1-.4-.3v-.3l.4-.1h1.9c.2 0 .4.2.4.4l-.1.3zm12.4 0H402c-.3 0-.4-.2-.4-.4s.2-.3.4-.4h1.9c.2 0 .4.2.4.4l-.1.4zM327.4 203.7l-13.5-23.3c-.1-.2-.4-.2-.6-.1l-.1.1-11.7 20.2c1.5 1.8 3.1 3.5 4.9 5h1.9c.2 0 .4.2.4.4l-.1.3c-.1.1-.2.2-.3.1h-.8c1 .8 2 1.4 3 2v-1c0-.3.3-.5.5-.5h5c.2 0 .4.3.4.5v2.5c.1.2.2.3.5.3h5.2c.2 0 .3 0 .4-.2v-5.2c0-.3.3-.5.5-.5h4c.3 0 .4-.2.4-.4v-.2zm-9 2l.3-.1h2c.2 0 .3.2.3.4l-.1.3h-2.3a.4.4 0 0 1-.3-.3l.1-.3zM310 197a.4.4 0 0 1-.4-.5v-3.2c0-.3.2-.4.4-.4h7c.3 0 .5.2.5.4v3.2c0 .3-.2.5-.4.5h-7zM380.6 161.9h-16.7v-3.6c0-.5-.4-.9-.8-.9h-5v-3.9c0-.3-.2-.5-.5-.5h-6.3c-.3 0-.6.2-.6.5v3.8H345c-.5 0-.9.4-.9.9v3.6h-15.9l-.1.1v47.8l.1.2h10.6l.2-.2v-6.4l.1-.2h4.4c.2 0 .2.1.2.2v6.4l.2.2h20.8l.2-.2v-6.4l.1-.2h4.5l.1.2v6.4l.2.2h10.6l.1-.2v-47.8c.3 0 .2 0 0 0zm-43.5 39l-.1.2h-6.6l-.1-.1v-2.3l.1-.1h6.6l.1.1v2.3zm0-5.7l-.1.2h-6.6l-.1-.2V193l.1-.2h6.6l.1.2v2.2zm0-5.7l-.1.1h-6.6l-.1-.1v-2.3l.1-.1h6.6l.1.1v2.3zm0-5.8l-.1.2h-6.6l-.1-.2v-2.2l.1-.2h6.6l.1.2v2.2zm0-5.7l-.1.1h-6.6l-.1-.1v-2.3l.1-.1h6.6l.1.1v2.3zm0-5.8l-.1.2h-6.6l-.1-.2V170l.1-.2h6.6l.1.2v2.2zm0-5.8l-.1.2h-6.6l-.1-.2v-2.1l.1-.2h6.6l.1.2v2.1zm15.5 34.6l-.2.1H346l-.2-.1v-2.3l.2-.1h6.5l.2.1v2.3zm0-5.8l-.2.2H346l-.2-.2V193l.2-.2h6.5l.2.2v2.2zm0-5.7l-.2.1H346l-.2-.1v-2.3l.2-.1h6.5l.2.1v2.3zm0-5.8l-.2.2H346l-.2-.2v-2.2l.2-.2h6.5l.2.2v2.2zm0-5.7l-.2.1H346l-.2-.1v-2.3l.2-.1h6.5l.2.1v2.3zm0-5.8l-.2.2H346l-.2-.2V170l.2-.2h6.5l.2.2v2.2zm0-5.8l-.2.2H346l-.2-.2v-2.1l.2-.2h6.5l.2.2v2.1zm10.6 34.6l-.2.1h-6.5l-.2-.1v-2.3l.2-.1h6.4l.2.1v2.3zm0-5.8l-.2.2h-6.5l-.2-.2V193l.2-.2h6.4c.2 0 .2.1.2.2v2.2zm0-5.7l-.2.1h-6.5l-.2-.1v-2.3l.2-.1h6.4l.2.1v2.3zm0-5.8l-.2.2h-6.5l-.2-.2v-2.2l.2-.2h6.4c.2 0 .2.1.2.2v2.2zm0-5.7l-.2.1h-6.5l-.2-.1v-2.3l.2-.1h6.4l.2.1v2.3zm0-5.8l-.2.2h-6.5l-.2-.2V170l.2-.2h6.4c.2 0 .2.1.2.2v2.2zm0-5.8l-.2.2h-6.5l-.2-.2v-2.1l.2-.2h6.4c.2 0 .2.1.2.2v2.1zm15.4 34.6l-.1.1h-6.6l-.1-.1v-2.3l.1-.1h6.6l.1.1v2.3zm0-5.8l-.1.2h-6.6l-.1-.2V193l.1-.2h6.6l.1.2v2.2zm0-5.7l-.1.1h-6.6l-.1-.1v-2.3l.1-.1h6.6l.1.1v2.3zm0-5.8l-.1.2h-6.6l-.1-.2v-2.2l.1-.2h6.6l.1.2v2.2zm0-5.7l-.1.1h-6.6l-.1-.1v-2.3l.1-.1h6.6l.1.1v2.3zm0-5.8l-.1.2h-6.6l-.1-.2V170l.1-.2h6.6l.1.2v2.2zm0-5.8l-.1.2h-6.6l-.1-.2v-2.1l.1-.2h6.6l.1.2v2.1zM333.1 148.9c-.7-.2-1.4 0-2.2.3-.4.2-.8.2-1.2.2-.5 0-1 0-1.4-.2-1-.5-2-.5-3 0-.3.2-.6.2-.9.2-1.2 0-2.3-1.3-2.5-2.9.3-.2.5-.4.6-.7.9-1.7 3-2.4 4.7-1.5.7.4 1.2.9 1.5 1.5.5.8 1.3 1.2 2 1.2h.1c1 0 1.9.7 2.3 1.9z" opacity=".1"/><path fill="#3AB795" d="M337 143.7l-2.1 1.3 1.2-2.3c-.4-.2-.8-.4-1.2-.4h-.4l-.7.3.3-.5a2 2 0 0 1-1.2-.9l-1.2.8.8-1.5a3.5 3.5 0 0 0-2.8-1.3c-1.3 0-2.5.7-3.1 1.9-.5.7-1.2 1.1-2 1.1h-.1c-1.5 0-2.6 1.6-2.6 3.6s1.1 3.6 2.6 3.6l.8-.2c1-.5 2.1-.6 3-.1l1.4.3c.5 0 .9-.1 1.3-.3 1-.4 2-.4 3 0 .3.2.6.3 1 .3 1.4 0 2.5-1.6 2.5-3.6 0-.7-.2-1.4-.6-2.1z" opacity=".1"/><path fill="#3F3D56" d="M505.8 137.3h.4c.7 0 1.2.5 1.2 1.2v20.1c0 .7-.5 1.2-1.2 1.2h-.4c-.6 0-1.1-.5-1.1-1.2v-20.2c0-.6.5-1 1.1-1zM414.5 119.7c.4 0 .8.3.8.7v5.9c0 .4-.4.8-.8.8a.8.8 0 0 1-.8-.8v-5.9c0-.4.4-.7.8-.7zM414.6 133.2c.4 0 .8.4.8 1v11c0 .5-.4 1-.8 1a.9.9 0 0 1-1-1v-11c0-.6.5-1 1-1zM414.6 150.6c.4 0 .8.4.8.8v11.4c0 .5-.4.8-.8.8a.8.8 0 0 1-.9-.8v-11.3c0-.5.4-.9.9-.9z"/><path fill="#3E4049" d="M424.1 95.1h72.6c5.2 0 9.4 4.3 9.4 9.5v167c0 5.1-4.2 9.4-9.4 9.4H424a9.5 9.5 0 0 1-9.4-9.5v-167c0-5.1 4.2-9.4 9.4-9.4z"/><path fill="#E6E8EC" d="M452.8 100.7h10.3c.7 0 1.2.6 1.2 1.3 0 .7-.5 1.2-1.2 1.2h-10.3c-.7 0-1.2-.5-1.2-1.2s.5-1.3 1.2-1.3zM467.7 103.4a1.5 1.5 0 1 0 0-3 1.5 1.5 0 0 0 0 3z"/><path fill="#fff" d="M493.2 100h-10.4v1.3a6 6 0 0 1-6 6h-33.5a6 6 0 0 1-6-6V100h-9.7c-4 0-7.3 3.2-7.3 7.2V269c0 4 3.3 7.2 7.3 7.2h65.7c4 0 7.2-3.2 7.2-7.2V107.2c0-4-3.2-7.2-7.3-7.2z"/><path fill="#3AB795" d="M491.2 189.6c0-.7-.2-1.3-.4-2a7.5 7.5 0 0 0-12.6-2.6c-.1-.7-.3-1.4-.6-2-2 .2-4 .2-6 .1 1.3.6 2.5 1 3.8 1.4v.2l-4.2-1.6-.4-.2h.4c2.1.2 4.2.1 6.3-.2-.5-1-1-2-1.8-3-3.4-.2-6.7-1-9.9-2.4v-.1c3.1 1.3 6.3 2.1 9.7 2.4a10.6 10.6 0 0 0-16.8 1.7c-.3-3-1.6-5.8-3.6-8a34 34 0 0 1-14.2 2.3l3.7 1.4v.1c-1.5-.4-2.9-1-4.2-1.6l-.4-.2h.4c5 .4 10-.4 14.6-2.2l-.5-.6c-5.8.1-12 0-17.7-2a14.5 14.5 0 0 0-7 12.4A41 41 0 0 0 437 203l.5.4c.6.8 1.4 1.6 2.2 2.3l.5.4a8.2 8.2 0 0 0 4 1.6h40.3c1.4-.6 2.7-2.5 3.8-5l.6-1.8.6-1.7a48.5 48.5 0 0 0 1.8-9.3v-.3z" opacity=".1"/><path fill="#3AB795" d="M454.4 172.4a14.4 14.4 0 0 0-17.4-2c5.6 2 11.7 2.1 17.4 2zM486.6 204.7l-6-10.5h-.4l-6 10.5v.3h1.9l.2.2v2.3s0 .2.2.2h2.3l.2-.2v-1.1l.2-.2h2.3s.2 0 .2.2v1c0 .2 0 .3.2.3h2.3c.1 0 .2 0 .2-.2v-2.3l.2-.2h1.9l.2-.1-.1-.2zm-8.5 1.2H477a.2.2 0 0 1-.1-.2v-.1h1.1l.2.1v.2zm5.6 0h-1c-.1 0-.2 0-.2-.2v-.1h1.1l.2.1v.2zM449 204.8l-6-10.5h-.3l-5.3 9c.7.9 1.4 1.7 2.2 2.4h.9l.2.1c0 .1 0 .2-.2.2h-.4l1.5.9v-.5s0-.2.2-.2h2.2l.2.2v1.1l.2.2h2.5V205.2l.3-.2h1.8l.2-.2h-.1zm-4 .9h1.3c0 .2 0 .3-.2.3h-1a.2.2 0 0 1-.1-.2v-.1zm-3.8-3.9a.2.2 0 0 1-.2-.2V200l.2-.2h3.2l.2.2v1.5l-.2.2h-3.2zM473 186h-7.4v-1.7c0-.2-.2-.4-.5-.4H463v-1.7c0-.2-.2-.3-.3-.3h-2.9c-.1 0-.2.1-.2.3v1.7H457c-.2 0-.4.1-.4.4v1.6h-7.2v21.7h4.8v-3h2.2v3h9.6v-3h2.2v3H473.2V186zm-19.5 17.6h-3.1-.1v-1-.1h3.2v1zm0-2.6h-3.1-.1v-1-.1h3.2v1zm0-2.6h-3.1-.1v-1-.1h3.2v1zm0-2.6h-3.1-.1v-1-.1h3.2v1zm0-2.6h-3.1-.1v-1-.1h3.2v1zm0-2.6h-3.1-.1v-1-.1h3.2v1zm0-2.6l-.1.1h-3-.1V187v-.1h3l.2.1v1zm7 15.6h-3.2v-1-.1h3.1v1zm0-2.6h-3.1v-1h3.1v1zm0-2.6h-3.2v-1-.1h3.1v1zm0-2.6h-3.2v-1-.1h3.1v1zm0-2.6h-3.1v-1-.1h3v1zm0-2.6h-3.2v-1-.1h3.1v1zm0-2.6l-.1.1h-3v-1-.1h3.1v1zm4.7 15.6h-3.1v-1-.1h3.1v1zm0-2.6h-3.1v-1-.1h3.1v1zm0-2.6h-3.1v-1-.1h3.1v1zm0-2.6h-3.1v-1-.1h3.1v1zm0-2.6h-3.1v-1-.1h3.1v1zm0-2.6h-3.1v-1-.1h3.1v1zm0-2.6l-.1.1h-3V187v-.1h3l.1.1v1zm7 15.6H469v-1-.1h3v1zm0-2.6h-3-.1v-1h3.1v1zm0-2.6H469v-1-.1h3v1zm0-2.6H469v-1-.1h3v1zm0-2.6h-3-.1v-1-.1h3v1zm0-2.6H469v-1-.1h3v1zm0-2.6v.1h-3-.1v-1-.1h3.1v1zM451.7 180c-.3 0-.7 0-1 .2h-1.2c-.5-.2-1-.2-1.4 0a1 1 0 0 1-.4.1c-.6 0-1-.5-1.1-1.3l.2-.3c.4-.8 1.3-1 2.2-.7.3.1.5.4.7.7.2.3.5.5.9.5.5 0 1 .4 1 .9z" opacity=".1"/><path fill="#3AB795" d="M453.4 177.7l-1 .6.6-1a1 1 0 0 0-.6-.2h-.2l-.3.2.2-.3-.5-.4-.6.4.4-.7c-.3-.3-.8-.6-1.3-.6-.6 0-1 .4-1.4.9-.2.3-.6.5-1 .5-.6 0-1 .7-1 1.6 0 .9.4 1.6 1 1.6l.4-.1c.5-.2 1-.2 1.4 0h1.2c.5-.2 1-.2 1.4 0h.4c.6 0 1.1-.6 1.1-1.5 0-.3 0-.7-.2-1z" opacity=".1"/><path fill="#3F3D56" d="M50.8 275.8a21 21 0 0 1-.4 4l-.1.7c-1.4 5.8-5.6 10-10.4 10.3h-.5c-5.2 0-9.6-4.5-11-10.6l-.1-.5a21 21 0 0 1-.4-4c0-8.3 5.1-15 11.5-15 6.3 0 11.4 6.7 11.4 15z"/><path fill="#000" d="M50.8 275.8a21 21 0 0 1-.5 4.7h-.5a24 24 0 0 1-3.8-.6 22.5 22.5 0 0 1-6 1h-.8a22 22 0 0 1-8.2-1.4l-2.6.8-.1-.6a21 21 0 0 1-.4-4c0-8.3 5.1-15 11.5-15 6.3 0 11.4 6.7 11.4 15z" opacity=".1"/><path fill="#3AB795" d="M75.3 247.8c0-3.7-.8-7.3-2.5-10.6l-13.5 4.2 11.9-7c-4-5.8-10.5-9.4-17.6-10l-1.8-2.4-19.4 6 15.9-9.3a23.4 23.4 0 0 0-36.8 12.5l16.7 19.1-18-13a23.3 23.3 0 0 0 21 41.2c4.7 1.8 10 1.9 14.9.4A23.3 23.3 0 0 0 74.5 256v-1.6c.5-2.2.9-4.4.8-6.7z"/><path fill="#000" d="M75 252a62.7 62.7 0 0 0-21.6-.2c-8.1 1.4-16.4 4.3-24.4 2.2-4.6-1.3-8.6-4.2-13.2-5.8a25 25 0 0 0-13.7-.9 23.4 23.4 0 0 0 29 31.2c4.8 1.8 10 1.9 15 .4a23.3 23.3 0 0 0 28.3-22.8v-1.5l.6-2.5z" opacity=".1"/><path fill="#393859" d="M252 105.1l-9.7-.4c-2.2 0-4.7 0-6.2 1.6-1.6 1.8-1.2 4.5-.3 6.7 1 2.1 2.3 4.3 2.4 6.6 0 3.7-3 6.7-5.7 9.2-2.8 2.5-5.7 5.6-5.3 9.3.3 3 2.6 5.1 4.9 7 3.4 2.7 7.2 5.1 11 7.1 2.3 1.1 4.8 2.2 7.3 2.2a19 19 0 0 0 6.5-1.5c3.6-1.3 7.4-2.7 10.1-5.4 1.5-1.4 2.6-3 3.6-4.8 4.7-8.7 6-19.6 2.1-28.6-.8-2-2-4-3.6-5.5-4.1-4-10.4-4-16.1-4-1 0-2.1 0-3 .5-1 .5-1.6 1.6-1.1 2.6"/><path fill="#A0616A" d="M239.6 225.2c-.3 10.2 0 20.5 1.1 30.7.2 1.2.3 2.4.6 3.5.6 3.6 2 7 3 10.4a25 25 0 0 1 1.3 10.8l6.8-.6v-1.7c0-3.3-1.2-6.6-.9-9.9.3-3.1 1.3-6.2 1.3-9.3 0-3-1-5.9-1.5-8.8a72.6 72.6 0 0 1-.4-14c.5-5.6 2.1-11 1.4-16.5-4.3 1.8-8.5 3.5-12.7 5.4z"/><path fill="#3F3D56" d="M249.8 292.5l.8-.1c.3-.3.6-.7.6-1.1.4-1.4 1-2.7 1.7-3.9.6-.8 1.3-1.7 1.3-2.8 0-1.6-1.8-2.9-2.1-4.5l-.3-1.6c-.4-.9-1.6-1.2-2.5-1.4-1.4-.2-3-.4-3.7.8-.5 1 0 2.2.2 3.3.1 1.5-.8 3-1.8 4.2-1.1 1.3-4.2 4.6-2.3 6.6.6.7 2.2.4 3 .5h5.1z"/><path fill="#A0616A" d="M269.5 225.2a213.4 213.4 0 0 1-1.6 34.2c-.6 3.6-2 7-3 10.4-1 3.5-1.9 7.2-1.3 10.8l-6.7-.6v-1.7c-.1-3.3 1.1-6.6.8-9.9-.3-3.1-1.3-6.2-1.2-9.3 0-3 1-5.9 1.4-8.8a72.6 72.6 0 0 0 .4-14c-.4-5.6-2-11-1.3-16.5 4.1 1.8 8.4 3.5 12.5 5.4z"/><path fill="#3F3D56" d="M259.4 292.5l-.8-.1c-.4-.3-.6-.7-.6-1.1-.4-1.4-1-2.7-1.7-3.9-.6-.8-1.3-1.7-1.3-2.8 0-1.6 1.8-2.9 2.1-4.5l.3-1.6c.4-.9 1.6-1.2 2.5-1.4 1.4-.2 3-.4 3.7.8.5 1 0 2.2-.2 3.3-.1 1.5.8 3 1.8 4.2 1.1 1.3 4.2 4.6 2.3 6.6-.6.7-2.2.4-3 .5h-5.1z"/><path fill="#A0616A" d="M251.3 134.7a10.5 10.5 0 1 0 0-20.9 10.5 10.5 0 0 0 0 21z"/><path fill="#A0616A" d="M245.4 133.6c.1.6.2 1 .1 1.6a3 3 0 0 1-.8 1.4 15.8 15.8 0 0 1-5.2 3.4c-.2.7.1 1.3.5 2l4 5.6c2.4 3.7 5.4 7 8.8 9.6l3.1-3.8 1.8-2.4a24 24 0 0 0 1.6-3.3l3.7-8.6c-2.2.4-4.5-.6-6.5-1.9a2 2 0 0 1-.9-.9c-.2-.4-.2-.7-.2-1.1l-.1-5.4c-2.7-.4-5.4-.6-8.2-.6-1 0-1.8-.2-2 .9-.3 1.1 0 2.5.3 3.5z"/><path fill="#FFD774" d="M250 153.3c-1.7-3-3.7-5.7-6-8.1-.6-.5-1-1-1.4-1.7-.2-.5-.2-1-.3-1.6l-.2-2.7-.1-.5c-.1 0-.3-.1-.4 0-.7-.2-1.3 0-2 .2l-1 1c-1.1 1.1-2.8 1.7-4.3 2.3a34 34 0 0 0-3.4 1.6c-.8.5-1.7 1-2.1 2-.2.5-.3 1.2-.3 1.8l-.3 21.8c0 .5-.3 1-.9 1.2a3 3 0 0 0-1.2 1c-.3.4-.3 1 0 1.4l.6.5c.5.6 0 1.5-.3 2.2-.5.9-.7 2-.5 3 .2 1 1 1.8 2 2 .4-1.3-.5-2.8 0-4a3 3 0 0 1 1.7-1.5c1-.4 2.1-.5 3.2-.4l.6 2.3c2.2 8 .7 16.6-1.3 24.7-.5 1.9-1.1 3.7-1.4 5.7-.5 2.8-.5 5.8-.5 8.7v8c0 1 0 2 .8 2.6.8.7 2 .6 2.6 1.5.4.5.3 1.1.6 1.7.2.3.5.6.9.7 2.6 1.4 5.9.6 7.6-1.9.5-.8.8-2 1.7-2.5.9-.7 2.2-.7 3.4-.7l7 .4c1.1 0 2.3.1 3.4.4l3 1.3a15 15 0 0 0 7.1 1.3 4 4 0 0 0 1.9-.5c.7-.4 1.1-1.1 1.8-1.4.9-.3 2 0 2.5-.6.4-.4.6-1 .5-1.6l.4-6.8c.3-7 .5-14.3-1.8-21-.5-1.6-1.3-3.1-1.7-4.8-.4-1.7-.7-3.5-.8-5.2-.8-4.8-2.4-9.6-2-14.5 0-.4.2-.5.6-.5 1.3-.1 2.7 0 3.7 1a5 5 0 0 1 1.2 3.1c.1.9 0 1.7-.5 2.4l2-1.4c.6-.4 1.2-1 1.1-1.8-.3-2.3-.2-4.8-.5-7a109 109 0 0 0-2.5-14.5c-.2-1.5-.1-3-.2-4.5a17 17 0 0 0-1.6-6.1c-.2-.6-.6-1.1-1-1.6a7 7 0 0 0-2-1.4 41.2 41.2 0 0 0-10-3.6c-.6-.2-1.5-.3-2 .1-.7.6-.6 1.6-.3 2.5.3.9.8 1.7.6 2.6-.1 1-.9 1.6-1.5 2.3-1.6 1.9-2.3 4.4-4 6.2-1 1-2 1.8-2.2 3z"/><path fill="#393859" d="M243.5 119.1c1 .7 1.7 1.7 2.8 2 2.7.6 4.8-3.8 7.4-2.9 1 .4 1.5 1.3 2.3 2a4.5 4.5 0 0 0 6-.5c1.5-1.6 1.5-3.9 1.4-6 0-.8-.1-1.5-.5-2.2-.2-.4-.5-.8-.9-1-3-2.4-7.2-2.8-11.2-3h-2.5c-1.2.4-2.1 1.2-3 2-1.8 1.4-6 4.2-6.7 6.5-.5 2.3 3.2 1.6 5 3.1z"/><path fill="#3AB795" d="M232.6 150.5H268c.7 0 1.3.6 1.3 1.4v38.3c0 .7-.6 1.3-1.3 1.3h-35.3c-.7 0-1.3-.6-1.3-1.3V152c0-.8.6-1.4 1.3-1.4z"/><path fill="#fff" d="M235.9 154h28.7c.7 0 1.4.7 1.4 1.4v22.1c0 .7-.7 1.3-1.4 1.3H236c-.7 0-1.3-.6-1.3-1.3v-22.1c0-.7.6-1.3 1.3-1.3z"/><path fill="#3AB795" d="M261.9 167c0-.2 0-.5-.2-.7-.5-1.5-2-2.3-3.6-1.8-.4.1-.8.4-1.1.8l-.2-.8-2.3.1 1.5.5c-.6 0-1.1-.3-1.6-.5h-.2.2l2.4-.1-.7-1.2a11.5 11.5 0 0 0 0 0 4 4 0 0 0-6.5.6 5.3 5.3 0 0 0-1.4-3 14 14 0 0 1-5.4.9l1.5.5c-.6 0-1.1-.3-1.6-.5l-.2-.1h.2c1.9.1 3.8-.2 5.5-.9l-.2-.2a19 19 0 0 1-6.7-.7 5.5 5.5 0 0 0-2.7 4.7c.1 1.3.4 2.6.8 3.8a14.7 14.7 0 0 0 1.2 2.8l.7 1 .2.2a6.6 6.6 0 0 0 1 1l.5.3c.3.2.7.3 1 .3H259.3c.5-.3 1-1 1.5-2l.2-.6.2-.6.5-1.9.2-1.7v-.1zM248 160.5a5.6 5.6 0 0 0-6.6-.8c2 .8 4.3.8 6.5.8z" opacity=".3"/><path fill="#3AB795" d="M260.1 172.8l-2.3-4h-.1l-2.3 4h.8v1h1v-.4h1.1v.4h1v-.9H260.1v-.1zm-3.2.4h-.3.3zm2.2 0h-.4.3zM245.9 172.8l-2.3-4h-.1l-2 3.5.8.8h.3v.1h-.1c.1.1.3.3.5.3v-.1h1v.5h1v-1H246zm-1.5.3h.4v.1h-.3-.1zm-1.5-1.5v-.6h1.3v.6h-1.3zM255 165.6h-2.8v-.6l-.2-.1h-.8v-.7l-.1-.1H250l-.1.1v.7h-1l-.1.1v.6H246v8.3h1.8v-1.1h.9v1h3.7v-1h.8v1s0 .1.1 0h1.8v-8.2zm-7.4 6.8h-1.1v-.4-.1h1.1v.5zm0-1h-1.1v-.5h1.1v.4zm0-1h-1.1v-.4h1.1v.4zm0-1h-1.1v-.4h1.1v.4zm0-1h-1.1v-.4h1.1v.4zm0-1h-1.1v-.4h1.1v.4zm0-1l-1.1.1v-.5h1.1v.4zm2.6 6h-1-.1v-.4-.1h1.1v.5zm0-1h-1-.1v-.5h1.1v.4zm0-1h-1.1v-.4h1.1v.4zm0-1h-1-.1v-.4h1.1v.4zm0-1h-1-.1v-.4h1.1v.4zm0-1h-1-.1v-.4h1.1v.4zm0-1l-1 .1h-.1v-.5h1.1v.4zm1.8 6H251v-.5h1.1v.5zm0-1H251v-.5h1.1v.4zm0-1H251h1.1zm-1.2 0v-.4h1.2l-1.2.4zm1.2-1H251v-.4h1.1v.4zm0-1H251v-.4h1.1v.4zm0-1H251v-.4l1.1.4zm-1.1-.4h1.1-1.1zm1.1-.6l-1.1.1v-.5h1.1v.4zm2.7 6h-1.1-.1v-.4-.1h1.2v.5zm0-1h-1.1-.1v-.5h1.2v.4zm0-1H253.5v-.4h1.2v.4zm0-1h-1.1-.1v-.4h1.2v.4zm0-1h-1.1-.1v-.4h1.2v.4zm0-1h-1.1-.1v-.4h1.2v.4zm0-1l-1.1.1h-.1v-.5h1.2v.4z" opacity=".3"/><path fill="#3AB795" d="M246.9 163.4h-.4c-.1.1-.3.1-.4 0h-.6l-.1.1c-.2 0-.4-.2-.4-.5.2-.3.4-.4.6-.4.2 0 .4.2.5.3l.4.2c.2 0 .4.1.4.3z" opacity=".1"/><path fill="#3AB795" d="M247.5 162.5l-.3.2.2-.4h-.4a.7.7 0 0 1-.2-.2l-.2.1.2-.2a.6.6 0 0 0-.5-.3c-.2 0-.4.2-.5.3l-.4.2c-.2 0-.4.3-.4.6 0 .4.2.6.4.6H247.2c.2 0 .4-.2.4-.6v-.3z" opacity=".1"/><path fill="#A0616A" d="M230.1 184c1.7 0 3.1-2.2 3.1-5.1 0-2.9-1.4-5.2-3-5.2-1.8 0-3.2 2.3-3.2 5.2 0 2.9 1.4 5.2 3.1 5.2zM271.5 181.4c1.7 0 3.1-2.3 3.1-5.2 0-2.8-1.4-5.2-3.1-5.2-1.8 0-3.2 2.4-3.2 5.2 0 3 1.4 5.2 3.2 5.2z"/></svg>