<svg xmlns="http://www.w3.org/2000/svg" width="1280" height="398" fill="none"><mask id="a" width="1280" height="398" x="0" y="0" maskUnits="userSpaceOnUse"><path fill="#D8D9EC" d="M0 0h1280v398H0z"/></mask><g mask="url(#a)"><path fill="#FDFDFD" d="M0 0h1280v398H0z"/><path fill="#EFDEE3" d="M1116-14.7c10.2 4.5 17.7 16.9 21.5 26 3.8 9 3.8 15 4.5 18.8.7 4 2.1 6 3.2 8.5 1.1 2.6 2 5.8 4.2 14.2 2.2 8.4 5.8 21.9 2.2 33.5-3.6 11.7-14.4 21.5-25.5 22.1-11 .6-22.4-8-25.8-19.4-3.5-11.4.8-25.8-8.1-38-9-12.1-31-22.1-35.3-32.4-4.2-10.3 9.6-20.8 23-27.7 13.2-7 26-10.2 36.2-5.6z"/><path fill="#FFF0CC" d="M170.4 3a57.1 57.1 0 0 1 23 64c-8 22-34.7 36-55 46.2-20.2 10.2-34.1 16.7-50.3 19a83.9 83.9 0 0 1-53-10C16.5 112-2 93.5 0 77.1c2.1-16.4 24.7-30.8 43.1-42.9 18.5-12.1 32.8-22 55-29.8 22-7.8 52-13.5 72.2-1.4z"/><path fill="#B7E4D8" d="M1139 254.5c18.7 8.2 35.9 22.9 32.6 39.8-3.3 16.9-27 36.1-33.8 55.2-6.8 19.1 3.6 38 2.6 57.3-1 19.2-13.3 38.7-28 37.1-14.6-1.6-31.6-24.4-49.6-34.2-18-9.8-36.8-6.6-54.8-12.5s-35.2-20.8-31.5-35c3.6-14.3 28.1-28 42.3-41 14-13 17.8-25.6 26.2-38.6a78.1 78.1 0 0 1 38-32.2 78.3 78.3 0 0 1 56 4.1z"/><path fill="#BDC4CD" d="M624-19A63.6 63.6 0 0 1 664.7 12c9.5 18.6 10.8 46.8-2.6 51.2-13.4 4.5-41.4-14.7-64.5-19.7-23-5-41.2 4.3-51.8-.2-10.7-4.5-13.8-22.7-12.5-39.6 1.3-16.8 7-32.4 17.7-36 10.7-3.5 26.2 5 38.4 8.2 12.3 3.2 21.2 1.4 34.6 5z"/><path fill="#E9D8D0" d="M205.3 364.5c2.8 14.5-4 31.6-15.4 47.5-11.3 15.9-27 30.6-40.7 27.2-13.7-3.5-25.2-25.2-41.3-37.4-16.2-12.3-37-15.2-44-25.6-7-10.3-.4-28.2 8-43.9 8.5-15.6 18.7-29.1 31.6-33.5 13-4.4 28.7.3 41.4 6.4 12.8 6.1 22.6 13.5 33.8 23.2 11.2 9.7 23.7 21.6 26.6 36.1zM840 236.6c-14.7 1-30.8-7.8-45.2-21-14.4-13.1-27.2-30.6-22.1-43.7 5-13.1 28-22 42-36.5 14.2-14.6 19.5-34.9 30.7-40.6 11.1-5.8 28 3 42.6 13.2 14.5 10.3 26.7 22 29.5 35.4 2.8 13.3-3.8 28.4-11.3 40.3-7.6 12-16.2 20.8-27.1 30.8-11 10-24.3 21-39 22z"/><path fill="#FFF0E9" d="M349.8 172.2c14.5 11 29.4 23 33.2 37.7a39.5 39.5 0 0 1-16 40.7c-12.6 8.1-30.4 6.8-44 7.7-13.5.9-22.8 4-31.6 2.1a38 38 0 0 1-22.6-17 40.3 40.3 0 0 1-7.3-28.9c1.8-9.6 8.8-18.1 17.2-30.3 8.4-12.2 18-28 30.1-30.8 12-2.7 26.4 7.6 41 18.8z"/></g></svg>