<svg xmlns="http://www.w3.org/2000/svg" width="300" height="81" version="1"><g fill="#111214" fill-rule="nonzero"><path d="M4 81H3l-3-3 1-1h2l2-1h10a244 244 0 0 1 26-2h5l2 1 1-1h8l5-1h5l2-1-1 1h1l9-1a77 77 0 0 1 9 1l3 1h1l-1-1h1l2-2h3l6 1h9a84 84 0 0 0 9 0h5l4-1 5 1v-1h1l3-1 2 1h3l2 1h13l3-1 3 1h2l3-1h7a67 67 0 0 1 12 2l1-1h4v1l1-1h10v-1h2l5 1h10l3-1 10 1 3 1h11a12 12 0 0 1 5 1c-1 0-1 0 0 0 0 1 0 1 0 0l1-1v1l2 1 1-1h-1l-1-1 2 1h4c0-1 0-1 0 0h3c1 1 1 1-1 1-1 0-1 0 0 0l1 1h-2l-1-1v2l-3-1c1-1 0-1 0 0l-2 1-2 1-4-1-4-1h2l2-1h-6l-4 1v1h2l-1 1h-3l-3-2h-4l-2 1h-2l-3 1v-2-1h-1v1l-1-1v-1l-1 1v4l-1-1h-4-1v-1l-1-1c-1 0-3 1-2 2l1-1 1 1-1 1h-3l-1-1c1 0 1 0 0 0l-1-1 3-1 1-2c-1-1-2 0-3 2l-2 1-1-1h-2c-2 2-4 2-4 1h-1l-1-1h-1v1l-2-1h-1l1 1h-5l1-1h-1l-1 1-1-1h-6-3l-2 1 1-1h-1l-1 1h-2-1l-2-1h2l2-1c-1-1-2 0-4 1l-4 1-2-1h-1-6-1-4l-2 1h-2-2c-1 0-2 0-1 1l-2-1h-1l-1 1-2-1c-2 0-3 0-1 1v1l-3-2h-8-1-1l-2 1h-4l-1 1h-1v-1h-2l-2-1v1h-1-6l-1 1v-1h-5-2-1l1-1h-1-1v1h-4l1-1h-1l-4 1h-1v-1h-2l-1 1-3 1-3-1h-2l1 1-4-1h-4-3-3l-2-1h-3 1l1 1h-7c1 0 1 0 0 0h-1-1-1l-2 1h-2-5l-4 1a113 113 0 0 0-10 1v-1l-2 1-4-1-7 1H4zm189-6v-1h-1v2c0 1 1 1 1-1zm-29 0l-1 1 1-1zm-93-2h-1 1zM296 79h1c-1-1 0-1 1-1 2 0 3 0 1 1h-1-2z"/><path d="M115 79l1-1 1 1h-2zM284 79h-1l-1-2h1l2 1-1 1zM140 78h1v1l-1-1zM204 78l2-1v1h-1-1zM242 78h1c1 0 1 0 0 0h-1zM266 78h-1v-1l1-1h2v-1h-1v-1h2l3 1h6v1h-4l-1 1-1-1-1-1h-2v1c1 2 0 2-1 2h-2zM246 78h1-1zM270 78h0zM127 78v-1 1zM260 77h1l-1 1v-1zM262 77s0-1 0 0v0zM276 77h2l-1 1-1-1zM285 77h0zM289 77h1l-1-1h1c-1-1 0-1 1-1v2h-2zM257 77c-1-1 0-1 1-1l1 1h-2zM292 77v-1h2l-1 1h-1zM282 77l-1-1-1-1h2v1l2-1h1l-1 1-1 1h-1zM242 76c-1 0-1 0 0 0h0zM280 74h1l-2 1 1-1zM265 74h0zM274 74h2-2zM102 65c-1-1-3-2-3-4l1-9 1-12v-4H91c-3 0-4-3-4-7l2-4h7l7-1 2-7c0-9 1-14 2-15 0-2 2-2 4-2l3 3v20h14c1 1 2 3 1 5s-1 2-9 3c-6 1-8 3-9 5l-2 9a680 680 0 0 1-4 20h-3zM126 64c-4-1-7-3-8-5v-4-4l2-1 4 3 4 3c2 1 8 0 12-1 3-1 4-3 3-4l-2-1c-9-6-11-9-11-13 0-3 1-4 4-7l9-7 10-3 3 2c2 2 3 2 2 4l-5 3a130 130 0 0 0-7 3c-3 1-5 2-6 4s-1 2 1 3c7 5 11 9 12 11 1 3 1 6-1 8l-7 4c-5 2-15 3-19 2zM244 64c-2 0-2-3-3-7l1-7 3-20v-5l1-1c2-2 5-1 7 2 1 3 2 4 1 7a596 596 0 0 0-8 31h-2zM294 64l-4-4-2-2-7 3c-6 3-14 2-20-1l-4-4-1-5v-4l1-2a36 36 0 0 1 5-7l7-8 9-6c3-2 7-2 9-1 4 1 7 4 9 7 2 4 2 7 2 19v5l1 2 1 4-1 4h-5zm-18-9c5-1 8-4 11-9l3-12-3-3c-3-1-4-1-11 4-8 5-13 11-13 16l1 2 3 2h9zM168 64l-5-2c-8-8-6-20 5-31 4-4 9-7 12-8 3 0 8 1 10 3l5 8c1 4 0 7-2 13l-5 10-2 1-4 3-7 2-7 1zm7-10l4-2c2-1 5-6 7-11v-8l-2-1c-3 0-7 3-11 7l-5 8-1 5 1 2h7zM39 63l-4-4-2-1-7 3c-6 3-13 3-18 0l-5-5-1-3 2-8a51 51 0 0 1 21-21c5-2 9-2 14 3l2 4c2 5 2 7 1 15l1 10c2 3 2 6 0 7h-4zm-19-8c5-1 7-3 10-6l5-9c0-3 0-7-2-8-1-2-5-1-9 1a36 36 0 0 0-4 3l-8 8-3 8 2 3 5 1 4-1zM199 63l-2-7 1-8 5-18 3-1h4l7-5c6-3 11-2 14 3l4 14 1 20c-1 2-2 2-3 2-2 0-3 0-4-3l-1-2v-9l-1-12-2-2c-1-3-5-2-8 1-2 2-6 9-8 15-2 4-5 11-7 12h-3zM52 63l-2-4c-1-2 0-18 1-23v-3l1-2h5l4-3 5-4h7c3 0 9 4 10 6v4l-3 1-5-1c-4-1-6-1-8 1-4 2-4 2-7 16-2 10-3 10-4 11s-2 2-4 1zM248 21l-2-5c-1-4 2-7 5-6l4 4v5c-1 3-5 3-7 2z"/></g></svg>